<?xml version="1.0" standalone="no"?><!DOCTYPE svg PUBLIC "-//W3C//DTD SVG 1.1//EN" 	"http://www.w3.org/Graphics/SVG/1.1/DTD/svg11.dtd"><svg width="1368" height="713" version="1.1"	xmlns="http://www.w3.org/2000/svg"><title>Krona (snapshot) - root</title><defs>	<style type="text/css">	text {font-size: 11px; font-family: sans-serif; dominant-baseline:central}	path {stroke-width:0.27499999999999997;}	path.wedge {stroke:none}	path.line {fill:none;stroke:black;}	line {stroke:black;stroke-width:0.27499999999999997;}	line.tick {stroke-width:0.5499999999999999;}	line.pattern {stroke-width:0.18333333333333332;}	circle {fill:none;stroke:black;stroke-width:0.27499999999999997;}	rect {stroke:black;stroke-width:0.27499999999999997;}	.highlight {stroke:black;stroke-width:1.375;}	.searchHighlight {fill:rgb(255, 255, 100);stroke:none;}	</style><pattern id="hiddenPattern" patternUnits="userSpaceOnUse" x="0" y="0" width="6.6" height="6.6"><line class="pattern" x1="0" y1="0" x2="3.3" y2="3.3"/><line class="pattern" x1="3.3" y1="6.6" x2="6.6" y2="3.3"/></pattern></defs><path class="wedge" fill="rgb(220,220,220)" d=" M 609.6498615439754,427.7970383674782 L 611.5994461759016,641.6881534699129 A 285.2,285.2 0 0,1 609.0000000000001,641.7 L 609,427.8 A 71.3,71.3 0 0 0 609.6498615439754,427.7970383674782 Z "/><path class="wedge" fill="rgb(207,111,111)" d=" M 609,427.8 L 609,641.7 A 285.2,285.2 0 1,1 612.7703203858636,641.6750772493766 L 609.9425800964659,427.7937693123441 A 71.3,71.3 0 1 0 609,427.8 Z "/><path class="wedge" fill="rgb(207,111,111)" d=" M 610.5491887567724,473.53604719507905 L 612.7748193122785,641.6750177332503 A 285.2,285.2 0 0,1 612.7703203858636,641.6750772493766 L 610.5473423939023,473.5360716205432 A 117.04629993661861,117.04629993661861 0 0 0 610.5491887567724,473.53604719507905 Z "/><path class="wedge" fill="rgb(210,121,121)" d=" M 609,473.5462999366186 L 609,641.7 A 285.2,285.2 0 1,1 612.8389289110714,641.6741619165659 L 610.5754993855562,473.5356959672518 A 117.04629993661861,117.04629993661861 0 1 0 609,473.5462999366186 Z "/><path class="wedge" fill="rgb(210,121,121)" d=" M 611.4940084877226,506.5109505334477 L 613.7409401474067,641.6605924501469 A 285.2,285.2 0 0,1 612.8389289110714,641.6741619165659 L 611.0194984518446,506.51808885693856 A 150.03168118196012,150.03168118196012 0 0 0 611.4940084877226,506.5109505334477 Z "/><path class="wedge" fill="rgb(213,130,130)" d=" M 609,506.53168118196015 L 609,641.7 A 285.2,285.2 0 1,1 615.7404786192076,641.620335907462 L 612.5458812735301,506.4897732656442 A 150.03168118196012,150.03168118196012 0 1 0 609,506.53168118196015 Z "/><path class="wedge" fill="rgb(213,130,130)" d=" M 613.3126593488073,531.3641489330848 L 616.0317246494899,641.613301773968 A 285.2,285.2 0 0,1 615.7404786192076,641.620335907462 L 613.1340339079788,531.3684630698132 A 174.91732222038766,174.91732222038766 0 0 0 613.3126593488073,531.3641489330848 Z "/><path class="wedge" fill="rgb(216,140,140)" d=" M 609,531.4173222203876 L 609,641.7 A 285.2,285.2 0 1,1 888.7962418663494,301.24510847474835 L 780.603118494354,322.61136863543123 A 174.91732222038766,174.91732222038766 0 1 0 609,531.4173222203876 Z "/><path class="wedge" fill="rgb(216,140,140)" d=" M 798.736922860923,314.4099588668113 L 887.431439281219,294.7345272843409 A 285.2,285.2 0 0,1 888.7962418663494,301.24510847474835 L 799.6669666931991,318.8465901764546 A 194.34935415206644,194.34935415206644 0 0 0 798.736922860923,314.4099588668113 Z "/><path class="wedge" fill="rgb(219,149,149)" d=" M 609,550.8493541520664 L 609,641.7 A 285.2,285.2 0 1,1 884.7223727161115,283.58763353314004 L 796.8908312154686,306.8139153838253 A 194.34935415206644,194.34935415206644 0 1 0 609,550.8493541520664 Z "/><path class="wedge" fill="rgb(219,149,149)" d=" M 810.4280139182954,297.3330011633799 L 882.6391696136047,276.1218633384873 A 285.2,285.2 0 0,1 884.7223727161115,283.58763353314004 L 811.9614766316887,302.82861520431857 A 209.9380350065267,209.9380350065267 0 0 0 810.4280139182954,297.3330011633799 Z "/><path class="wedge" fill="rgb(223,159,159)" d=" M 609,566.4380350065267 L 609,641.7 A 285.2,285.2 0 1,1 787.0890825702273,133.73707968044877 L 740.0928192528353,192.52240615637425 A 209.9380350065267,209.9380350065267 0 1 0 609,566.4380350065267 Z "/><path class="wedge" fill="rgb(223,159,159)" d=" M 747.0050446487709,181.69163178189714 L 785.7213190172776,132.6504625763243 A 285.2,285.2 0 0,1 787.0890825702273,133.73707968044877 L 748.0731572638388,182.54019177909905 A 222.71811320048732,222.71811320048732 0 0 0 747.0050446487709,181.69163178189714 Z "/><path class="wedge" fill="rgb(226,168,168)" d=" M 609,579.2181132004873 L 609,641.7 A 285.2,285.2 0 1,1 776.101002077699,125.38034461641129 L 739.4923558788774,176.01425816767275 A 222.71811320048732,222.71811320048732 0 1 0 609,579.2181132004873 Z "/><path class="wedge" fill="rgb(226,168,168)" d=" M 745.2826035552955,167.03951701051517 L 775.5399158728704,124.97571094794992 A 285.2,285.2 0 0,1 776.101002077699,125.38034461641129 L 745.7417504715902,167.37063600703334 A 233.38428106112616,233.38428106112616 0 0 0 745.2826035552955,167.03951701051517 Z "/><path class="wedge" fill="rgb(229,178,178)" d=" M 609,589.8842810611261 L 609,641.7 A 285.2,285.2 0 1,1 775.5225658824036,124.96323174938169 L 745.2684057465596,167.02930505824986 A 233.38428106112616,233.38428106112616 0 1 0 609,589.8842810611261 Z "/><path class="wedge" fill="rgb(229,192,178)" d=" M 745.2684057465596,167.02930505824986 L 775.5225658824036,124.96323174938169 A 285.2,285.2 0 0,1 775.5399158728704,124.97571094794992 L 745.2826035552955,167.03951701051517 A 233.38428106112616,233.38428106112616 0 0 0 745.2684057465596,167.02930505824986 Z "/><path class="wedge" fill="url(#hiddenPattern)" d=" M 745.2684057465596,167.02930505824986 L 775.5225658824036,124.96323174938169 A 285.2,285.2 0 0,1 775.5399158728704,124.97571094794992 L 745.2826035552955,167.03951701051517 A 233.38428106112616,233.38428106112616 0 0 0 745.2684057465596,167.02930505824986 Z "/><path class="wedge" fill="rgb(223,177,159)" d=" M 739.4923558788774,176.01425816767275 L 776.101002077699,125.38034461641129 A 285.2,285.2 0 0,1 785.7213190172776,132.6504625763243 L 747.0050446487709,181.69163178189714 A 222.71811320048732,222.71811320048732 0 0 0 739.4923558788774,176.01425816767275 Z "/><path class="wedge" fill="url(#hiddenPattern)" d=" M 739.4923558788774,176.01425816767275 L 776.101002077699,125.38034461641129 A 285.2,285.2 0 0,1 785.7213190172776,132.6504625763243 L 747.0050446487709,181.69163178189714 A 222.71811320048732,222.71811320048732 0 0 0 739.4923558788774,176.01425816767275 Z "/><path class="wedge" fill="rgb(223,178,159)" d=" M 740.0928192528353,192.52240615637425 L 787.0890825702273,133.73707968044877 A 285.2,285.2 0 0,1 882.6391696136047,276.1218633384873 L 810.4280139182954,297.3330011633799 A 209.9380350065267,209.9380350065267 0 0 0 740.0928192528353,192.52240615637425 Z "/><path class="wedge" fill="rgb(223,178,159)" d=" M 822.6707206830284,293.6654468434737 L 882.6144297520314,276.0376868871477 A 285.2,285.2 0 0,1 882.6391696136047,276.1218633384873 L 822.6900405122377,293.73118183792764 A 222.71811320048732,222.71811320048732 0 0 0 822.6707206830284,293.6654468434737 Z "/><path class="wedge" fill="rgb(226,185,168)" d=" M 748.0731572638388,182.54019177909905 L 787.0890825702273,133.73707968044877 A 285.2,285.2 0 0,1 882.4925749959583,275.6244695715686 L 822.5755619826178,293.34275756974466 A 222.71811320048732,222.71811320048732 0 0 0 748.0731572638388,182.54019177909905 Z "/><path class="wedge" fill="rgb(226,185,168)" d=" M 832.7442815377304,290.1168761989651 L 882.4197384863621,275.37856876232155 A 285.2,285.2 0 0,1 882.4925749959583,275.6244695715686 L 832.803884961388,290.31810124657545 A 233.38428106112616,233.38428106112616 0 0 0 832.7442815377304,290.1168761989651 Z "/><path class="wedge" fill="rgb(229,193,178)" d=" M 754.7334940409819,174.20910236376088 L 787.0890825702273,133.73707968044877 A 285.2,285.2 0 0,1 882.4149388588298,275.3623933750674 L 832.7403539163387,290.1036395891292 A 233.38428106112616,233.38428106112616 0 0 0 754.7334940409819,174.20910236376088 Z "/><path class="wedge" fill="rgb(229,195,178)" d=" M 832.7403539163387,290.1036395891292 L 882.4149388588298,275.3623933750674 A 285.2,285.2 0 0,1 882.4197384863621,275.37856876232155 L 832.7442815377304,290.1168761989651 A 233.38428106112616,233.38428106112616 0 0 0 832.7403539163387,290.1036395891292 Z "/><path class="wedge" fill="url(#hiddenPattern)" d=" M 832.7403539163387,290.1036395891292 L 882.4149388588298,275.3623933750674 A 285.2,285.2 0 0,1 882.4197384863621,275.37856876232155 L 832.7442815377304,290.1168761989651 A 233.38428106112616,233.38428106112616 0 0 0 832.7403539163387,290.1036395891292 Z "/><path class="wedge" fill="rgb(223,180,159)" d=" M 822.5755619826178,293.34275756974466 L 882.4925749959583,275.6244695715686 A 285.2,285.2 0 0,1 882.6144297520314,276.0376868871477 L 822.6707206830284,293.6654468434737 A 222.71811320048732,222.71811320048732 0 0 0 822.5755619826178,293.34275756974466 Z "/><path class="wedge" fill="url(#hiddenPattern)" d=" M 822.5755619826178,293.34275756974466 L 882.4925749959583,275.6244695715686 A 285.2,285.2 0 0,1 882.6144297520314,276.0376868871477 L 822.6707206830284,293.6654468434737 A 222.71811320048732,222.71811320048732 0 0 0 822.5755619826178,293.34275756974466 Z "/><path class="wedge" fill="rgb(216,166,140)" d=" M 796.8908312154686,306.8139153838253 L 884.7223727161115,283.58763353314004 A 285.2,285.2 0 0,1 887.431439281219,294.7345272843409 L 798.736922860923,314.4099588668113 A 194.34935415206644,194.34935415206644 0 0 0 796.8908312154686,306.8139153838253 Z "/><path class="wedge" fill="url(#hiddenPattern)" d=" M 796.8908312154686,306.8139153838253 L 884.7223727161115,283.58763353314004 A 285.2,285.2 0 0,1 887.431439281219,294.7345272843409 L 798.736922860923,314.4099588668113 A 194.34935415206644,194.34935415206644 0 0 0 796.8908312154686,306.8139153838253 Z "/><path class="wedge" fill="rgb(216,167,140)" d=" M 780.603118494354,322.61136863543123 L 888.7962418663494,301.24510847474835 A 285.2,285.2 0 0,1 616.3724394351036,641.6046950451284 L 613.5216246992297,531.3588703006806 A 174.91732222038766,174.91732222038766 0 0 0 780.603118494354,322.61136863543123 Z "/><path class="wedge" fill="rgb(216,167,140)" d=" M 614.0277753405746,550.7843095426135 L 616.3780617043365,641.60454960503 A 285.2,285.2 0 0,1 616.3724394351036,641.6046950451284 L 614.0239440488697,550.7844086526738 A 194.34935415206644,194.34935415206644 0 0 0 614.0277753405746,550.7843095426135 Z "/><path class="wedge" fill="rgb(219,174,149)" d=" M 799.6669666931991,318.8465901764546 L 888.7962418663494,301.24510847474835 A 285.2,285.2 0 0,1 616.3825595176571,641.6044331731239 L 614.030840372531,550.7842302001669 A 194.34935415206644,194.34935415206644 0 0 0 799.6669666931991,318.8465901764546 Z "/><path class="wedge" fill="rgb(219,174,149)" d=" M 614.6222520085339,566.3627380569361 L 616.6378073786583,641.5977093882841 A 285.2,285.2 0 0,1 616.3825595176571,641.6044331731239 L 614.43436198617,566.3676874895344 A 209.9380350065267,209.9380350065267 0 0 0 614.6222520085339,566.3627380569361 Z "/><path class="wedge" fill="rgb(223,181,159)" d=" M 814.9602847813193,315.82642583692103 L 888.7962418663494,301.24510847474835 A 285.2,285.2 0 0,1 616.7974747471224,641.5933871340546 L 614.7397844545017,566.3595564105135 A 209.9380350065267,209.9380350065267 0 0 0 814.9602847813193,315.82642583692103 Z "/><path class="wedge" fill="rgb(223,181,159)" d=" M 615.0944650110154,579.1347130252033 L 616.8042212021478,641.5932025345885 A 285.2,285.2 0 0,1 616.7974747471224,641.5933871340546 L 615.0891965757627,579.134857182443 A 222.71811320048732,222.71811320048732 0 0 0 615.0944650110154,579.1347130252033 Z "/><path class="wedge" fill="rgb(226,189,168)" d=" M 827.4982155296652,313.3504025750293 L 888.7962418663494,301.24510847474835 A 285.2,285.2 0 0,1 616.8098432446639,641.5930485797467 L 615.0988553711189,579.1345927989342 A 222.71811320048732,222.71811320048732 0 0 0 827.4982155296652,313.3504025750293 Z "/><path class="wedge" fill="rgb(226,189,168)" d=" M 616.4186474786022,589.7663420127451 L 618.0657273543766,641.555876255053 A 285.2,285.2 0 0,1 616.8098432446639,641.5930485797467 L 615.3909349609256,589.7967607935094 A 233.38428106112616,233.38428106112616 0 0 0 616.4186474786022,589.7663420127451 Z "/><path class="wedge" fill="rgb(229,196,178)" d=" M 837.9622887502908,311.2839301061312 L 888.7962418663494,301.24510847474835 A 285.2,285.2 0 0,1 618.1084491928904,641.5545143534839 L 616.453607526173,589.7652275442367 A 233.38428106112616,233.38428106112616 0 0 0 837.9622887502908,311.2839301061312 Z "/><path class="wedge" fill="rgb(229,203,178)" d=" M 616.453607526173,589.7652275442367 L 618.1084491928904,641.5545143534839 A 285.2,285.2 0 0,1 618.0657273543766,641.555876255053 L 616.4186474786022,589.7663420127451 A 233.38428106112616,233.38428106112616 0 0 0 616.453607526173,589.7652275442367 Z "/><path class="wedge" fill="url(#hiddenPattern)" d=" M 616.453607526173,589.7652275442367 L 618.1084491928904,641.5545143534839 A 285.2,285.2 0 0,1 618.0657273543766,641.555876255053 L 616.4186474786022,589.7663420127451 A 233.38428106112616,233.38428106112616 0 0 0 616.453607526173,589.7652275442367 Z "/><path class="wedge" fill="rgb(223,190,159)" d=" M 615.0988553711189,579.1345927989342 L 616.8098432446639,641.5930485797467 A 285.2,285.2 0 0,1 616.8042212021478,641.5932025345885 L 615.0944650110154,579.1347130252033 A 222.71811320048732,222.71811320048732 0 0 0 615.0988553711189,579.1345927989342 Z "/><path class="wedge" fill="url(#hiddenPattern)" d=" M 615.0988553711189,579.1345927989342 L 616.8098432446639,641.5930485797467 A 285.2,285.2 0 0,1 616.8042212021478,641.5932025345885 L 615.0944650110154,579.1347130252033 A 222.71811320048732,222.71811320048732 0 0 0 615.0988553711189,579.1345927989342 Z "/><path class="wedge" fill="rgb(219,183,149)" d=" M 614.7397844545017,566.3595564105135 L 616.7974747471224,641.5933871340546 A 285.2,285.2 0 0,1 616.6378073786583,641.5977093882841 L 614.6222520085339,566.3627380569361 A 209.9380350065267,209.9380350065267 0 0 0 614.7397844545017,566.3595564105135 Z "/><path class="wedge" fill="url(#hiddenPattern)" d=" M 614.7397844545017,566.3595564105135 L 616.7974747471224,641.5933871340546 A 285.2,285.2 0 0,1 616.6378073786583,641.5977093882841 L 614.6222520085339,566.3627380569361 A 209.9380350065267,209.9380350065267 0 0 0 614.7397844545017,566.3595564105135 Z "/><path class="wedge" fill="rgb(216,177,140)" d=" M 614.030840372531,550.7842302001669 L 616.3825595176571,641.6044331731239 A 285.2,285.2 0 0,1 616.3780617043365,641.60454960503 L 614.0277753405746,550.7843095426135 A 194.34935415206644,194.34935415206644 0 0 0 614.030840372531,550.7842302001669 Z "/><path class="wedge" fill="url(#hiddenPattern)" d=" M 614.030840372531,550.7842302001669 L 616.3825595176571,641.6044331731239 A 285.2,285.2 0 0,1 616.3780617043365,641.60454960503 L 614.0277753405746,550.7843095426135 A 194.34935415206644,194.34935415206644 0 0 0 614.030840372531,550.7842302001669 Z "/><path class="wedge" fill="rgb(213,171,130)" d=" M 613.5216246992297,531.3588703006806 L 616.3724394351036,641.6046950451284 A 285.2,285.2 0 0,1 616.0317246494899,641.613301773968 L 613.3126593488073,531.3641489330848 A 174.91732222038766,174.91732222038766 0 0 0 613.5216246992297,531.3588703006806 Z "/><path class="wedge" fill="url(#hiddenPattern)" d=" M 613.5216246992297,531.3588703006806 L 616.3724394351036,641.6046950451284 A 285.2,285.2 0 0,1 616.0317246494899,641.613301773968 L 613.3126593488073,531.3641489330848 A 174.91732222038766,174.91732222038766 0 0 0 613.5216246992297,531.3588703006806 Z "/><path class="wedge" fill="rgb(210,165,121)" d=" M 612.5458812735301,506.4897732656442 L 615.7404786192076,641.620335907462 A 285.2,285.2 0 0,1 613.7409401474067,641.6605924501469 L 611.4940084877226,506.5109505334477 A 150.03168118196012,150.03168118196012 0 0 0 612.5458812735301,506.4897732656442 Z "/><path class="wedge" fill="url(#hiddenPattern)" d=" M 612.5458812735301,506.4897732656442 L 615.7404786192076,641.620335907462 A 285.2,285.2 0 0,1 613.7409401474067,641.6605924501469 L 611.4940084877226,506.5109505334477 A 150.03168118196012,150.03168118196012 0 0 0 612.5458812735301,506.4897732656442 Z "/><path class="wedge" fill="rgb(207,159,111)" d=" M 610.5754993855562,473.5356959672518 L 612.8389289110714,641.6741619165659 A 285.2,285.2 0 0,1 612.7748193122785,641.6750177332503 L 610.5491887567724,473.53604719507905 A 117.04629993661861,117.04629993661861 0 0 0 610.5754993855562,473.5356959672518 Z "/><path class="wedge" fill="url(#hiddenPattern)" d=" M 610.5754993855562,473.5356959672518 L 612.8389289110714,641.6741619165659 A 285.2,285.2 0 0,1 612.7748193122785,641.6750177332503 L 610.5491887567724,473.53604719507905 A 117.04629993661861,117.04629993661861 0 0 0 610.5754993855562,473.5356959672518 Z "/><path class="wedge" fill="rgb(101,204,204)" d=" M 609.9425800964659,427.7937693123441 L 612.7703203858636,641.6750772493766 A 285.2,285.2 0 0,1 611.5994461759016,641.6881534699129 L 609.6498615439754,427.7970383674782 A 71.3,71.3 0 0 0 609.9425800964659,427.7937693123441 Z "/><path class="wedge" fill="url(#hiddenPattern)" d=" M 609.9425800964659,427.7937693123441 L 612.7703203858636,641.6750772493766 A 285.2,285.2 0 0,1 611.5994461759016,641.6881534699129 L 609.6498615439754,427.7970383674782 A 71.3,71.3 0 0 0 609.9425800964659,427.7937693123441 Z "/><rect fill="rgb(101,204,204)" x="1335.305" y="650.9716666666667" width="22" height="22"/><rect fill="url(#hiddenPattern)" style="stroke:none" x="1335.305" y="650.9716666666667" width="22" height="22"/><path class="line" d="M 612.1848899917786,641.6822162683716 L 612.7157049904084,689.2125856464335 A 332.7333333333333,332.7333333333333 0 0,0 740.903494930953,661.9716666666667 L 953.6166666666667,661.9716666666667 L 1245.6327994791668,661.9716666666667"/><text x="1327.9716666666668" y="661.9716666666667" style="font-color:black;font-weight:normal" text-anchor="end">Viruses&#160;&#160;&#160;0.07%</text><circle cx="609" cy="356.5" r="71.3"/><circle cx="609" cy="356.5" r="285.2"/><text x="609" y="356.5" text-anchor="middle" style="font-color:black;font-weight:bold" transform="rotate(360,609,356.5)">root</text><rect fill="rgb(220,220,220)" x="1335.305" y="680.305" width="22" height="22"/><path class="line" d="M 610.2997365850129,641.6970383521007 L 610.5705150402238,701.1130880087883 A 344.6166666666666,344.6166666666666 0 0,0 690.6471611229958,691.305 L 942.6166666666667,691.305 L 1235.0356315104168,691.305"/><text x="1327.9716666666668" y="691.305" style="font-color:black;font-weight:normal" text-anchor="end">[other root]&#160;&#160;&#160;0.1%</text><path class="line" d=" M 609.9425800964659,427.7937693123441 A 71.3,71.3 0 1 0 609,427.8"/><line x1="612.7703203858636" y1="641.6750772493766" x2="609.9425800964659" y2="427.7937693123441"/><text x="609" y="271.4761100190144" text-anchor="middle" style="font-color:black;font-weight:normal" transform="rotate(359.6212662372309,609,356.5)">cellular organisms</text><path class="line" d=" M 610.5754993855562,473.5356959672518 A 117.04629993661861,117.04629993661861 0 1 0 609,473.5462999366186"/><line x1="612.8389289110714" y1="641.6741619165659" x2="610.5754993855562" y2="473.5356959672518"/><text x="609" y="229.55808568977895" text-anchor="middle" style="font-color:black;font-weight:normal" transform="rotate(359.6143740058678,609,356.5)">Bacteria</text><path class="line" d=" M 612.5458812735301,506.4897732656442 A 150.03168118196012,150.03168118196012 0 1 0 609,506.53168118196015"/><line x1="615.7404786192076" y1="641.620335907462" x2="612.5458812735301" y2="506.4897732656442"/><text x="609" y="194.0254982988261" text-anchor="middle" style="font-color:black;font-weight:normal" transform="rotate(359.3228665154309,609,356.5)">Terrabacteria group</text><path class="line" d=" M 780.603118494354,322.61136863543123 A 174.91732222038766,174.91732222038766 0 1 0 609,531.4173222203876"/><line x1="888.7962418663494" y1="301.24510847474835" x2="780.603118494354" y2="322.61136863543123"/><text x="609" y="171.86666181377294" text-anchor="middle" style="font-color:black;font-weight:normal" transform="rotate(309.4144114172512,609,356.5)">Firmicutes</text><path class="line" d=" M 796.8908312154686,306.8139153838253 A 194.34935415206644,194.34935415206644 0 1 0 609,550.8493541520664"/><line x1="884.7223727161115" y1="283.58763353314004" x2="796.8908312154686" y2="306.8139153838253"/><text x="609" y="154.35630542070345" text-anchor="middle" style="font-color:black;font-weight:normal" transform="rotate(307.59384545081343,609,356.5)">Bacilli</text><path class="line" d=" M 740.0928192528353,192.52240615637425 A 209.9380350065267,209.9380350065267 0 1 0 609,566.4380350065267"/><line x1="787.0890825702273" y1="133.73707968044877" x2="740.0928192528353" y2="192.52240615637425"/><path class="line" d=" M 739.4923558788774,176.01425816767275 A 222.71811320048732,222.71811320048732 0 1 0 609,579.2181132004873"/><line x1="776.101002077699" y1="125.38034461641129" x2="739.4923558788774" y2="176.01425816767275"/><path class="line" d=" M 745.2684057465596,167.02930505824986 A 233.38428106112616,233.38428106112616 0 1 0 609,589.8842810611261"/><line x1="775.5225658824036" y1="124.96323174938169" x2="745.2684057465596" y2="167.02930505824986"/><text x="349.7078594694369" y="356.5" text-anchor="end" style="font-color:black;font-weight:normal" transform="rotate(17.861951995420245,609,356.5)">Enterococcus&#160;&#160;&#160;60%</text><path class="line" d=" M 745.2826035552955,167.03951701051517 A 233.38428106112616,233.38428106112616 0 0 0 745.2684057465596,167.02930505824986"/><line x1="775.5399158728704" y1="124.97571094794992" x2="745.2826035552955" y2="167.03951701051517"/><path class="line" d=" M 747.0050446487709,181.69163178189714 A 222.71811320048732,222.71811320048732 0 0 0 739.4923558788774,176.01425816767275"/><line x1="785.7213190172776" y1="132.6504625763243" x2="747.0050446487709" y2="181.69163178189714"/><path class="line" d=" M 810.4280139182954,297.3330011633799 A 209.9380350065267,209.9380350065267 0 0 0 740.0928192528353,192.52240615637425"/><line x1="882.6391696136047" y1="276.1218633384873" x2="810.4280139182954" y2="297.3330011633799"/><path class="line" d=" M 822.5755619826178,293.34275756974466 A 222.71811320048732,222.71811320048732 0 0 0 748.0731572638388,182.54019177909905"/><line x1="882.4925749959583" y1="275.6244695715686" x2="822.5755619826178" y2="293.34275756974466"/><path class="line" d=" M 832.7403539163387,290.1036395891292 A 233.38428106112616,233.38428106112616 0 0 0 754.7334940409819,174.20910236376088"/><line x1="882.4149388588298" y1="275.3623933750674" x2="832.7403539163387" y2="290.1036395891292"/><text x="868.2921405305631" y="356.5" text-anchor="start" style="font-color:black;font-weight:normal" transform="rotate(326.0560994992147,609,356.5)">10%&#160;&#160;&#160;Staphylococcus</text><path class="line" d=" M 832.7442815377304,290.1168761989651 A 233.38428106112616,233.38428106112616 0 0 0 832.7403539163387,290.1036395891292"/><line x1="882.4197384863621" y1="275.37856876232155" x2="832.7442815377304" y2="290.1168761989651"/><path class="line" d=" M 822.6707206830284,293.6654468434737 A 222.71811320048732,222.71811320048732 0 0 0 822.5755619826178,293.34275756974466"/><line x1="882.6144297520314" y1="276.0376868871477" x2="822.6707206830284" y2="293.6654468434737"/><path class="line" d=" M 798.736922860923,314.4099588668113 A 194.34935415206644,194.34935415206644 0 0 0 796.8908312154686,306.8139153838253"/><line x1="887.431439281219" y1="294.7345272843409" x2="798.736922860923" y2="314.4099588668113"/><path class="line" d=" M 613.5216246992297,531.3588703006806 A 174.91732222038766,174.91732222038766 0 0 0 780.603118494354,322.61136863543123"/><line x1="616.3724394351036" y1="641.6046950451284" x2="613.5216246992297" y2="531.3588703006806"/><text x="609" y="541.1333381862271" text-anchor="middle" style="font-color:black;font-weight:normal" transform="rotate(308.6737790142226,609,356.5)">Actinobacteria</text><path class="line" d=" M 614.030840372531,550.7842302001669 A 194.34935415206644,194.34935415206644 0 0 0 799.6669666931991,318.8465901764546"/><line x1="616.3825595176571" y1="641.6044331731239" x2="614.030840372531" y2="550.7842302001669"/><text x="609" y="558.6436945792966" text-anchor="middle" style="font-color:black;font-weight:normal" transform="rotate(308.67276212762806,609,356.5)">Actinobacteria</text><path class="line" d=" M 614.7397844545017,566.3595564105135 A 209.9380350065267,209.9380350065267 0 0 0 814.9602847813193,315.82642583692103"/><line x1="616.7974747471224" y1="641.5933871340546" x2="614.7397844545017" y2="566.3595564105135"/><path class="line" d=" M 615.0988553711189,579.1345927989342 A 222.71811320048732,222.71811320048732 0 0 0 827.4982155296652,313.3504025750293"/><line x1="616.8098432446639" y1="641.5930485797467" x2="615.0988553711189" y2="579.1345927989342"/><path class="line" d=" M 616.453607526173,589.7652275442367 A 233.38428106112616,233.38428106112616 0 0 0 837.9622887502908,311.2839301061312"/><line x1="618.1084491928904" y1="641.5545143534839" x2="616.453607526173" y2="589.7652275442367"/><text x="868.2921405305631" y="356.5" text-anchor="start" style="font-color:black;font-weight:normal" transform="rotate(398.49932646955807,609,356.5)">28%&#160;&#160;&#160;Cutibacterium</text><path class="line" d=" M 616.4186474786022,589.7663420127451 A 233.38428106112616,233.38428106112616 0 0 0 616.453607526173,589.7652275442367"/><line x1="618.0657273543766" y1="641.555876255053" x2="616.4186474786022" y2="589.7663420127451"/><path class="line" d=" M 615.0944650110154,579.1347130252033 A 222.71811320048732,222.71811320048732 0 0 0 615.0988553711189,579.1345927989342"/><line x1="616.8042212021478" y1="641.5932025345885" x2="615.0944650110154" y2="579.1347130252033"/><path class="line" d=" M 614.6222520085339,566.3627380569361 A 209.9380350065267,209.9380350065267 0 0 0 614.7397844545017,566.3595564105135"/><line x1="616.6378073786583" y1="641.5977093882841" x2="614.6222520085339" y2="566.3627380569361"/><path class="line" d=" M 614.0277753405746,550.7843095426135 A 194.34935415206644,194.34935415206644 0 0 0 614.030840372531,550.7842302001669"/><line x1="616.3780617043365" y1="641.60454960503" x2="614.0277753405746" y2="550.7843095426135"/><path class="line" d=" M 613.3126593488073,531.3641489330848 A 174.91732222038766,174.91732222038766 0 0 0 613.5216246992297,531.3588703006806"/><line x1="616.0317246494899" y1="641.613301773968" x2="613.3126593488073" y2="531.3641489330848"/><path class="line" d=" M 611.4940084877226,506.5109505334477 A 150.03168118196012,150.03168118196012 0 0 0 612.5458812735301,506.4897732656442"/><line x1="613.7409401474067" y1="641.6605924501469" x2="611.4940084877226" y2="506.5109505334477"/><path class="line" d=" M 610.5491887567724,473.53604719507905 A 117.04629993661861,117.04629993661861 0 0 0 610.5754993855562,473.5356959672518"/><line x1="612.7748193122785" y1="641.6750177332503" x2="610.5491887567724" y2="473.53604719507905"/><path class="line" d=" M 609.6498615439754,427.7970383674782 A 71.3,71.3 0 0 0 609.9425800964659,427.7937693123441"/><line x1="611.5994461759016" y1="641.6881534699129" x2="609.6498615439754" y2="427.7970383674782"/></svg>