<?xml version="1.0" standalone="no"?><!DOCTYPE svg PUBLIC "-//W3C//DTD SVG 1.1//EN" 	"http://www.w3.org/Graphics/SVG/1.1/DTD/svg11.dtd"><svg width="1368" height="713" version="1.1"	xmlns="http://www.w3.org/2000/svg"><title>Krona (snapshot) - root</title><defs>	<style type="text/css">	text {font-size: 11px; font-family: sans-serif; dominant-baseline:central}	path {stroke-width:0.27499999999999997;}	path.wedge {stroke:none}	path.line {fill:none;stroke:black;}	line {stroke:black;stroke-width:0.27499999999999997;}	line.tick {stroke-width:0.5499999999999999;}	line.pattern {stroke-width:0.18333333333333332;}	circle {fill:none;stroke:black;stroke-width:0.27499999999999997;}	rect {stroke:black;stroke-width:0.27499999999999997;}	.highlight {stroke:black;stroke-width:1.375;}	.searchHighlight {fill:rgb(255, 255, 100);stroke:none;}	</style><pattern id="hiddenPattern" patternUnits="userSpaceOnUse" x="0" y="0" width="6.6" height="6.6"><line class="pattern" x1="0" y1="0" x2="3.3" y2="3.3"/><line class="pattern" x1="3.3" y1="6.6" x2="6.6" y2="3.3"/></pattern></defs><path class="wedge" fill="rgb(220,220,220)" d=" M 609.5556623695774,427.79783474504 L 611.2226494783097,641.69133898016 A 285.2,285.2 0 0,1 609.0000000000001,641.7 L 609,427.8 A 71.3,71.3 0 0 0 609.5556623695774,427.79783474504 Z "/><path class="wedge" fill="rgb(207,111,111)" d=" M 609,427.8 L 609,641.7 A 285.2,285.2 0 1,1 614.0728115353005,641.6548817452147 L 610.2682028838251,427.78872043630366 A 71.3,71.3 0 1 0 609,427.8 Z "/><path class="wedge" fill="rgb(207,111,111)" d=" M 611.0832558840837,473.5277589880893 L 614.0761500232164,641.6548223350637 A 285.2,285.2 0 0,1 614.0728115353005,641.6548817452147 L 611.0818857660685,473.527783370061 A 117.04629993661861,117.04629993661861 0 0 0 611.0832558840837,473.5277589880893 Z "/><path class="wedge" fill="rgb(210,121,121)" d=" M 609,473.5462999366186 L 609,641.7 A 285.2,285.2 0 1,1 614.0850526542562,641.654663716909 L 611.0869095307278,473.52769389107624 A 117.04629993661861,117.04629993661861 0 1 0 609,473.5462999366186 Z "/><path class="wedge" fill="rgb(210,121,121)" d=" M 612.1193469788376,506.499250107162 L 614.9296659969139,641.6383507372606 A 285.2,285.2 0 0,1 614.0850526542562,641.654663716909 L 611.6750315519525,506.50783167715406 A 150.03168118196012,150.03168118196012 0 0 0 612.1193469788376,506.499250107162 Z "/><path class="wedge" fill="rgb(213,130,130)" d=" M 609,506.53168118196015 L 609,641.7 A 285.2,285.2 0 1,1 615.5094038580296,641.6257050169504 L 612.4243225957662,506.49259772750605 A 150.03168118196012,150.03168118196012 0 1 0 609,506.53168118196015 Z "/><path class="wedge" fill="rgb(213,130,130)" d=" M 613.1404014332323,531.368312420297 L 615.7508607710679,641.6200902757462 A 285.2,285.2 0 0,1 615.5094038580296,641.6257050169504 L 612.9923123846339,531.3717560230194 A 174.91732222038766,174.91732222038766 0 0 0 613.1404014332323,531.368312420297 Z "/><path class="wedge" fill="rgb(216,140,140)" d=" M 609,531.4173222203876 L 609,641.7 A 285.2,285.2 0 1,1 615.849890096373,641.617728325805 L 613.2011375636799,531.3668638019278 A 174.91732222038766,174.91732222038766 0 1 0 609,531.4173222203876 Z "/><path class="wedge" fill="rgb(216,140,140)" d=" M 614.9059527556464,550.7595973983613 L 617.6667523710546,641.5682855095229 A 285.2,285.2 0 0,1 615.849890096373,641.617728325805 L 613.667853142506,550.7932901732979 A 194.34935415206644,194.34935415206644 0 0 0 614.9059527556464,550.7595973983613 Z "/><path class="wedge" fill="rgb(219,149,149)" d=" M 609,550.8493541520664 L 609,641.7 A 285.2,285.2 0 1,1 617.7579762267371,641.5654974780566 L 614.968117192656,550.7576974961355 A 194.34935415206644,194.34935415206644 0 1 0 609,550.8493541520664 Z "/><path class="wedge" fill="rgb(219,149,149)" d=" M 624.4852968959806,565.8661484635111 L 630.0367153079068,640.9230943665688 A 285.2,285.2 0 0,1 617.7579762267371,641.5654974780566 L 615.4468173901649,566.3390266083492 A 209.9380350065267,209.9380350065267 0 0 0 624.4852968959806,565.8661484635111 Z "/><path class="wedge" fill="rgb(223,159,159)" d=" M 609,566.4380350065267 L 609,641.7 A 285.2,285.2 0 1,1 784.1847911132177,581.5540578674784 L 737.9549467368083,522.1641187901247 A 209.9380350065267,209.9380350065267 0 1 0 609,566.4380350065267 Z "/><path class="wedge" fill="rgb(223,159,159)" d=" M 747.0854238321192,531.2448816780883 L 785.8242479742516,580.2682402137094 A 285.2,285.2 0 0,1 784.1847911132177,581.5540578674784 L 745.8051407368771,532.2490011793761 A 222.71811320048732,222.71811320048732 0 0 0 747.0854238321192,531.2448816780883 Z "/><path class="wedge" fill="rgb(226,168,168)" d=" M 609,579.2181132004873 L 609,641.7 A 285.2,285.2 0 1,1 787.593144878577,578.8590083679534 L 748.4667891230644,530.1443856831766 A 222.71811320048732,222.71811320048732 0 1 0 609,579.2181132004873 Z "/><path class="wedge" fill="rgb(226,168,168)" d=" M 755.873374950963,537.8737422476929 L 788.4820385741558,578.1421391100196 A 285.2,285.2 0 0,1 787.593144878577,578.8590083679534 L 755.1459772788648,538.4603692335895 A 233.38428106112616,233.38428106112616 0 0 0 755.873374950963,537.8737422476929 Z "/><path class="wedge" fill="rgb(229,178,178)" d=" M 609,589.8842810611261 L 609,641.7 A 285.2,285.2 0 1,1 788.5183648257812,578.1127177990418 L 755.9031013749436,537.8496662606296 A 233.38428106112616,233.38428106112616 0 1 0 609,589.8842810611261 Z "/><path class="wedge" fill="rgb(229,199,178)" d=" M 755.9031013749436,537.8496662606296 L 788.5183648257812,578.1127177990418 A 285.2,285.2 0 0,1 788.4820385741558,578.1421391100196 L 755.873374950963,537.8737422476929 A 233.38428106112616,233.38428106112616 0 0 0 755.9031013749436,537.8496662606296 Z "/><path class="wedge" fill="url(#hiddenPattern)" d=" M 755.9031013749436,537.8496662606296 L 788.5183648257812,578.1127177990418 A 285.2,285.2 0 0,1 788.4820385741558,578.1421391100196 L 755.873374950963,537.8737422476929 A 233.38428106112616,233.38428106112616 0 0 0 755.9031013749436,537.8496662606296 Z "/><path class="wedge" fill="rgb(223,186,159)" d=" M 748.4667891230644,530.1443856831766 L 787.593144878577,578.8590083679534 A 285.2,285.2 0 0,1 785.8242479742516,580.2682402137094 L 747.0854238321192,531.2448816780883 A 222.71811320048732,222.71811320048732 0 0 0 748.4667891230644,530.1443856831766 Z "/><path class="wedge" fill="url(#hiddenPattern)" d=" M 748.4667891230644,530.1443856831766 L 787.593144878577,578.8590083679534 A 285.2,285.2 0 0,1 785.8242479742516,580.2682402137094 L 747.0854238321192,531.2448816780883 A 222.71811320048732,222.71811320048732 0 0 0 748.4667891230644,530.1443856831766 Z "/><path class="wedge" fill="rgb(223,186,159)" d=" M 737.9549467368083,522.1641187901247 L 784.1847911132177,581.5540578674784 A 285.2,285.2 0 0,1 630.0367153079068,640.9230943665688 L 624.4852968959806,565.8661484635111 A 209.9380350065267,209.9380350065267 0 0 0 737.9549467368083,522.1641187901247 Z "/><path class="wedge" fill="rgb(223,186,159)" d=" M 625.5397867954841,578.6031143418413 L 630.1798992290571,640.9124678502104 A 285.2,285.2 0 0,1 630.0367153079068,640.9230943665688 L 625.4279717437336,578.6114127909059 A 222.71811320048732,222.71811320048732 0 0 0 625.5397867954841,578.6031143418413 Z "/><path class="wedge" fill="rgb(226,193,168)" d=" M 745.8051407368771,532.2490011793761 L 784.1847911132177,581.5540578674784 A 285.2,285.2 0 0,1 630.5428296874238,640.8852079294186 L 625.8232061044266,578.58182655038 A 222.71811320048732,222.71811320048732 0 0 0 745.8051407368771,532.2490011793761 Z "/><path class="wedge" fill="rgb(226,193,168)" d=" M 626.8241390491289,589.2026487033959 L 630.7814346094722,640.8670323830688 A 285.2,285.2 0 0,1 630.5428296874238,640.8852079294186 L 626.6288843570186,589.2175220793347 A 233.38428106112616,233.38428106112616 0 0 0 626.8241390491289,589.2026487033959 Z "/><path class="wedge" fill="rgb(229,200,178)" d=" M 752.3568601921525,540.6657766314535 L 784.1847911132177,581.5540578674784 A 285.2,285.2 0 0,1 630.8003003932012,640.8655867062084 L 626.8395772587091,589.2014656800625 A 233.38428106112616,233.38428106112616 0 0 0 752.3568601921525,540.6657766314535 Z "/><path class="wedge" fill="rgb(229,202,178)" d=" M 626.8395772587091,589.2014656800625 L 630.8003003932012,640.8655867062084 A 285.2,285.2 0 0,1 630.7814346094722,640.8670323830688 L 626.8241390491289,589.2026487033959 A 233.38428106112616,233.38428106112616 0 0 0 626.8395772587091,589.2014656800625 Z "/><path class="wedge" fill="url(#hiddenPattern)" d=" M 626.8395772587091,589.2014656800625 L 630.8003003932012,640.8655867062084 A 285.2,285.2 0 0,1 630.7814346094722,640.8670323830688 L 626.8241390491289,589.2026487033959 A 233.38428106112616,233.38428106112616 0 0 0 626.8395772587091,589.2014656800625 Z "/><path class="wedge" fill="rgb(223,189,159)" d=" M 625.8232061044266,578.58182655038 L 630.5428296874238,640.8852079294186 A 285.2,285.2 0 0,1 630.1798992290571,640.9124678502104 L 625.5397867954841,578.6031143418413 A 222.71811320048732,222.71811320048732 0 0 0 625.8232061044266,578.58182655038 Z "/><path class="wedge" fill="url(#hiddenPattern)" d=" M 625.8232061044266,578.58182655038 L 630.5428296874238,640.8852079294186 A 285.2,285.2 0 0,1 630.1798992290571,640.9124678502104 L 625.5397867954841,578.6031143418413 A 222.71811320048732,222.71811320048732 0 0 0 625.8232061044266,578.58182655038 Z "/><path class="wedge" fill="rgb(216,177,140)" d=" M 614.968117192656,550.7576974961355 L 617.7579762267371,641.5654974780566 A 285.2,285.2 0 0,1 617.6667523710546,641.5682855095229 L 614.9059527556464,550.7595973983613 A 194.34935415206644,194.34935415206644 0 0 0 614.968117192656,550.7576974961355 Z "/><path class="wedge" fill="url(#hiddenPattern)" d=" M 614.968117192656,550.7576974961355 L 617.7579762267371,641.5654974780566 A 285.2,285.2 0 0,1 617.6667523710546,641.5682855095229 L 614.9059527556464,550.7595973983613 A 194.34935415206644,194.34935415206644 0 0 0 614.968117192656,550.7576974961355 Z "/><path class="wedge" fill="rgb(213,171,130)" d=" M 613.2011375636799,531.3668638019278 L 615.849890096373,641.617728325805 A 285.2,285.2 0 0,1 615.7508607710679,641.6200902757462 L 613.1404014332323,531.368312420297 A 174.91732222038766,174.91732222038766 0 0 0 613.2011375636799,531.3668638019278 Z "/><path class="wedge" fill="url(#hiddenPattern)" d=" M 613.2011375636799,531.3668638019278 L 615.849890096373,641.617728325805 A 285.2,285.2 0 0,1 615.7508607710679,641.6200902757462 L 613.1404014332323,531.368312420297 A 174.91732222038766,174.91732222038766 0 0 0 613.2011375636799,531.3668638019278 Z "/><path class="wedge" fill="rgb(210,165,121)" d=" M 612.4243225957662,506.49259772750605 L 615.5094038580296,641.6257050169504 A 285.2,285.2 0 0,1 614.9296659969139,641.6383507372606 L 612.1193469788376,506.499250107162 A 150.03168118196012,150.03168118196012 0 0 0 612.4243225957662,506.49259772750605 Z "/><path class="wedge" fill="url(#hiddenPattern)" d=" M 612.4243225957662,506.49259772750605 L 615.5094038580296,641.6257050169504 A 285.2,285.2 0 0,1 614.9296659969139,641.6383507372606 L 612.1193469788376,506.499250107162 A 150.03168118196012,150.03168118196012 0 0 0 612.4243225957662,506.49259772750605 Z "/><path class="wedge" fill="rgb(207,159,111)" d=" M 611.0869095307278,473.52769389107624 L 614.0850526542562,641.654663716909 A 285.2,285.2 0 0,1 614.0761500232164,641.6548223350637 L 611.0832558840837,473.5277589880893 A 117.04629993661861,117.04629993661861 0 0 0 611.0869095307278,473.52769389107624 Z "/><path class="wedge" fill="url(#hiddenPattern)" d=" M 611.0869095307278,473.52769389107624 L 614.0850526542562,641.654663716909 A 285.2,285.2 0 0,1 614.0761500232164,641.6548223350637 L 611.0832558840837,473.5277589880893 A 117.04629993661861,117.04629993661861 0 0 0 611.0869095307278,473.52769389107624 Z "/><path class="wedge" fill="rgb(101,204,204)" d=" M 610.2682028838251,427.78872043630366 L 614.0728115353005,641.6548817452147 A 285.2,285.2 0 0,1 611.2226494783097,641.69133898016 L 609.5556623695774,427.79783474504 A 71.3,71.3 0 0 0 610.2682028838251,427.78872043630366 Z "/><path class="wedge" fill="url(#hiddenPattern)" d=" M 610.2682028838251,427.78872043630366 L 614.0728115353005,641.6548817452147 A 285.2,285.2 0 0,1 611.2226494783097,641.69133898016 L 609.5556623695774,427.79783474504 A 71.3,71.3 0 0 0 610.2682028838251,427.78872043630366 Z "/><rect fill="rgb(101,204,204)" x="1335.305" y="650.9716666666667" width="22" height="22"/><rect fill="url(#hiddenPattern)" style="stroke:none" x="1335.305" y="650.9716666666667" width="22" height="22"/><path class="line" d="M 612.6477760529905,641.6766710827995 L 613.2557387284888,689.206116263266 A 332.7333333333333,332.7333333333333 0 0,0 740.903494930953,661.9716666666667 L 953.6166666666667,661.9716666666667 L 1251.7504752604168,661.9716666666667"/><text x="1327.9716666666668" y="661.9716666666667" style="font-color:black;font-weight:normal" text-anchor="end">Viruses&#160;&#160;&#160;0.2%</text><circle cx="609" cy="356.5" r="71.3"/><circle cx="609" cy="356.5" r="285.2"/><text x="609" y="356.5" text-anchor="middle" style="font-color:black;font-weight:bold" transform="rotate(360,609,356.5)">root</text><rect fill="rgb(220,220,220)" x="1335.305" y="680.305" width="22" height="22"/><path class="line" d="M 610.1113331764927,641.6978347368206 L 610.3428609215954,701.1140503069914 A 344.6166666666666,344.6166666666666 0 0,0 690.6471611229958,691.305 L 942.6166666666667,691.305 L 1235.0356315104168,691.305"/><text x="1327.9716666666668" y="691.305" style="font-color:black;font-weight:normal" text-anchor="end">[other root]&#160;&#160;&#160;0.1%</text><path class="line" d=" M 610.2682028838251,427.78872043630366 A 71.3,71.3 0 1 0 609,427.8"/><line x1="614.0728115353005" y1="641.6548817452147" x2="610.2682028838251" y2="427.78872043630366"/><text x="609" y="271.4761100190144" text-anchor="middle" style="font-color:black;font-weight:normal" transform="rotate(359.49041721764223,609,356.5)">cellular organisms</text><path class="line" d=" M 611.0869095307278,473.52769389107624 A 117.04629993661861,117.04629993661861 0 1 0 609,473.5462999366186"/><line x1="614.0850526542562" y1="641.654663716909" x2="611.0869095307278" y2="473.52769389107624"/><text x="609" y="229.55808568977895" text-anchor="middle" style="font-color:black;font-weight:normal" transform="rotate(359.4891874215462,609,356.5)">Bacteria</text><path class="line" d=" M 612.4243225957662,506.49259772750605 A 150.03168118196012,150.03168118196012 0 1 0 609,506.53168118196015"/><line x1="615.5094038580296" y1="641.6257050169504" x2="612.4243225957662" y2="506.49259772750605"/><text x="609" y="194.0254982988261" text-anchor="middle" style="font-color:black;font-weight:normal" transform="rotate(359.34608387582045,609,356.5)">Terrabacteria group</text><path class="line" d=" M 613.2011375636799,531.3668638019278 A 174.91732222038766,174.91732222038766 0 1 0 609,531.4173222203876"/><line x1="615.849890096373" y1="641.617728325805" x2="613.2011375636799" y2="531.3668638019278"/><text x="609" y="171.86666181377294" text-anchor="middle" style="font-color:black;font-weight:normal" transform="rotate(359.3118731844204,609,356.5)">Firmicutes</text><path class="line" d=" M 614.968117192656,550.7576974961355 A 194.34935415206644,194.34935415206644 0 1 0 609,550.8493541520664"/><line x1="617.7579762267371" y1="641.5654974780566" x2="614.968117192656" y2="550.7576974961355"/><text x="609" y="154.35630542070345" text-anchor="middle" style="font-color:black;font-weight:normal" transform="rotate(359.12013679307694,609,356.5)">Bacilli</text><path class="line" d=" M 737.9549467368083,522.1641187901247 A 209.9380350065267,209.9380350065267 0 1 0 609,566.4380350065267"/><line x1="784.1847911132177" y1="581.5540578674784" x2="737.9549467368083" y2="522.1641187901247"/><path class="line" d=" M 748.4667891230644,530.1443856831766 A 222.71811320048732,222.71811320048732 0 1 0 609,579.2181132004873"/><line x1="787.593144878577" y1="578.8590083679534" x2="748.4667891230644" y2="530.1443856831766"/><path class="line" d=" M 755.9031013749436,537.8496662606296 A 233.38428106112616,233.38428106112616 0 1 0 609,589.8842810611261"/><line x1="788.5183648257812" y1="578.1127177990418" x2="755.9031013749436" y2="537.8496662606296"/><text x="349.7078594694369" y="356.5" text-anchor="end" style="font-color:black;font-weight:normal" transform="rotate(70.49532211651635,609,356.5)">Enterococcus&#160;&#160;&#160;89%</text><path class="line" d=" M 755.873374950963,537.8737422476929 A 233.38428106112616,233.38428106112616 0 0 0 755.9031013749436,537.8496662606296"/><line x1="788.4820385741558" y1="578.1421391100196" x2="755.873374950963" y2="537.8737422476929"/><path class="line" d=" M 747.0854238321192,531.2448816780883 A 222.71811320048732,222.71811320048732 0 0 0 748.4667891230644,530.1443856831766"/><line x1="785.8242479742516" y1="580.2682402137094" x2="747.0854238321192" y2="531.2448816780883"/><path class="line" d=" M 624.4852968959806,565.8661484635111 A 209.9380350065267,209.9380350065267 0 0 0 737.9549467368083,522.1641187901247"/><line x1="630.0367153079068" y1="640.9230943665688" x2="624.4852968959806" y2="565.8661484635111"/><path class="line" d=" M 625.8232061044266,578.58182655038 A 222.71811320048732,222.71811320048732 0 0 0 745.8051407368771,532.2490011793761"/><line x1="630.5428296874238" y1="640.8852079294186" x2="625.8232061044266" y2="578.58182655038"/><path class="line" d=" M 626.8395772587091,589.2014656800625 A 233.38428106112616,233.38428106112616 0 0 0 752.3568601921525,540.6657766314535"/><line x1="630.8003003932012" y1="640.8655867062084" x2="626.8395772587091" y2="589.2014656800625"/><text x="868.2921405305631" y="356.5" text-anchor="start" style="font-color:black;font-weight:normal" transform="rotate(428.8592461101488,609,356.5)">9%&#160;&#160;&#160;Staphylococcus</text><path class="line" d=" M 626.8241390491289,589.2026487033959 A 233.38428106112616,233.38428106112616 0 0 0 626.8395772587091,589.2014656800625"/><line x1="630.7814346094722" y1="640.8670323830688" x2="626.8241390491289" y2="589.2026487033959"/><path class="line" d=" M 625.5397867954841,578.6031143418413 A 222.71811320048732,222.71811320048732 0 0 0 625.8232061044266,578.58182655038"/><line x1="630.1798992290571" y1="640.9124678502104" x2="625.5397867954841" y2="578.6031143418413"/><path class="line" d=" M 614.9059527556464,550.7595973983613 A 194.34935415206644,194.34935415206644 0 0 0 614.968117192656,550.7576974961355"/><line x1="617.6667523710546" y1="641.5682855095229" x2="614.9059527556464" y2="550.7595973983613"/><path class="line" d=" M 613.1404014332323,531.368312420297 A 174.91732222038766,174.91732222038766 0 0 0 613.2011375636799,531.3668638019278"/><line x1="615.7508607710679" y1="641.6200902757462" x2="613.1404014332323" y2="531.368312420297"/><path class="line" d=" M 612.1193469788376,506.499250107162 A 150.03168118196012,150.03168118196012 0 0 0 612.4243225957662,506.49259772750605"/><line x1="614.9296659969139" y1="641.6383507372606" x2="612.1193469788376" y2="506.499250107162"/><path class="line" d=" M 611.0832558840837,473.5277589880893 A 117.04629993661861,117.04629993661861 0 0 0 611.0869095307278,473.52769389107624"/><line x1="614.0761500232164" y1="641.6548223350637" x2="611.0832558840837" y2="473.5277589880893"/><path class="line" d=" M 609.5556623695774,427.79783474504 A 71.3,71.3 0 0 0 610.2682028838251,427.78872043630366"/><line x1="611.2226494783097" y1="641.69133898016" x2="609.5556623695774" y2="427.79783474504"/></svg>