<?xml version="1.0" standalone="no"?><!DOCTYPE svg PUBLIC "-//W3C//DTD SVG 1.1//EN" 	"http://www.w3.org/Graphics/SVG/1.1/DTD/svg11.dtd"><svg width="1368" height="770" version="1.1"	xmlns="http://www.w3.org/2000/svg"><title>Krona (snapshot) - root</title><defs>	<style type="text/css">	text {font-size: 11px; font-family: sans-serif; dominant-baseline:central}	path {stroke-width:0.27499999999999997;}	path.wedge {stroke:none}	path.line {fill:none;stroke:black;}	line {stroke:black;stroke-width:0.27499999999999997;}	line.tick {stroke-width:0.5499999999999999;}	line.pattern {stroke-width:0.18333333333333332;}	circle {fill:none;stroke:black;stroke-width:0.27499999999999997;}	rect {stroke:black;stroke-width:0.27499999999999997;}	.highlight {stroke:black;stroke-width:1.375;}	.searchHighlight {fill:rgb(255, 255, 100);stroke:none;}	</style><pattern id="hiddenPattern" patternUnits="userSpaceOnUse" x="0" y="0" width="6.6" height="6.6"><line class="pattern" x1="0" y1="0" x2="3.3" y2="3.3"/><line class="pattern" x1="3.3" y1="6.6" x2="6.6" y2="3.3"/></pattern></defs><path class="wedge" fill="rgb(220,220,220)" d=" M 609.6058007271074,461.9976168818168 L 611.4232029084296,692.9904675272671 A 308,308 0 0,1 609.0000000000001,693 L 609,462 A 77,77 0 0 0 609.6058007271074,461.9976168818168 Z "/><path class="wedge" fill="rgb(207,111,111)" d=" M 609,462 L 609,693 A 308,308 0 1,1 614.5212528856114,692.9505086317818 L 610.3803132214028,461.98762715794544 A 77,77 0 1 0 609,462 Z "/><path class="wedge" fill="rgb(207,111,111)" d=" M 611.2678704003449,511.3830913552914 L 614.525989617174,692.9504236703547 A 308,308 0 0,1 614.5212528856114,692.9505086317818 L 611.2659264420589,511.38312622352663 A 126.40343751920945,126.40343751920945 0 0 0 611.2678704003449,511.3830913552914 Z "/><path class="wedge" fill="rgb(210,121,121)" d=" M 609,511.40343751920943 L 609,693 A 308,308 0 1,1 614.5473048930095,692.9500404423159 L 611.2766182059855,511.3829340782088 A 126.40343751920945,126.40343751920945 0 1 0 609,511.40343751920943 Z "/><path class="wedge" fill="rgb(210,121,121)" d=" M 612.2464902007252,546.9932707323668 L 615.1713565958372,692.9381664519145 A 308,308 0 0,1 614.5473048930095,692.9500404423159 L 611.918202942241,546.999517137494 A 162.02579875190645,162.02579875190645 0 0 0 612.2464902007252,546.9932707323668 Z "/><path class="wedge" fill="rgb(213,130,130)" d=" M 609,547.0257987519064 L 609,693 A 308,308 0 1,1 615.8972138971837,692.9227637581484 L 612.6283330871881,546.9851680253526 A 162.02579875190645,162.02579875190645 0 1 0 609,547.0257987519064 Z "/><path class="wedge" fill="rgb(213,130,130)" d=" M 613.3441763399716,573.8509365884152 L 616.0831126181937,692.9185436371736 A 308,308 0 0,1 615.8972138971837,692.9227637581484 L 613.2301619413627,573.8535248501976 A 188.900894964514,188.900894964514 0 0 0 613.3441763399716,573.8509365884152 Z "/><path class="wedge" fill="rgb(216,140,140)" d=" M 609,573.900894964514 L 609,693 A 308,308 0 1,1 616.358995750116,692.9120737833282 L 613.5133794910291,573.8469685326304 A 188.900894964514,188.900894964514 0 1 0 609,573.900894964514 Z "/><path class="wedge" fill="rgb(216,140,140)" d=" M 615.1507627627445,594.7962552723786 L 618.0260013859483,692.8677172081881 A 308,308 0 0,1 616.358995750116,692.9120737833282 L 614.0147828584953,594.8264820316033 A 209.88639929465802,209.88639929465802 0 0 0 615.1507627627445,594.7962552723786 Z "/><path class="wedge" fill="rgb(219,149,149)" d=" M 609,594.8863992946581 L 609,693 A 308,308 0 1,1 618.2521170870027,692.8610048859848 L 615.3048491598818,594.7916811647873 A 209.88639929465802,209.88639929465802 0 1 0 609,594.8863992946581 Z "/><path class="wedge" fill="rgb(219,149,149)" d=" M 625.383897706464,611.128538235731 L 631.2574609967093,692.1947353552466 A 308,308 0 0,1 618.2521170870027,692.8610048859848 L 615.8105584884139,611.6189846455063 A 226.7213000771747,226.7213000771747 0 0 0 625.383897706464,611.128538235731 Z "/><path class="wedge" fill="rgb(223,159,159)" d=" M 609,611.7213000771746 L 609,693 A 308,308 0 1,1 811.5750900666005,617.0071828295596 L 758.1171681271118,555.7823705141575 A 226.7213000771747,226.7213000771747 0 1 0 609,611.7213000771746 Z "/><path class="wedge" fill="rgb(223,159,159)" d=" M 768.3819814743132,565.1353102692813 L 813.0953942329584,615.670912888672 A 308,308 0 0,1 811.5750900666005,617.0071828295596 L 767.194746988261,566.178828922721 A 240.52306755171844,240.52306755171844 0 0 0 768.3819814743132,565.1353102692813 Z "/><path class="wedge" fill="rgb(226,168,168)" d=" M 609,625.5230675517184 L 609,693 A 308,308 0 1,1 815.0720702739995,613.9067536203066 L 769.9256054514145,563.7576446885116 A 240.52306755171844,240.52306755171844 0 1 0 609,625.5230675517184 Z "/><path class="wedge" fill="rgb(226,168,168)" d=" M 778.2797419088096,571.7337775782543 L 815.863042244682,613.1922035330631 A 308,308 0 0,1 815.0720702739995,613.9067536203066 L 777.6324753424799,572.3185067451318 A 252.04193045871972,252.04193045871972 0 0 0 778.2797419088096,571.7337775782543 Z "/><path class="wedge" fill="rgb(229,178,178)" d=" M 609,637.0419304587197 L 609,693 A 308,308 0 1,1 815.9051579053131,613.1540173483199 L 778.3142059101342,571.7025291376065 A 252.04193045871972,252.04193045871972 0 1 0 609,637.0419304587197 Z "/><path class="wedge" fill="rgb(229,199,178)" d=" M 778.3142059101342,571.7025291376065 L 815.9051579053131,613.1540173483199 A 308,308 0 0,1 815.863042244682,613.1922035330631 L 778.2797419088096,571.7337775782543 A 252.04193045871972,252.04193045871972 0 0 0 778.3142059101342,571.7025291376065 Z "/><path class="wedge" fill="url(#hiddenPattern)" d=" M 778.3142059101342,571.7025291376065 L 815.9051579053131,613.1540173483199 A 308,308 0 0,1 815.863042244682,613.1922035330631 L 778.2797419088096,571.7337775782543 A 252.04193045871972,252.04193045871972 0 0 0 778.3142059101342,571.7025291376065 Z "/><path class="wedge" fill="rgb(223,186,159)" d=" M 769.9256054514145,563.7576446885116 L 815.0720702739995,613.9067536203066 A 308,308 0 0,1 813.0953942329584,615.670912888672 L 768.3819814743132,565.1353102692813 A 240.52306755171844,240.52306755171844 0 0 0 769.9256054514145,563.7576446885116 Z "/><path class="wedge" fill="url(#hiddenPattern)" d=" M 769.9256054514145,563.7576446885116 L 815.0720702739995,613.9067536203066 A 308,308 0 0,1 813.0953942329584,615.670912888672 L 768.3819814743132,565.1353102692813 A 240.52306755171844,240.52306755171844 0 0 0 769.9256054514145,563.7576446885116 Z "/><path class="wedge" fill="rgb(223,186,159)" d=" M 758.1171681271118,555.7823705141575 L 811.5750900666005,617.0071828295596 A 308,308 0 0,1 631.2574609967093,692.1947353552466 L 625.383897706464,611.128538235731 A 226.7213000771747,226.7213000771747 0 0 0 758.1171681271118,555.7823705141575 Z "/><path class="wedge" fill="rgb(223,186,159)" d=" M 626.5085753124938,624.8849637118076 L 631.4204740573938,692.1828809407219 A 308,308 0 0,1 631.2574609967093,692.1947353552466 L 626.3812753079261,624.8942210499423 A 240.52306755171844,240.52306755171844 0 0 0 626.5085753124938,624.8849637118076 Z "/><path class="wedge" fill="rgb(226,193,168)" d=" M 767.194746988261,566.178828922721 L 811.5750900666005,617.0071828295596 A 308,308 0 0,1 631.9992372239727,692.1400903286893 L 626.9605424949987,624.8515477076891 A 240.52306755171844,240.52306755171844 0 0 0 767.194746988261,566.178828922721 Z "/><path class="wedge" fill="rgb(226,193,168)" d=" M 628.0284772780424,636.3226049559353 L 632.2531586747109,692.120970647803 A 308,308 0 0,1 631.9992372239727,692.1400903286893 L 627.8206887954809,636.3382509341182 A 252.04193045871972,252.04193045871972 0 0 0 628.0284772780424,636.3226049559353 Z "/><path class="wedge" fill="rgb(229,200,178)" d=" M 774.7708336468669,574.8556436384783 L 811.5750900666005,617.0071828295596 A 308,308 0 0,1 632.2732355089875,692.1194499033612 L 628.0449065120312,636.3213605034521 A 252.04193045871972,252.04193045871972 0 0 0 774.7708336468669,574.8556436384783 Z "/><path class="wedge" fill="rgb(229,202,178)" d=" M 628.0449065120312,636.3213605034521 L 632.2732355089875,692.1194499033612 A 308,308 0 0,1 632.2531586747109,692.120970647803 L 628.0284772780424,636.3226049559353 A 252.04193045871972,252.04193045871972 0 0 0 628.0449065120312,636.3213605034521 Z "/><path class="wedge" fill="url(#hiddenPattern)" d=" M 628.0449065120312,636.3213605034521 L 632.2732355089875,692.1194499033612 A 308,308 0 0,1 632.2531586747109,692.120970647803 L 628.0284772780424,636.3226049559353 A 252.04193045871972,252.04193045871972 0 0 0 628.0449065120312,636.3213605034521 Z "/><path class="wedge" fill="rgb(223,189,159)" d=" M 626.9605424949987,624.8515477076891 L 631.9992372239727,692.1400903286893 A 308,308 0 0,1 631.4204740573938,692.1828809407219 L 626.5085753124938,624.8849637118076 A 240.52306755171844,240.52306755171844 0 0 0 626.9605424949987,624.8515477076891 Z "/><path class="wedge" fill="url(#hiddenPattern)" d=" M 626.9605424949987,624.8515477076891 L 631.9992372239727,692.1400903286893 A 308,308 0 0,1 631.4204740573938,692.1828809407219 L 626.5085753124938,624.8849637118076 A 240.52306755171844,240.52306755171844 0 0 0 626.9605424949987,624.8515477076891 Z "/><path class="wedge" fill="rgb(216,177,140)" d=" M 615.3048491598818,594.7916811647873 L 618.2521170870027,692.8610048859848 A 308,308 0 0,1 618.0260013859483,692.8677172081881 L 615.1507627627445,594.7962552723786 A 209.88639929465802,209.88639929465802 0 0 0 615.3048491598818,594.7916811647873 Z "/><path class="wedge" fill="url(#hiddenPattern)" d=" M 615.3048491598818,594.7916811647873 L 618.2521170870027,692.8610048859848 A 308,308 0 0,1 618.0260013859483,692.8677172081881 L 615.1507627627445,594.7962552723786 A 209.88639929465802,209.88639929465802 0 0 0 615.3048491598818,594.7916811647873 Z "/><path class="wedge" fill="rgb(213,171,130)" d=" M 613.5133794910291,573.8469685326304 L 616.358995750116,692.9120737833282 A 308,308 0 0,1 616.0831126181937,692.9185436371736 L 613.3441763399716,573.8509365884152 A 188.900894964514,188.900894964514 0 0 0 613.5133794910291,573.8469685326304 Z "/><path class="wedge" fill="url(#hiddenPattern)" d=" M 613.5133794910291,573.8469685326304 L 616.358995750116,692.9120737833282 A 308,308 0 0,1 616.0831126181937,692.9185436371736 L 613.3441763399716,573.8509365884152 A 188.900894964514,188.900894964514 0 0 0 613.5133794910291,573.8469685326304 Z "/><path class="wedge" fill="rgb(210,165,121)" d=" M 612.6283330871881,546.9851680253526 L 615.8972138971837,692.9227637581484 A 308,308 0 0,1 615.1713565958372,692.9381664519145 L 612.2464902007252,546.9932707323668 A 162.02579875190645,162.02579875190645 0 0 0 612.6283330871881,546.9851680253526 Z "/><path class="wedge" fill="url(#hiddenPattern)" d=" M 612.6283330871881,546.9851680253526 L 615.8972138971837,692.9227637581484 A 308,308 0 0,1 615.1713565958372,692.9381664519145 L 612.2464902007252,546.9932707323668 A 162.02579875190645,162.02579875190645 0 0 0 612.6283330871881,546.9851680253526 Z "/><path class="wedge" fill="rgb(207,159,111)" d=" M 611.2766182059855,511.3829340782088 L 614.5473048930095,692.9500404423159 A 308,308 0 0,1 614.525989617174,692.9504236703547 L 611.2678704003449,511.3830913552914 A 126.40343751920945,126.40343751920945 0 0 0 611.2766182059855,511.3829340782088 Z "/><path class="wedge" fill="url(#hiddenPattern)" d=" M 611.2766182059855,511.3829340782088 L 614.5473048930095,692.9500404423159 A 308,308 0 0,1 614.525989617174,692.9504236703547 L 611.2678704003449,511.3830913552914 A 126.40343751920945,126.40343751920945 0 0 0 611.2766182059855,511.3829340782088 Z "/><path class="wedge" fill="rgb(101,204,204)" d=" M 610.3803132214028,461.98762715794544 L 614.5212528856114,692.9505086317818 A 308,308 0 0,1 611.4232029084296,692.9904675272671 L 609.6058007271074,461.9976168818168 A 77,77 0 0 0 610.3803132214028,461.98762715794544 Z "/><path class="wedge" fill="url(#hiddenPattern)" d=" M 610.3803132214028,461.98762715794544 L 614.5212528856114,692.9505086317818 A 308,308 0 0,1 611.4232029084296,692.9904675272671 L 609.6058007271074,461.9976168818168 A 77,77 0 0 0 610.3803132214028,461.98762715794544 Z "/><rect fill="rgb(101,204,204)" x="1334.45" y="707.1166666666668" width="22" height="22"/><rect fill="url(#hiddenPattern)" style="stroke:none" x="1334.45" y="707.1166666666668" width="22" height="22"/><path class="line" d="M 612.9722781428544,692.974383685325 L 613.6343244999969,744.3034476328792 A 359.3333333333333,359.3333333333333 0 0,0 743.7357815627802,718.1166666666668 L 981.1666666666666,718.1166666666668 L 1250.8954752604168,718.1166666666668"/><text x="1327.1166666666668" y="718.1166666666668" style="font-color:black;font-weight:normal" text-anchor="end">Viruses&#160;&#160;&#160;0.2%</text><circle cx="609" cy="385" r="77"/><circle cx="609" cy="385" r="308"/><text x="609" y="385" text-anchor="middle" style="font-color:black;font-weight:bold" transform="rotate(360,609,385)">root</text><rect fill="rgb(220,220,220)" x="1334.45" y="736.45" width="22" height="22"/><path class="line" d="M 610.2116108289647,692.9976168725972 L 610.4640297516656,757.1637870543882 A 372.1666666666667,372.1666666666667 0 0,0 693.4868349376267,747.45 L 970.1666666666666,747.45 L 1234.1806315104168,747.45"/><text x="1327.1166666666668" y="747.45" style="font-color:black;font-weight:normal" text-anchor="end">[other root]&#160;&#160;&#160;0.1%</text><path class="line" d=" M 610.3803132214028,461.98762715794544 A 77,77 0 1 0 609,462"/><line x1="614.5212528856114" y1="692.9505086317818" x2="610.3803132214028" y2="461.98762715794544"/><text x="609" y="293.1789687442372" text-anchor="middle" style="font-color:black;font-weight:normal" transform="rotate(359.48642624491873,609,385)">cellular organisms</text><path class="line" d=" M 611.2766182059855,511.3829340782088 A 126.40343751920945,126.40343751920945 0 1 0 609,511.40343751920943"/><line x1="614.5473048930095" y1="692.9500404423159" x2="611.2766182059855" y2="511.3829340782088"/><text x="609" y="247.90985411098146" text-anchor="middle" style="font-color:black;font-weight:normal" transform="rotate(359.484002687945,609,385)">Bacteria</text><path class="line" d=" M 612.6283330871881,546.9851680253526 A 162.02579875190645,162.02579875190645 0 1 0 609,547.0257987519064"/><line x1="615.8972138971837" y1="692.9227637581484" x2="612.6283330871881" y2="546.9851680253526"/><text x="609" y="214.9116723843113" text-anchor="middle" style="font-color:black;font-weight:normal" transform="rotate(359.35841837203066,609,385)">Terrabacteria group</text><path class="line" d=" M 613.5133794910291,573.8469685326304 A 188.900894964514,188.900894964514 0 1 0 609,573.900894964514"/><line x1="616.358995750116" y1="692.9120737833282" x2="613.5133794910291" y2="573.8469685326304"/><text x="609" y="185.60635287041396" text-anchor="middle" style="font-color:black;font-weight:normal" transform="rotate(359.3154553165863,609,385)">Firmicutes</text><path class="line" d=" M 615.3048491598818,594.7916811647873 A 209.88639929465802,209.88639929465802 0 1 0 609,594.8863992946581"/><line x1="618.2521170870027" y1="692.8610048859848" x2="615.3048491598818" y2="594.7916811647873"/><text x="609" y="166.69615031408367" text-anchor="middle" style="font-color:black;font-weight:normal" transform="rotate(359.13930678926437,609,385)">Bacilli</text><path class="line" d=" M 758.1171681271118,555.7823705141575 A 226.7213000771747,226.7213000771747 0 1 0 609,611.7213000771746"/><line x1="811.5750900666005" y1="617.0071828295596" x2="758.1171681271118" y2="555.7823705141575"/><text x="609" y="151.3778161855534" text-anchor="middle" style="font-color:black;font-weight:normal" transform="rotate(339.43722069423893,609,385)">Lactobacillales</text><path class="line" d=" M 769.9256054514145,563.7576446885116 A 240.52306755171844,240.52306755171844 0 1 0 609,625.5230675517184"/><line x1="815.0720702739995" y1="613.9067536203066" x2="769.9256054514145" y2="563.7576446885116"/><path class="line" d=" M 778.3142059101342,571.7025291376065 A 252.04193045871972,252.04193045871972 0 1 0 609,637.0419304587197"/><line x1="815.9051579053131" y1="613.1540173483199" x2="778.3142059101342" y2="571.7025291376065"/><text x="328.97903477064017" y="385" text-anchor="end" style="font-color:black;font-weight:normal" transform="rotate(68.89808942925234,609,385)">Enterococcus&#160;&#160;&#160;88%</text><path class="line" d=" M 778.2797419088096,571.7337775782543 A 252.04193045871972,252.04193045871972 0 0 0 778.3142059101342,571.7025291376065"/><line x1="815.863042244682" y1="613.1922035330631" x2="778.2797419088096" y2="571.7337775782543"/><path class="line" d=" M 768.3819814743132,565.1353102692813 A 240.52306755171844,240.52306755171844 0 0 0 769.9256054514145,563.7576446885116"/><line x1="813.0953942329584" y1="615.670912888672" x2="768.3819814743132" y2="565.1353102692813"/><path class="line" d=" M 625.383897706464,611.128538235731 A 226.7213000771747,226.7213000771747 0 0 0 758.1171681271118,555.7823705141575"/><line x1="631.2574609967093" y1="692.1947353552466" x2="625.383897706464" y2="611.128538235731"/><text x="609" y="618.6221838144465" text-anchor="middle" style="font-color:black;font-weight:normal" transform="rotate(337.36518964333317,609,385)">Bacillales</text><path class="line" d=" M 626.9605424949987,624.8515477076891 A 240.52306755171844,240.52306755171844 0 0 0 767.194746988261,566.178828922721"/><line x1="631.9992372239727" y1="692.1400903286893" x2="626.9605424949987" y2="624.8515477076891"/><path class="line" d=" M 628.0449065120312,636.3213605034521 A 252.04193045871972,252.04193045871972 0 0 0 774.7708336468669,574.8556436384783"/><line x1="632.2732355089875" y1="692.1194499033612" x2="628.0449065120312" y2="636.3213605034521"/><text x="889.0209652293598" y="385" text-anchor="start" style="font-color:black;font-weight:normal" transform="rotate(427.2704505979943,609,385)">10%&#160;&#160;&#160;Staphylococcus</text><path class="line" d=" M 628.0284772780424,636.3226049559353 A 252.04193045871972,252.04193045871972 0 0 0 628.0449065120312,636.3213605034521"/><line x1="632.2531586747109" y1="692.120970647803" x2="628.0284772780424" y2="636.3226049559353"/><path class="line" d=" M 626.5085753124938,624.8849637118076 A 240.52306755171844,240.52306755171844 0 0 0 626.9605424949987,624.8515477076891"/><line x1="631.4204740573938" y1="692.1828809407219" x2="626.5085753124938" y2="624.8849637118076"/><path class="line" d=" M 615.1507627627445,594.7962552723786 A 209.88639929465802,209.88639929465802 0 0 0 615.3048491598818,594.7916811647873"/><line x1="618.0260013859483" y1="692.8677172081881" x2="615.1507627627445" y2="594.7962552723786"/><path class="line" d=" M 613.3441763399716,573.8509365884152 A 188.900894964514,188.900894964514 0 0 0 613.5133794910291,573.8469685326304"/><line x1="616.0831126181937" y1="692.9185436371736" x2="613.3441763399716" y2="573.8509365884152"/><path class="line" d=" M 612.2464902007252,546.9932707323668 A 162.02579875190645,162.02579875190645 0 0 0 612.6283330871881,546.9851680253526"/><line x1="615.1713565958372" y1="692.9381664519145" x2="612.2464902007252" y2="546.9932707323668"/><path class="line" d=" M 611.2678704003449,511.3830913552914 A 126.40343751920945,126.40343751920945 0 0 0 611.2766182059855,511.3829340782088"/><line x1="614.525989617174" y1="692.9504236703547" x2="611.2678704003449" y2="511.3830913552914"/><path class="line" d=" M 609.6058007271074,461.9976168818168 A 77,77 0 0 0 610.3803132214028,461.98762715794544"/><line x1="611.4232029084296" y1="692.9904675272671" x2="609.6058007271074" y2="461.9976168818168"/></svg>