<?xml version="1.0" standalone="no"?><!DOCTYPE svg PUBLIC "-//W3C//DTD SVG 1.1//EN" 	"http://www.w3.org/Graphics/SVG/1.1/DTD/svg11.dtd"><svg width="1368" height="713" version="1.1"	xmlns="http://www.w3.org/2000/svg"><title>Krona (snapshot) - root</title><defs>	<style type="text/css">	text {font-size: 11px; font-family: sans-serif; dominant-baseline:central}	path {stroke-width:0.27499999999999997;}	path.wedge {stroke:none}	path.line {fill:none;stroke:black;}	line {stroke:black;stroke-width:0.27499999999999997;}	line.tick {stroke-width:0.5499999999999999;}	line.pattern {stroke-width:0.18333333333333332;}	circle {fill:none;stroke:black;stroke-width:0.27499999999999997;}	rect {stroke:black;stroke-width:0.27499999999999997;}	.highlight {stroke:black;stroke-width:1.375;}	.searchHighlight {fill:rgb(255, 255, 100);stroke:none;}	</style><pattern id="hiddenPattern" patternUnits="userSpaceOnUse" x="0" y="0" width="6.6" height="6.6"><line class="pattern" x1="0" y1="0" x2="3.3" y2="3.3"/><line class="pattern" x1="3.3" y1="6.6" x2="6.6" y2="3.3"/></pattern></defs><path class="wedge" fill="rgb(220,220,220)" d=" M 610.1718172440624,427.79036992712633 L 613.6872689762492,641.6614797085053 A 285.2,285.2 0 0,1 609.0000000000001,641.7 L 609,427.8 A 71.3,71.3 0 0 0 610.1718172440624,427.79036992712633 Z "/><path class="wedge" fill="rgb(207,111,111)" d=" M 609,427.8 L 609,641.7 A 285.2,285.2 0 1,1 615.2223597078726,641.6321136590298 L 610.5555899269682,427.78302841475744 A 71.3,71.3 0 1 0 609,427.8 Z "/><path class="wedge" fill="rgb(210,121,121)" d=" M 609,473.5462999366186 L 609,641.7 A 285.2,285.2 0 1,1 615.2235217123463,641.6320882985567 L 611.5541381101169,473.5184289219751 A 117.04629993661861,117.04629993661861 0 1 0 609,473.5462999366186 Z "/><path class="wedge" fill="rgb(210,121,121)" d=" M 612.6791992414675,506.4865622355113 L 615.9939069895105,641.6142319580383 A 285.2,285.2 0 0,1 615.2235217123463,641.6320882985567 L 612.2739320665348,506.49595570250904 A 150.03168118196012,150.03168118196012 0 0 0 612.6791992414675,506.4865622355113 Z "/><path class="wedge" fill="rgb(213,130,130)" d=" M 609,506.53168118196015 L 609,641.7 A 285.2,285.2 0 1,1 616.5318685748963,641.6005278068956 L 612.9621981231882,506.47935306007264 A 150.03168118196012,150.03168118196012 0 1 0 609,506.53168118196015 Z "/><path class="wedge" fill="rgb(213,130,130)" d=" M 613.7633476039368,531.3524524630839 L 616.7665649084836,641.5942308597673 A 285.2,285.2 0 0,1 616.5318685748963,641.6005278068956 L 613.6194049173799,531.3563144726555 A 174.91732222038766,174.91732222038766 0 0 0 613.7633476039368,531.3524524630839 Z "/><path class="wedge" fill="rgb(216,140,140)" d=" M 609,531.4173222203876 L 609,641.7 A 285.2,285.2 0 1,1 672.6068302201013,634.5165663217773 L 648.0109972546527,527.0116175102107 A 174.91732222038766,174.91732222038766 0 1 0 609,531.4173222203876 Z "/><path class="wedge" fill="rgb(216,140,140)" d=" M 653.4967486688566,545.6869731699991 L 674.2972209541196,634.1244098339857 A 285.2,285.2 0 0,1 672.6068302201013,634.5165663217773 L 652.3448330046873,545.9542079530595 A 194.34935415206644,194.34935415206644 0 0 0 653.4967486688566,545.6869731699991 Z "/><path class="wedge" fill="rgb(219,149,149)" d=" M 609,550.8493541520664 L 609,641.7 A 285.2,285.2 0 1,1 674.792673471942,634.0074127251639 L 653.8343744642697,545.6072455664324 A 194.34935415206644,194.34935415206644 0 1 0 609,550.8493541520664 Z "/><path class="wedge" fill="rgb(219,149,149)" d=" M 664.2707066202562,559.0317938796256 L 684.0850389144921,631.6386503768767 A 285.2,285.2 0 0,1 674.792673471942,634.0074127251639 L 657.4305209906224,560.7754590717605 A 209.9380350065267,209.9380350065267 0 0 0 664.2707066202562,559.0317938796256 Z "/><path class="wedge" fill="rgb(223,159,159)" d=" M 609,566.4380350065267 L 609,641.7 A 285.2,285.2 0 1,1 885.8048701316196,287.81154484618844 L 812.7583117660205,305.9378706079063 A 209.9380350065267,209.9380350065267 0 1 0 609,566.4380350065267 Z "/><path class="wedge" fill="rgb(223,159,159)" d=" M 824.8412293985491,301.5825925656718 L 885.3938583165561,286.1759281263697 A 285.2,285.2 0 0,1 885.8048701316196,287.81154484618844 L 825.1621963549097,302.85987682148243 A 222.71811320048732,222.71811320048732 0 0 0 824.8412293985491,301.5825925656718 Z "/><path class="wedge" fill="rgb(226,168,168)" d=" M 609,579.2181132004873 L 609,641.7 A 285.2,285.2 0 1,1 884.4596092849386,282.6011254984962 L 824.1116565318546,298.7909610918144 A 222.71811320048732,222.71811320048732 0 1 0 609,579.2181132004873 Z "/><path class="wedge" fill="rgb(226,168,168)" d=" M 834.2363789327287,295.3706596494697 L 884.2431096882214,281.79879138087693 A 285.2,285.2 0 0,1 884.4596092849386,282.6011254984962 L 834.4135444401967,296.0272240646569 A 233.38428106112616,233.38428106112616 0 0 0 834.2363789327287,295.3706596494697 Z "/><path class="wedge" fill="rgb(229,178,178)" d=" M 609,589.8842810611261 L 609,641.7 A 285.2,285.2 0 1,1 884.2214835436516,281.71915354830827 L 834.2186818703075,295.3054905810991 A 233.38428106112616,233.38428106112616 0 1 0 609,589.8842810611261 Z "/><path class="wedge" fill="rgb(229,195,178)" d=" M 834.2186818703075,295.3054905810991 L 884.2214835436516,281.71915354830827 A 285.2,285.2 0 0,1 884.2431096882214,281.79879138087693 L 834.2363789327287,295.3706596494697 A 233.38428106112616,233.38428106112616 0 0 0 834.2186818703075,295.3054905810991 Z "/><path class="wedge" fill="url(#hiddenPattern)" d=" M 834.2186818703075,295.3054905810991 L 884.2214835436516,281.71915354830827 A 285.2,285.2 0 0,1 884.2431096882214,281.79879138087693 L 834.2363789327287,295.3706596494697 A 233.38428106112616,233.38428106112616 0 0 0 834.2186818703075,295.3054905810991 Z "/><path class="wedge" fill="rgb(223,180,159)" d=" M 824.1116565318546,298.7909610918144 L 884.4596092849386,282.6011254984962 A 285.2,285.2 0 0,1 885.3938583165561,286.1759281263697 L 824.8412293985491,301.5825925656718 A 222.71811320048732,222.71811320048732 0 0 0 824.1116565318546,298.7909610918144 Z "/><path class="wedge" fill="url(#hiddenPattern)" d=" M 824.1116565318546,298.7909610918144 L 884.4596092849386,282.6011254984962 A 285.2,285.2 0 0,1 885.3938583165561,286.1759281263697 L 824.8412293985491,301.5825925656718 A 222.71811320048732,222.71811320048732 0 0 0 824.1116565318546,298.7909610918144 Z "/><path class="wedge" fill="rgb(223,181,159)" d=" M 812.7583117660205,305.9378706079063 L 885.8048701316196,287.81154484618844 A 285.2,285.2 0 0,1 684.0850389144921,631.6386503768767 L 664.2707066202562,559.0317938796256 A 209.9380350065267,209.9380350065267 0 0 0 812.7583117660205,305.9378706079063 Z "/><path class="wedge" fill="rgb(223,181,159)" d=" M 667.8568398025359,571.3004431002034 L 684.368682279437,631.5610872723753 A 285.2,285.2 0 0,1 684.0850389144921,631.6386503768767 L 667.6353372953046,571.3610136061238 A 222.71811320048732,222.71811320048732 0 0 0 667.8568398025359,571.3004431002034 Z "/><path class="wedge" fill="rgb(226,188,168)" d=" M 825.1621963549097,302.85987682148243 L 885.8048701316196,287.81154484618844 A 285.2,285.2 0 0,1 684.8561820085222,631.4270442337202 L 668.2375376280884,571.1957663377317 A 222.71811320048732,222.71811320048732 0 0 0 825.1621963549097,302.85987682148243 Z "/><path class="wedge" fill="rgb(226,188,168)" d=" M 671.5895857428252,581.3349759333727 L 685.4856560720062,631.2525876406531 A 285.2,285.2 0 0,1 684.8561820085222,631.4270442337202 L 671.0744758138179,581.4777368960281 A 233.38428106112616,233.38428106112616 0 0 0 671.5895857428252,581.3349759333727 Z "/><path class="wedge" fill="rgb(229,195,178)" d=" M 835.5143955465865,300.2910037753446 L 885.8048701316196,287.81154484618844 A 285.2,285.2 0 0,1 685.5035711836101,631.2475998005339 L 671.604246000335,581.3308942942413 A 233.38428106112616,233.38428106112616 0 0 0 835.5143955465865,300.2910037753446 Z "/><path class="wedge" fill="rgb(229,201,178)" d=" M 671.604246000335,581.3308942942413 L 685.5035711836101,631.2475998005339 A 285.2,285.2 0 0,1 685.4856560720062,631.2525876406531 L 671.5895857428252,581.3349759333727 A 233.38428106112616,233.38428106112616 0 0 0 671.604246000335,581.3308942942413 Z "/><path class="wedge" fill="url(#hiddenPattern)" d=" M 671.604246000335,581.3308942942413 L 685.5035711836101,631.2475998005339 A 285.2,285.2 0 0,1 685.4856560720062,631.2525876406531 L 671.5895857428252,581.3349759333727 A 233.38428106112616,233.38428106112616 0 0 0 671.604246000335,581.3308942942413 Z "/><path class="wedge" fill="rgb(223,188,159)" d=" M 668.2375376280884,571.1957663377317 L 684.8561820085222,631.4270442337202 A 285.2,285.2 0 0,1 684.368682279437,631.5610872723753 L 667.8568398025359,571.3004431002034 A 222.71811320048732,222.71811320048732 0 0 0 668.2375376280884,571.1957663377317 Z "/><path class="wedge" fill="url(#hiddenPattern)" d=" M 668.2375376280884,571.1957663377317 L 684.8561820085222,631.4270442337202 A 285.2,285.2 0 0,1 684.368682279437,631.5610872723753 L 667.8568398025359,571.3004431002034 A 222.71811320048732,222.71811320048732 0 0 0 668.2375376280884,571.1957663377317 Z "/><path class="wedge" fill="rgb(216,176,140)" d=" M 653.8343744642697,545.6072455664324 L 674.792673471942,634.0074127251639 A 285.2,285.2 0 0,1 674.2972209541196,634.1244098339857 L 653.4967486688566,545.6869731699991 A 194.34935415206644,194.34935415206644 0 0 0 653.8343744642697,545.6072455664324 Z "/><path class="wedge" fill="url(#hiddenPattern)" d=" M 653.8343744642697,545.6072455664324 L 674.792673471942,634.0074127251639 A 285.2,285.2 0 0,1 674.2972209541196,634.1244098339857 L 653.4967486688566,545.6869731699991 A 194.34935415206644,194.34935415206644 0 0 0 653.8343744642697,545.6072455664324 Z "/><path class="wedge" fill="rgb(216,176,140)" d=" M 648.0109972546527,527.0116175102107 L 672.6068302201013,634.5165663217773 A 285.2,285.2 0 0,1 616.8490559422205,641.5919716877623 L 613.8139405588051,531.3510668799228 A 174.91732222038766,174.91732222038766 0 0 0 648.0109972546527,527.0116175102107 Z "/><path class="wedge" fill="rgb(216,176,140)" d=" M 614.3503175283788,550.7756947270318 L 616.8513796238279,641.5919077034677 A 285.2,285.2 0 0,1 616.8490559422205,641.5919716877623 L 614.3487340570617,550.7757383290877 A 194.34935415206644,194.34935415206644 0 0 0 614.3503175283788,550.7756947270318 Z "/><path class="wedge" fill="rgb(219,183,149)" d=" M 652.3448330046873,545.9542079530595 L 672.6068302201013,634.5165663217773 A 285.2,285.2 0 0,1 616.8548651452611,641.5918116915141 L 614.3526927346883,550.7756292997486 A 194.34935415206644,194.34935415206644 0 0 0 652.3448330046873,545.9542079530595 Z "/><path class="wedge" fill="rgb(219,183,149)" d=" M 614.8401860938969,566.3567863300834 L 616.9338699818145,641.5896239906175 A 285.2,285.2 0 0,1 616.8548651452611,641.5918116915141 L 614.7820299924172,566.3583967144713 A 209.9380350065267,209.9380350065267 0 0 0 614.8401860938969,566.3567863300834 Z "/><path class="wedge" fill="rgb(223,189,159)" d=" M 655.8215040301607,561.1502511670955 L 672.6068302201013,634.5165663217773 A 285.2,285.2 0 0,1 616.9954468586899,641.5879036885462 L 614.8855133327927,566.355520001765 A 209.9380350065267,209.9380350065267 0 0 0 655.8215040301607,561.1502511670955 Z "/><path class="wedge" fill="rgb(223,189,159)" d=" M 615.2447040598729,579.1305496080663 L 616.9966086829791,641.5878711021767 A 285.2,285.2 0 0,1 616.9954468586899,641.5879036885462 L 615.2437967691521,579.1305750553831 A 222.71811320048732,222.71811320048732 0 0 0 615.2447040598729,579.1305496080663 Z "/><path class="wedge" fill="rgb(226,196,168)" d=" M 658.671785460325,573.6084329932131 L 672.6068302201013,634.5165663217773 A 285.2,285.2 0 0,1 616.9966086829791,641.5878711021767 L 615.2447040598729,579.1305496080663 A 222.71811320048732,222.71811320048732 0 0 0 658.671785460325,573.6084329932131 Z "/><path class="wedge" fill="rgb(226,196,168)" d=" M 615.681624857522,589.7886163868312 L 617.1650717893301,641.5830959609409 A 285.2,285.2 0 0,1 616.9966086829791,641.5878711021767 L 615.5437684726656,589.7925239706469 A 233.38428106112616,233.38428106112616 0 0 0 615.681624857522,589.7886163868312 Z "/><path class="wedge" fill="rgb(229,202,178)" d=" M 661.0506112955661,584.0059482962514 L 672.6068302201013,634.5165663217773 A 285.2,285.2 0 0,1 617.1824988455031,641.5825962991134 L 615.6958857305093,589.7882075045858 A 233.38428106112616,233.38428106112616 0 0 0 661.0506112955661,584.0059482962514 Z "/><path class="wedge" fill="rgb(229,203,178)" d=" M 615.6958857305093,589.7882075045858 L 617.1824988455031,641.5825962991134 A 285.2,285.2 0 0,1 617.1650717893301,641.5830959609409 L 615.681624857522,589.7886163868312 A 233.38428106112616,233.38428106112616 0 0 0 615.6958857305093,589.7882075045858 Z "/><path class="wedge" fill="url(#hiddenPattern)" d=" M 615.6958857305093,589.7882075045858 L 617.1824988455031,641.5825962991134 A 285.2,285.2 0 0,1 617.1650717893301,641.5830959609409 L 615.681624857522,589.7886163868312 A 233.38428106112616,233.38428106112616 0 0 0 615.6958857305093,589.7882075045858 Z "/><path class="wedge" fill="rgb(219,184,149)" d=" M 614.8855133327927,566.355520001765 L 616.9954468586899,641.5879036885462 A 285.2,285.2 0 0,1 616.9338699818145,641.5896239906175 L 614.8401860938969,566.3567863300834 A 209.9380350065267,209.9380350065267 0 0 0 614.8855133327927,566.355520001765 Z "/><path class="wedge" fill="url(#hiddenPattern)" d=" M 614.8855133327927,566.355520001765 L 616.9954468586899,641.5879036885462 A 285.2,285.2 0 0,1 616.9338699818145,641.5896239906175 L 614.8401860938969,566.3567863300834 A 209.9380350065267,209.9380350065267 0 0 0 614.8855133327927,566.355520001765 Z "/><path class="wedge" fill="rgb(216,177,140)" d=" M 614.3526927346883,550.7756292997486 L 616.8548651452611,641.5918116915141 A 285.2,285.2 0 0,1 616.8513796238279,641.5919077034677 L 614.3503175283788,550.7756947270318 A 194.34935415206644,194.34935415206644 0 0 0 614.3526927346883,550.7756292997486 Z "/><path class="wedge" fill="url(#hiddenPattern)" d=" M 614.3526927346883,550.7756292997486 L 616.8548651452611,641.5918116915141 A 285.2,285.2 0 0,1 616.8513796238279,641.5919077034677 L 614.3503175283788,550.7756947270318 A 194.34935415206644,194.34935415206644 0 0 0 614.3526927346883,550.7756292997486 Z "/><path class="wedge" fill="rgb(213,171,130)" d=" M 613.8139405588051,531.3510668799228 L 616.8490559422205,641.5919716877623 A 285.2,285.2 0 0,1 616.7665649084836,641.5942308597673 L 613.7633476039368,531.3524524630839 A 174.91732222038766,174.91732222038766 0 0 0 613.8139405588051,531.3510668799228 Z "/><path class="wedge" fill="url(#hiddenPattern)" d=" M 613.8139405588051,531.3510668799228 L 616.8490559422205,641.5919716877623 A 285.2,285.2 0 0,1 616.7665649084836,641.5942308597673 L 613.7633476039368,531.3524524630839 A 174.91732222038766,174.91732222038766 0 0 0 613.8139405588051,531.3510668799228 Z "/><path class="wedge" fill="rgb(210,165,121)" d=" M 612.9621981231882,506.47935306007264 L 616.5318685748963,641.6005278068956 A 285.2,285.2 0 0,1 615.9939069895105,641.6142319580383 L 612.6791992414675,506.4865622355113 A 150.03168118196012,150.03168118196012 0 0 0 612.9621981231882,506.47935306007264 Z "/><path class="wedge" fill="url(#hiddenPattern)" d=" M 612.9621981231882,506.47935306007264 L 616.5318685748963,641.6005278068956 A 285.2,285.2 0 0,1 615.9939069895105,641.6142319580383 L 612.6791992414675,506.4865622355113 A 150.03168118196012,150.03168118196012 0 0 0 612.9621981231882,506.47935306007264 Z "/><path class="wedge" fill="rgb(207,159,111)" d=" M 611.5541381101169,473.5184289219751 L 615.2235217123463,641.6320882985567 A 285.2,285.2 0 0,1 615.2223597078726,641.6321136590298 L 611.5536612225848,473.51843932993273 A 117.04629993661861,117.04629993661861 0 0 0 611.5541381101169,473.5184289219751 Z "/><path class="wedge" fill="url(#hiddenPattern)" d=" M 611.5541381101169,473.5184289219751 L 615.2235217123463,641.6320882985567 A 285.2,285.2 0 0,1 615.2223597078726,641.6321136590298 L 611.5536612225848,473.51843932993273 A 117.04629993661861,117.04629993661861 0 0 0 611.5541381101169,473.5184289219751 Z "/><path class="wedge" fill="rgb(101,204,204)" d=" M 610.5555899269682,427.78302841475744 L 615.2223597078726,641.6321136590298 A 285.2,285.2 0 0,1 613.6872689762492,641.6614797085053 L 610.1718172440624,427.79036992712633 A 71.3,71.3 0 0 0 610.5555899269682,427.78302841475744 Z "/><path class="wedge" fill="url(#hiddenPattern)" d=" M 610.5555899269682,427.78302841475744 L 615.2223597078726,641.6321136590298 A 285.2,285.2 0 0,1 613.6872689762492,641.6614797085053 L 610.1718172440624,427.79036992712633 A 71.3,71.3 0 0 0 610.5555899269682,427.78302841475744 Z "/><rect fill="rgb(101,204,204)" x="1335.305" y="650.9716666666667" width="22" height="22"/><rect fill="url(#hiddenPattern)" style="stroke:none" x="1335.305" y="650.9716666666667" width="22" height="22"/><path class="line" d="M 614.454834103579,641.6478297040019 L 615.3639731208422,689.1724679880022 A 332.7333333333333,332.7333333333333 0 0,0 740.903494930953,661.9716666666667 L 953.6166666666667,661.9716666666667 L 1245.6327994791668,661.9716666666667"/><text x="1327.9716666666668" y="661.9716666666667" style="font-color:black;font-weight:normal" text-anchor="end">Viruses&#160;&#160;&#160;0.09%</text><circle cx="609" cy="356.5" r="71.3"/><circle cx="609" cy="356.5" r="285.2"/><text x="609" y="356.5" text-anchor="middle" style="font-color:black;font-weight:bold" transform="rotate(360,609,356.5)">root</text><rect fill="rgb(220,220,220)" x="1335.305" y="680.305" width="22" height="22"/><path class="line" d="M 611.3437136273745,641.6903697645362 L 611.8319872997442,701.1050301321478 A 344.6166666666666,344.6166666666666 0 0,0 690.6471611229958,691.305 L 942.6166666666667,691.305 L 1235.0356315104168,691.305"/><text x="1327.9716666666668" y="691.305" style="font-color:black;font-weight:normal" text-anchor="end">[other root]&#160;&#160;&#160;0.3%</text><path class="line" d=" M 610.5555899269682,427.78302841475744 A 71.3,71.3 0 1 0 609,427.8"/><line x1="615.2223597078726" y1="641.6321136590298" x2="610.5555899269682" y2="427.78302841475744"/><text x="609" y="271.4761100190144" text-anchor="middle" style="font-color:black;font-weight:normal" transform="rotate(359.37492419402435,609,356.5)">cellular organisms</text><path class="line" d=" M 611.5541381101169,473.5184289219751 A 117.04629993661861,117.04629993661861 0 1 0 609,473.5462999366186"/><line x1="615.2235217123463" y1="641.6320882985567" x2="611.5541381101169" y2="473.5184289219751"/><text x="609" y="229.55808568977895" text-anchor="middle" style="font-color:black;font-weight:normal" transform="rotate(359.37480744471435,609,356.5)">Bacteria</text><path class="line" d=" M 612.9621981231882,506.47935306007264 A 150.03168118196012,150.03168118196012 0 1 0 609,506.53168118196015"/><line x1="616.5318685748963" y1="641.6005278068956" x2="612.9621981231882" y2="506.47935306007264"/><text x="609" y="194.0254982988261" text-anchor="middle" style="font-color:black;font-weight:normal" transform="rotate(359.24334772160483,609,356.5)">Terrabacteria group</text><path class="line" d=" M 648.0109972546527,527.0116175102107 A 174.91732222038766,174.91732222038766 0 1 0 609,531.4173222203876"/><line x1="672.6068302201013" y1="634.5165663217773" x2="648.0109972546527" y2="527.0116175102107"/><text x="609" y="171.86666181377294" text-anchor="middle" style="font-color:black;font-weight:normal" transform="rotate(353.55660557867117,609,356.5)">Firmicutes</text><path class="line" d=" M 653.8343744642697,545.6072455664324 A 194.34935415206644,194.34935415206644 0 1 0 609,550.8493541520664"/><line x1="674.792673471942" y1="634.0074127251639" x2="653.8343744642697" y2="545.6072455664324"/><text x="609" y="154.35630542070345" text-anchor="middle" style="font-color:black;font-weight:normal" transform="rotate(353.3311626609762,609,356.5)">Bacilli</text><path class="line" d=" M 812.7583117660205,305.9378706079063 A 209.9380350065267,209.9380350065267 0 1 0 609,566.4380350065267"/><line x1="885.8048701316196" y1="287.81154484618844" x2="812.7583117660205" y2="305.9378706079063"/><path class="line" d=" M 824.1116565318546,298.7909610918144 A 222.71811320048732,222.71811320048732 0 1 0 609,579.2181132004873"/><line x1="884.4596092849386" y1="282.6011254984962" x2="824.1116565318546" y2="298.7909610918144"/><path class="line" d=" M 834.2186818703075,295.3054905810991 A 233.38428106112616,233.38428106112616 0 1 0 609,589.8842810611261"/><line x1="884.2214835436516" y1="281.71915354830827" x2="834.2186818703075" y2="295.3054905810991"/><text x="349.7078594694369" y="356.5" text-anchor="end" style="font-color:black;font-weight:normal" transform="rotate(37.39953235415255,609,356.5)">Enterococcus&#160;&#160;&#160;71%</text><path class="line" d=" M 834.2363789327287,295.3706596494697 A 233.38428106112616,233.38428106112616 0 0 0 834.2186818703075,295.3054905810991"/><line x1="884.2431096882214" y1="281.79879138087693" x2="834.2363789327287" y2="295.3706596494697"/><path class="line" d=" M 824.8412293985491,301.5825925656718 A 222.71811320048732,222.71811320048732 0 0 0 824.1116565318546,298.7909610918144"/><line x1="885.3938583165561" y1="286.1759281263697" x2="824.8412293985491" y2="301.5825925656718"/><path class="line" d=" M 664.2707066202562,559.0317938796256 A 209.9380350065267,209.9380350065267 0 0 0 812.7583117660205,305.9378706079063"/><line x1="684.0850389144921" y1="631.6386503768767" x2="664.2707066202562" y2="559.0317938796256"/><path class="line" d=" M 668.2375376280884,571.1957663377317 A 222.71811320048732,222.71811320048732 0 0 0 825.1621963549097,302.85987682148243"/><line x1="684.8561820085222" y1="631.4270442337202" x2="668.2375376280884" y2="571.1957663377317"/><path class="line" d=" M 671.604246000335,581.3308942942413 A 233.38428106112616,233.38428106112616 0 0 0 835.5143955465865,300.2910037753446"/><line x1="685.5035711836101" y1="631.2475998005339" x2="671.604246000335" y2="581.3308942942413"/><text x="868.2921405305631" y="356.5" text-anchor="start" style="font-color:black;font-weight:normal" transform="rotate(390.25190609463834,609,356.5)">25%&#160;&#160;&#160;Staphylococcus</text><path class="line" d=" M 671.5895857428252,581.3349759333727 A 233.38428106112616,233.38428106112616 0 0 0 671.604246000335,581.3308942942413"/><line x1="685.4856560720062" y1="631.2525876406531" x2="671.5895857428252" y2="581.3349759333727"/><path class="line" d=" M 667.8568398025359,571.3004431002034 A 222.71811320048732,222.71811320048732 0 0 0 668.2375376280884,571.1957663377317"/><line x1="684.368682279437" y1="631.5610872723753" x2="667.8568398025359" y2="571.3004431002034"/><path class="line" d=" M 653.4967486688566,545.6869731699991 A 194.34935415206644,194.34935415206644 0 0 0 653.8343744642697,545.6072455664324"/><line x1="674.2972209541196" y1="634.1244098339857" x2="653.4967486688566" y2="545.6869731699991"/><path class="line" d=" M 613.8139405588051,531.3510668799228 A 174.91732222038766,174.91732222038766 0 0 0 648.0109972546527,527.0116175102107"/><line x1="616.8490559422205" y1="641.5919716877623" x2="613.8139405588051" y2="531.3510668799228"/><text x="609" y="541.1333381862271" text-anchor="middle" style="font-color:black;font-weight:normal" transform="rotate(352.76808073863407,609,356.5)">Actinobacteria</text><path class="line" d=" M 614.3526927346883,550.7756292997486 A 194.34935415206644,194.34935415206644 0 0 0 652.3448330046873,545.9542079530595"/><line x1="616.8548651452611" y1="641.5918116915141" x2="614.3526927346883" y2="550.7756292997486"/><text x="609" y="558.6436945792966" text-anchor="middle" style="font-color:black;font-weight:normal" transform="rotate(352.76749699208375,609,356.5)">Actinobacteria</text><path class="line" d=" M 614.8855133327927,566.355520001765 A 209.9380350065267,209.9380350065267 0 0 0 655.8215040301607,561.1502511670955"/><line x1="616.9954468586899" y1="641.5879036885462" x2="614.8855133327927" y2="566.355520001765"/><path class="line" d=" M 615.2447040598729,579.1305496080663 A 222.71811320048732,222.71811320048732 0 0 0 658.671785460325,573.6084329932131"/><line x1="616.9966086829791" y1="641.5878711021767" x2="615.2447040598729" y2="579.1305496080663"/><path class="line" d=" M 615.6958857305093,589.7882075045858 A 233.38428106112616,233.38428106112616 0 0 0 661.0506112955661,584.0059482962514"/><line x1="617.1824988455031" y1="641.5825962991134" x2="615.6958857305093" y2="589.7882075045858"/><text x="868.2921405305631" y="356.5" text-anchor="start" style="font-color:black;font-weight:normal" transform="rotate(442.73457368665134,609,356.5)">3%&#160;&#160;&#160;Cutibacterium</text><path class="line" d=" M 615.681624857522,589.7886163868312 A 233.38428106112616,233.38428106112616 0 0 0 615.6958857305093,589.7882075045858"/><line x1="617.1650717893301" y1="641.5830959609409" x2="615.681624857522" y2="589.7886163868312"/><path class="line" d=" M 614.8401860938969,566.3567863300834 A 209.9380350065267,209.9380350065267 0 0 0 614.8855133327927,566.355520001765"/><line x1="616.9338699818145" y1="641.5896239906175" x2="614.8401860938969" y2="566.3567863300834"/><path class="line" d=" M 614.3503175283788,550.7756947270318 A 194.34935415206644,194.34935415206644 0 0 0 614.3526927346883,550.7756292997486"/><line x1="616.8513796238279" y1="641.5919077034677" x2="614.3503175283788" y2="550.7756947270318"/><path class="line" d=" M 613.7633476039368,531.3524524630839 A 174.91732222038766,174.91732222038766 0 0 0 613.8139405588051,531.3510668799228"/><line x1="616.7665649084836" y1="641.5942308597673" x2="613.7633476039368" y2="531.3524524630839"/><path class="line" d=" M 612.6791992414675,506.4865622355113 A 150.03168118196012,150.03168118196012 0 0 0 612.9621981231882,506.47935306007264"/><line x1="615.9939069895105" y1="641.6142319580383" x2="612.6791992414675" y2="506.4865622355113"/><path class="line" d=" M 611.5536612225848,473.51843932993273 A 117.04629993661861,117.04629993661861 0 0 0 611.5541381101169,473.5184289219751"/><path class="line" d=" M 610.1718172440624,427.79036992712633 A 71.3,71.3 0 0 0 610.5555899269682,427.78302841475744"/><line x1="613.6872689762492" y1="641.6614797085053" x2="610.1718172440624" y2="427.79036992712633"/></svg>