<?xml version="1.0" standalone="no"?><!DOCTYPE svg PUBLIC "-//W3C//DTD SVG 1.1//EN" 	"http://www.w3.org/Graphics/SVG/1.1/DTD/svg11.dtd"><svg width="1368" height="713" version="1.1"	xmlns="http://www.w3.org/2000/svg"><title>Krona (snapshot) - root</title><defs>	<style type="text/css">	text {font-size: 11px; font-family: sans-serif; dominant-baseline:central}	path {stroke-width:0.27499999999999997;}	path.wedge {stroke:none}	path.line {fill:none;stroke:black;}	line {stroke:black;stroke-width:0.27499999999999997;}	line.tick {stroke-width:0.5499999999999999;}	line.pattern {stroke-width:0.18333333333333332;}	circle {fill:none;stroke:black;stroke-width:0.27499999999999997;}	rect {stroke:black;stroke-width:0.27499999999999997;}	.highlight {stroke:black;stroke-width:1.375;}	.searchHighlight {fill:rgb(255, 255, 100);stroke:none;}	</style><pattern id="hiddenPattern" patternUnits="userSpaceOnUse" x="0" y="0" width="6.6" height="6.6"><line class="pattern" x1="0" y1="0" x2="3.3" y2="3.3"/><line class="pattern" x1="3.3" y1="6.6" x2="6.6" y2="3.3"/></pattern></defs><path class="wedge" fill="rgb(220,220,220)" d=" M 609.5715866578128,427.7977088600511 L 611.2863466312509,641.6908354402044 A 285.2,285.2 0 0,1 609.0000000000001,641.7 L 609,427.8 A 71.3,71.3 0 0 0 609.5715866578128,427.7977088600511 Z "/><path class="wedge" fill="rgb(207,111,111)" d=" M 609,427.8 L 609,641.7 A 285.2,285.2 0 1,1 614.329089744607,641.650207438981 L 610.3322724361518,427.78755185974524 A 71.3,71.3 0 1 0 609,427.8 Z "/><path class="wedge" fill="rgb(207,111,111)" d=" M 611.1880237749999,473.5258470630011 L 614.3314319288,641.6501636569556 A 285.2,285.2 0 0,1 614.329089744607,641.650207438981 L 611.187062540801,473.5258650311781 A 117.04629993661861,117.04629993661861 0 0 0 611.1880237749999,473.5258470630011 Z "/><path class="wedge" fill="rgb(210,121,121)" d=" M 609,473.5462999366186 L 609,641.7 A 285.2,285.2 0 1,1 614.3642224696606,641.6495486885715 L 611.2014810382561,473.525594679502 A 117.04629993661861,117.04629993661861 0 1 0 609,473.5462999366186 Z "/><path class="wedge" fill="rgb(210,121,121)" d=" M 612.1483962580999,506.498643191488 L 614.9848866968375,641.6371970319306 A 285.2,285.2 0 0,1 614.3642224696606,641.6495486885715 L 611.8218910075639,506.50514087666045 A 150.03168118196012,150.03168118196012 0 0 0 612.1483962580999,506.498643191488 Z "/><path class="wedge" fill="rgb(213,130,130)" d=" M 609,506.53168118196015 L 609,641.7 A 285.2,285.2 0 1,1 615.7811686753421,641.6193710560483 L 612.5672865944601,506.4892656980436 A 150.03168118196012,150.03168118196012 0 1 0 609,506.53168118196015 Z "/><path class="wedge" fill="rgb(213,130,130)" d=" M 613.2918499975588,531.3646609133743 L 615.9977953227614,641.614136549945 A 285.2,285.2 0 0,1 615.7811686753421,641.6193710560483 L 613.1589897132385,531.36787131236 A 174.91732222038766,174.91732222038766 0 0 0 613.2918499975588,531.3646609133743 Z "/><path class="wedge" fill="rgb(216,140,140)" d=" M 609,531.4173222203876 L 609,641.7 A 285.2,285.2 0 1,1 616.3560985804583,641.605117129936 L 613.5116026145967,531.359129171453 A 174.91732222038766,174.91732222038766 0 1 0 609,531.4173222203876 Z "/><path class="wedge" fill="rgb(216,140,140)" d=" M 614.9909832446208,550.7569936426692 L 617.7915312547372,641.5644646008986 A 285.2,285.2 0 0,1 616.3560985804583,641.605117129936 L 614.01280858412,550.7846962820909 A 194.34935415206644,194.34935415206644 0 0 0 614.9909832446208,550.7569936426692 Z "/><path class="wedge" fill="rgb(219,149,149)" d=" M 609,550.8493541520664 L 609,641.7 A 285.2,285.2 0 1,1 617.9636284289577,641.5591050385649 L 615.108258751848,550.7533413724094 A 194.34935415206644,194.34935415206644 0 1 0 609,550.8493541520664 Z "/><path class="wedge" fill="rgb(219,149,149)" d=" M 623.9405116284541,565.9057297560926 L 629.2966266513005,640.9768653978347 A 285.2,285.2 0 0,1 617.9636284289577,641.5591050385649 L 615.598199645526,566.3343210817511 A 209.9380350065267,209.9380350065267 0 0 0 623.9405116284541,565.9057297560926 Z "/><path class="wedge" fill="rgb(223,159,159)" d=" M 609,566.4380350065267 L 609,641.7 A 285.2,285.2 0 1,1 851.8158349629637,506.0978284977386 L 787.7387070848306,466.6201758627581 A 209.9380350065267,209.9380350065267 0 1 0 609,566.4380350065267 Z "/><path class="wedge" fill="rgb(223,159,159)" d=" M 799.4537601952431,471.95875096794475 L 852.8841261141058,504.34983270047655 A 285.2,285.2 0 0,1 851.8158349629637,506.0978284977386 L 798.6195112838436,473.3237941862077 A 222.71811320048732,222.71811320048732 0 0 0 799.4537601952431,471.95875096794475 Z "/><path class="wedge" fill="rgb(226,168,168)" d=" M 609,579.2181132004873 L 609,641.7 A 285.2,285.2 0 1,1 854.1735191676731,502.2017003982404 L 800.4606717943467,470.2812335301501 A 222.71811320048732,222.71811320048732 0 1 0 609,579.2181132004873 Z "/><path class="wedge" fill="rgb(226,168,168)" d=" M 810.0925790969186,474.94828947084153 L 854.738930221355,501.24604717802833 A 285.2,285.2 0 0,1 854.1735191676731,502.2017003982404 L 809.6298930791502,475.7303176606835 A 233.38428106112616,233.38428106112616 0 0 0 810.0925790969186,474.94828947084153 Z "/><path class="wedge" fill="rgb(229,178,178)" d=" M 609,589.8842810611261 L 609,641.7 A 285.2,285.2 0 1,1 854.7757788990436,501.18347005296897 L 810.1227330315274,474.89708148576835 A 233.38428106112616,233.38428106112616 0 1 0 609,589.8842810611261 Z "/><path class="wedge" fill="rgb(229,198,178)" d=" M 810.1227330315274,474.89708148576835 L 854.7757788990436,501.18347005296897 A 285.2,285.2 0 0,1 854.738930221355,501.24604717802833 L 810.0925790969186,474.94828947084153 A 233.38428106112616,233.38428106112616 0 0 0 810.1227330315274,474.89708148576835 Z "/><path class="wedge" fill="url(#hiddenPattern)" d=" M 810.1227330315274,474.89708148576835 L 854.7757788990436,501.18347005296897 A 285.2,285.2 0 0,1 854.738930221355,501.24604717802833 L 810.0925790969186,474.94828947084153 A 233.38428106112616,233.38428106112616 0 0 0 810.1227330315274,474.89708148576835 Z "/><path class="wedge" fill="rgb(223,184,159)" d=" M 800.4606717943467,470.2812335301501 L 854.1735191676731,502.2017003982404 A 285.2,285.2 0 0,1 852.8841261141058,504.34983270047655 L 799.4537601952431,471.95875096794475 A 222.71811320048732,222.71811320048732 0 0 0 800.4606717943467,470.2812335301501 Z "/><path class="wedge" fill="url(#hiddenPattern)" d=" M 800.4606717943467,470.2812335301501 L 854.1735191676731,502.2017003982404 A 285.2,285.2 0 0,1 852.8841261141058,504.34983270047655 L 799.4537601952431,471.95875096794475 A 222.71811320048732,222.71811320048732 0 0 0 800.4606717943467,470.2812335301501 Z "/><path class="wedge" fill="rgb(223,185,159)" d=" M 787.7387070848306,466.6201758627581 L 851.8158349629637,506.0978284977386 A 285.2,285.2 0 0,1 629.2966266513005,640.9768653978347 L 623.9405116284541,565.9057297560926 A 209.9380350065267,209.9380350065267 0 0 0 787.7387070848306,466.6201758627581 Z "/><path class="wedge" fill="rgb(223,185,159)" d=" M 625.0005595923807,578.6426119417789 L 629.4893959012625,640.9630462038986 A 285.2,285.2 0 0,1 629.2966266513005,640.9768653978347 L 624.8500224127363,578.653403613586 A 222.71811320048732,222.71811320048732 0 0 0 625.0005595923807,578.6426119417789 Z "/><path class="wedge" fill="rgb(226,192,168)" d=" M 798.6195112838436,473.3237941862077 L 851.8158349629637,506.0978284977386 A 285.2,285.2 0 0,1 629.955507938348,640.9290890310726 L 625.3645553618047,578.6160941386182 A 222.71811320048732,222.71811320048732 0 0 0 798.6195112838436,473.3237941862077 Z "/><path class="wedge" fill="rgb(226,192,168)" d=" M 626.43980507981,589.2317680188869 L 630.3117712390368,640.9026167366519 A 285.2,285.2 0 0,1 629.955507938348,640.9290890310726 L 626.1482684237801,589.2534307727487 A 233.38428106112616,233.38428106112616 0 0 0 626.43980507981,589.2317680188869 Z "/><path class="wedge" fill="rgb(229,199,178)" d=" M 807.7005577597768,478.9185892435146 L 851.8158349629637,506.0978284977386 A 285.2,285.2 0 0,1 630.3176113439582,640.9021790468348 L 626.4445841425322,589.2314098494503 A 233.38428106112616,233.38428106112616 0 0 0 807.7005577597768,478.9185892435146 Z "/><path class="wedge" fill="rgb(229,202,178)" d=" M 626.4445841425322,589.2314098494503 L 630.3176113439582,640.9021790468348 A 285.2,285.2 0 0,1 630.3117712390368,640.9026167366519 L 626.43980507981,589.2317680188869 A 233.38428106112616,233.38428106112616 0 0 0 626.4445841425322,589.2314098494503 Z "/><path class="wedge" fill="url(#hiddenPattern)" d=" M 626.4445841425322,589.2314098494503 L 630.3176113439582,640.9021790468348 A 285.2,285.2 0 0,1 630.3117712390368,640.9026167366519 L 626.43980507981,589.2317680188869 A 233.38428106112616,233.38428106112616 0 0 0 626.4445841425322,589.2314098494503 Z "/><path class="wedge" fill="rgb(223,189,159)" d=" M 625.3645553618047,578.6160941386182 L 629.955507938348,640.9290890310726 A 285.2,285.2 0 0,1 629.4893959012625,640.9630462038986 L 625.0005595923807,578.6426119417789 A 222.71811320048732,222.71811320048732 0 0 0 625.3645553618047,578.6160941386182 Z "/><path class="wedge" fill="url(#hiddenPattern)" d=" M 625.3645553618047,578.6160941386182 L 629.955507938348,640.9290890310726 A 285.2,285.2 0 0,1 629.4893959012625,640.9630462038986 L 625.0005595923807,578.6426119417789 A 222.71811320048732,222.71811320048732 0 0 0 625.3645553618047,578.6160941386182 Z "/><path class="wedge" fill="rgb(216,177,140)" d=" M 615.108258751848,550.7533413724094 L 617.9636284289577,641.5591050385649 A 285.2,285.2 0 0,1 617.7915312547372,641.5644646008986 L 614.9909832446208,550.7569936426692 A 194.34935415206644,194.34935415206644 0 0 0 615.108258751848,550.7533413724094 Z "/><path class="wedge" fill="url(#hiddenPattern)" d=" M 615.108258751848,550.7533413724094 L 617.9636284289577,641.5591050385649 A 285.2,285.2 0 0,1 617.7915312547372,641.5644646008986 L 614.9909832446208,550.7569936426692 A 194.34935415206644,194.34935415206644 0 0 0 615.108258751848,550.7533413724094 Z "/><path class="wedge" fill="rgb(213,171,130)" d=" M 613.5116026145967,531.359129171453 L 616.3560985804583,641.605117129936 A 285.2,285.2 0 0,1 615.9977953227614,641.614136549945 L 613.2918499975588,531.3646609133743 A 174.91732222038766,174.91732222038766 0 0 0 613.5116026145967,531.359129171453 Z "/><path class="wedge" fill="url(#hiddenPattern)" d=" M 613.5116026145967,531.359129171453 L 616.3560985804583,641.605117129936 A 285.2,285.2 0 0,1 615.9977953227614,641.614136549945 L 613.2918499975588,531.3646609133743 A 174.91732222038766,174.91732222038766 0 0 0 613.5116026145967,531.359129171453 Z "/><path class="wedge" fill="rgb(210,165,121)" d=" M 612.5672865944601,506.4892656980436 L 615.7811686753421,641.6193710560483 A 285.2,285.2 0 0,1 614.9848866968375,641.6371970319306 L 612.1483962580999,506.498643191488 A 150.03168118196012,150.03168118196012 0 0 0 612.5672865944601,506.4892656980436 Z "/><path class="wedge" fill="url(#hiddenPattern)" d=" M 612.5672865944601,506.4892656980436 L 615.7811686753421,641.6193710560483 A 285.2,285.2 0 0,1 614.9848866968375,641.6371970319306 L 612.1483962580999,506.498643191488 A 150.03168118196012,150.03168118196012 0 0 0 612.5672865944601,506.4892656980436 Z "/><path class="wedge" fill="rgb(207,159,111)" d=" M 611.2014810382561,473.525594679502 L 614.3642224696606,641.6495486885715 A 285.2,285.2 0 0,1 614.3314319288,641.6501636569556 L 611.1880237749999,473.5258470630011 A 117.04629993661861,117.04629993661861 0 0 0 611.2014810382561,473.525594679502 Z "/><path class="wedge" fill="url(#hiddenPattern)" d=" M 611.2014810382561,473.525594679502 L 614.3642224696606,641.6495486885715 A 285.2,285.2 0 0,1 614.3314319288,641.6501636569556 L 611.1880237749999,473.5258470630011 A 117.04629993661861,117.04629993661861 0 0 0 611.2014810382561,473.525594679502 Z "/><path class="wedge" fill="rgb(101,204,204)" d=" M 610.3322724361518,427.78755185974524 L 614.329089744607,641.650207438981 A 285.2,285.2 0 0,1 611.2863466312509,641.6908354402044 L 609.5715866578128,427.7977088600511 A 71.3,71.3 0 0 0 610.3322724361518,427.78755185974524 Z "/><path class="wedge" fill="url(#hiddenPattern)" d=" M 610.3322724361518,427.78755185974524 L 614.329089744607,641.650207438981 A 285.2,285.2 0 0,1 611.2863466312509,641.6908354402044 L 609.5715866578128,427.7977088600511 A 71.3,71.3 0 0 0 610.3322724361518,427.78755185974524 Z "/><rect fill="rgb(101,204,204)" x="1335.305" y="650.9716666666667" width="22" height="22"/><rect fill="url(#hiddenPattern)" style="stroke:none" x="1335.305" y="650.9716666666667" width="22" height="22"/><path class="line" d="M 612.8077723746707,641.6745796342 L 613.4424011037825,689.2036762399 A 332.7333333333333,332.7333333333333 0 0,0 740.903494930953,661.9716666666667 L 953.6166666666667,661.9716666666667 L 1251.7504752604168,661.9716666666667"/><text x="1327.9716666666668" y="661.9716666666667" style="font-color:black;font-weight:normal" text-anchor="end">Viruses&#160;&#160;&#160;0.2%</text><circle cx="609" cy="356.5" r="71.3"/><circle cx="609" cy="356.5" r="285.2"/><text x="609" y="356.5" text-anchor="middle" style="font-color:black;font-weight:bold" transform="rotate(360,609,356.5)">root</text><rect fill="rgb(220,220,220)" x="1335.305" y="680.305" width="22" height="22"/><path class="line" d="M 610.1431824993618,641.6977088508481 L 610.3813455200622,701.1138981947747 A 344.6166666666666,344.6166666666666 0 0,0 690.6471611229958,691.305 L 942.6166666666667,691.305 L 1235.0356315104168,691.305"/><text x="1327.9716666666668" y="691.305" style="font-color:black;font-weight:normal" text-anchor="end">[other root]&#160;&#160;&#160;0.1%</text><path class="line" d=" M 610.3322724361518,427.78755185974524 A 71.3,71.3 0 1 0 609,427.8"/><line x1="614.329089744607" y1="641.650207438981" x2="610.3322724361518" y2="427.78755185974524"/><text x="609" y="271.4761100190144" text-anchor="middle" style="font-color:black;font-weight:normal" transform="rotate(359.4646701936992,609,356.5)">cellular organisms</text><path class="line" d=" M 611.2014810382561,473.525594679502 A 117.04629993661861,117.04629993661861 0 1 0 609,473.5462999366186"/><line x1="614.3642224696606" y1="641.6495486885715" x2="611.2014810382561" y2="473.525594679502"/><text x="609" y="229.55808568977895" text-anchor="middle" style="font-color:black;font-weight:normal" transform="rotate(359.46114054662473,609,356.5)">Bacteria</text><path class="line" d=" M 612.5672865944601,506.4892656980436 A 150.03168118196012,150.03168118196012 0 1 0 609,506.53168118196015"/><line x1="615.7811686753421" y1="641.6193710560483" x2="612.5672865944601" y2="506.4892656980436"/><text x="609" y="194.0254982988261" text-anchor="middle" style="font-color:black;font-weight:normal" transform="rotate(359.3187781146194,609,356.5)">Terrabacteria group</text><path class="line" d=" M 613.5116026145967,531.359129171453 A 174.91732222038766,174.91732222038766 0 1 0 609,531.4173222203876"/><line x1="616.3560985804583" y1="641.605117129936" x2="613.5116026145967" y2="531.359129171453"/><text x="609" y="171.86666181377294" text-anchor="middle" style="font-color:black;font-weight:normal" transform="rotate(359.26100955749996,609,356.5)">Firmicutes</text><path class="line" d=" M 615.108258751848,550.7533413724094 A 194.34935415206644,194.34935415206644 0 1 0 609,550.8493541520664"/><line x1="617.9636284289577" y1="641.5591050385649" x2="615.108258751848" y2="550.7533413724094"/><text x="609" y="154.35630542070345" text-anchor="middle" style="font-color:black;font-weight:normal" transform="rotate(359.0994693763898,609,356.5)">Bacilli</text><path class="line" d=" M 787.7387070848306,466.6201758627581 A 209.9380350065267,209.9380350065267 0 1 0 609,566.4380350065267"/><line x1="851.8158349629637" y1="506.0978284977386" x2="787.7387070848306" y2="466.6201758627581"/><path class="line" d=" M 800.4606717943467,470.2812335301501 A 222.71811320048732,222.71811320048732 0 1 0 609,579.2181132004873"/><line x1="854.1735191676731" y1="502.2017003982404" x2="800.4606717943467" y2="470.2812335301501"/><path class="line" d=" M 810.1227330315274,474.89708148576835 A 233.38428106112616,233.38428106112616 0 1 0 609,589.8842810611261"/><line x1="854.7757788990436" y1="501.18347005296897" x2="810.1227330315274" y2="474.89708148576835"/><text x="349.7078594694369" y="356.5" text-anchor="end" style="font-color:black;font-weight:normal" transform="rotate(60.24225144421397,609,356.5)">Enterococcus&#160;&#160;&#160;83%</text><path class="line" d=" M 810.0925790969186,474.94828947084153 A 233.38428106112616,233.38428106112616 0 0 0 810.1227330315274,474.89708148576835"/><line x1="854.738930221355" y1="501.24604717802833" x2="810.0925790969186" y2="474.94828947084153"/><path class="line" d=" M 799.4537601952431,471.95875096794475 A 222.71811320048732,222.71811320048732 0 0 0 800.4606717943467,470.2812335301501"/><line x1="852.8841261141058" y1="504.34983270047655" x2="799.4537601952431" y2="471.95875096794475"/><path class="line" d=" M 623.9405116284541,565.9057297560926 A 209.9380350065267,209.9380350065267 0 0 0 787.7387070848306,466.6201758627581"/><line x1="629.2966266513005" y1="640.9768653978347" x2="623.9405116284541" y2="565.9057297560926"/><path class="line" d=" M 625.3645553618047,578.6160941386182 A 222.71811320048732,222.71811320048732 0 0 0 798.6195112838436,473.3237941862077"/><line x1="629.955507938348" y1="640.9290890310726" x2="625.3645553618047" y2="578.6160941386182"/><path class="line" d=" M 626.4445841425322,589.2314098494503 A 233.38428106112616,233.38428106112616 0 0 0 807.7005577597768,478.9185892435146"/><line x1="630.3176113439582" y1="640.9021790468348" x2="626.4445841425322" y2="589.2314098494503"/><text x="868.2921405305631" y="356.5" text-anchor="start" style="font-color:black;font-weight:normal" transform="rotate(418.6752057980337,609,356.5)">15%&#160;&#160;&#160;Staphylococcus</text><path class="line" d=" M 626.43980507981,589.2317680188869 A 233.38428106112616,233.38428106112616 0 0 0 626.4445841425322,589.2314098494503"/><line x1="630.3117712390368" y1="640.9026167366519" x2="626.43980507981" y2="589.2317680188869"/><path class="line" d=" M 625.0005595923807,578.6426119417789 A 222.71811320048732,222.71811320048732 0 0 0 625.3645553618047,578.6160941386182"/><line x1="629.4893959012625" y1="640.9630462038986" x2="625.0005595923807" y2="578.6426119417789"/><path class="line" d=" M 614.9909832446208,550.7569936426692 A 194.34935415206644,194.34935415206644 0 0 0 615.108258751848,550.7533413724094"/><line x1="617.7915312547372" y1="641.5644646008986" x2="614.9909832446208" y2="550.7569936426692"/><path class="line" d=" M 613.2918499975588,531.3646609133743 A 174.91732222038766,174.91732222038766 0 0 0 613.5116026145967,531.359129171453"/><line x1="615.9977953227614" y1="641.614136549945" x2="613.2918499975588" y2="531.3646609133743"/><path class="line" d=" M 612.1483962580999,506.498643191488 A 150.03168118196012,150.03168118196012 0 0 0 612.5672865944601,506.4892656980436"/><line x1="614.9848866968375" y1="641.6371970319306" x2="612.1483962580999" y2="506.498643191488"/><path class="line" d=" M 611.1880237749999,473.5258470630011 A 117.04629993661861,117.04629993661861 0 0 0 611.2014810382561,473.525594679502"/><line x1="614.3314319288" y1="641.6501636569556" x2="611.1880237749999" y2="473.5258470630011"/><path class="line" d=" M 609.5715866578128,427.7977088600511 A 71.3,71.3 0 0 0 610.3322724361518,427.78755185974524"/><line x1="611.2863466312509" y1="641.6908354402044" x2="609.5715866578128" y2="427.7977088600511"/></svg>