<?xml version="1.0" standalone="no"?><!DOCTYPE svg PUBLIC "-//W3C//DTD SVG 1.1//EN" 	"http://www.w3.org/Graphics/SVG/1.1/DTD/svg11.dtd"><svg width="1368" height="713" version="1.1"	xmlns="http://www.w3.org/2000/svg"><title>Krona (snapshot) - root</title><defs>	<style type="text/css">	text {font-size: 11px; font-family: sans-serif; dominant-baseline:central}	path {stroke-width:0.27499999999999997;}	path.wedge {stroke:none}	path.line {fill:none;stroke:black;}	line {stroke:black;stroke-width:0.27499999999999997;}	line.tick {stroke-width:0.5499999999999999;}	line.pattern {stroke-width:0.18333333333333332;}	circle {fill:none;stroke:black;stroke-width:0.27499999999999997;}	rect {stroke:black;stroke-width:0.27499999999999997;}	.highlight {stroke:black;stroke-width:1.375;}	.searchHighlight {fill:rgb(255, 255, 100);stroke:none;}	</style><pattern id="hiddenPattern" patternUnits="userSpaceOnUse" x="0" y="0" width="6.6" height="6.6"><line class="pattern" x1="0" y1="0" x2="3.3" y2="3.3"/><line class="pattern" x1="3.3" y1="6.6" x2="6.6" y2="3.3"/></pattern></defs><path class="wedge" fill="rgb(220,220,220)" d=" M 609.492228079656,427.7983009020383 L 610.9689123186242,641.6932036081532 A 285.2,285.2 0 0,1 609.0000000000001,641.7 L 609,427.8 A 71.3,71.3 0 0 0 609.492228079656,427.7983009020383 Z "/><path class="wedge" fill="rgb(207,111,111)" d=" M 609,427.8 L 609,641.7 A 285.2,285.2 0 1,1 619.7630160434745,641.4968376765748 L 611.6907540108687,427.7492094191437 A 71.3,71.3 0 1 0 609,427.8 Z "/><path class="wedge" fill="rgb(207,111,111)" d=" M 613.4175954642837,473.4629051416167 L 619.7641012752729,641.4967966903062 A 285.2,285.2 0 0,1 619.7630160434745,641.4968376765748 L 613.4171500843169,473.46292196241296 A 117.04629993661861,117.04629993661861 0 0 0 613.4175954642837,473.4629051416167 Z "/><path class="wedge" fill="rgb(210,121,121)" d=" M 609,473.5462999366186 L 609,641.7 A 285.2,285.2 0 1,1 619.769527431924,641.4965916969763 L 613.4198223631578,473.46282101219606 A 117.04629993661861,117.04629993661861 0 1 0 609,473.5462999366186 Z "/><path class="wedge" fill="rgb(210,121,121)" d=" M 615.2756310442486,506.4003729591151 L 620.9295468778291,641.4503920181365 A 285.2,285.2 0 0,1 619.769527431924,641.4965916969763 L 614.6653937803184,506.424676659979 A 150.03168118196012,150.03168118196012 0 0 0 615.2756310442486,506.4003729591151 Z "/><path class="wedge" fill="rgb(213,130,130)" d=" M 609,506.53168118196015 L 609,641.7 A 285.2,285.2 0 1,1 621.5621040368136,641.4232063945797 L 615.6083926641859,506.38607175011714 A 150.03168118196012,150.03168118196012 0 1 0 609,506.53168118196015 Z "/><path class="wedge" fill="rgb(213,130,130)" d=" M 616.8941608908298,531.239096474088 L 621.871307755489,641.4094056654912 A 285.2,285.2 0 0,1 621.5621040368136,641.4232063945797 L 616.7045217376344,531.2475606626463 A 174.91732222038766,174.91732222038766 0 0 0 616.8941608908298,531.239096474088 Z "/><path class="wedge" fill="rgb(216,140,140)" d=" M 609,531.4173222203876 L 609,641.7 A 285.2,285.2 0 1,1 676.2796799370353,633.6506533774909 L 650.2636095877664,526.4805404643112 A 174.91732222038766,174.91732222038766 0 1 0 609,531.4173222203876 Z "/><path class="wedge" fill="rgb(216,140,140)" d=" M 655.7339229384509,545.1467914015722 L 677.580185821546,633.3317144271628 A 285.2,285.2 0 0,1 676.2796799370353,633.6506533774909 L 654.8476940509136,545.3641321414397 A 194.34935415206644,194.34935415206644 0 0 0 655.7339229384509,545.1467914015722 Z "/><path class="wedge" fill="rgb(219,149,149)" d=" M 609,550.8493541520664 L 609,641.7 A 285.2,285.2 0 1,1 677.7256476828047,633.2956382434141 L 655.8330478290167,545.1222073096653 A 194.34935415206644,194.34935415206644 0 1 0 609,550.8493541520664 Z "/><path class="wedge" fill="rgb(219,149,149)" d=" M 667.7218337583311,558.0582416634471 L 688.7733816426135,630.3160834963899 A 285.2,285.2 0 0,1 677.7256476828047,633.2956382434141 L 659.5895071145824,560.2515160981759 A 209.9380350065267,209.9380350065267 0 0 0 667.7218337583311,558.0582416634471 Z "/><path class="wedge" fill="rgb(223,159,159)" d=" M 609,566.4380350065267 L 609,641.7 A 285.2,285.2 0 1,1 892.590998245656,386.75203652702277 L 817.7536357546718,378.7687696473662 A 209.9380350065267,209.9380350065267 0 1 0 609,566.4380350065267 Z "/><path class="wedge" fill="rgb(223,159,159)" d=" M 830.6174092437232,378.6151954023744 L 892.7905018502624,384.81944666790304 A 285.2,285.2 0 0,1 892.590998245656,386.75203652702277 L 830.4616130782441,380.12439164014984 A 222.71811320048732,222.71811320048732 0 0 0 830.6174092437232,378.6151954023744 Z "/><path class="wedge" fill="rgb(226,168,168)" d=" M 609,579.2181132004873 L 609,641.7 A 285.2,285.2 0 1,1 892.9638403214195,383.0250332688076 L 830.752772558033,377.21390379456165 A 222.71811320048732,222.71811320048732 0 1 0 609,579.2181132004873 Z "/><path class="wedge" fill="rgb(226,168,168)" d=" M 841.4539157075,377.3182544577887 L 893.0630759636092,381.9403001965941 A 285.2,285.2 0 0,1 892.9638403214195,383.0250332688076 L 841.3727093996175,378.2059110082858 A 233.38428106112616,233.38428106112616 0 0 0 841.4539157075,377.3182544577887 Z "/><path class="wedge" fill="rgb(229,178,178)" d=" M 609,589.8842810611261 L 609,641.7 A 285.2,285.2 0 1,1 893.06936403615,381.86999046309046 L 841.4590613501689,377.2607187403787 A 233.38428106112616,233.38428106112616 0 1 0 609,589.8842810611261 Z "/><path class="wedge" fill="rgb(229,196,178)" d=" M 841.4590613501689,377.2607187403787 L 893.06936403615,381.86999046309046 A 285.2,285.2 0 0,1 893.0630759636092,381.9403001965941 L 841.4539157075,377.3182544577887 A 233.38428106112616,233.38428106112616 0 0 0 841.4590613501689,377.2607187403787 Z "/><path class="wedge" fill="url(#hiddenPattern)" d=" M 841.4590613501689,377.2607187403787 L 893.06936403615,381.86999046309046 A 285.2,285.2 0 0,1 893.0630759636092,381.9403001965941 L 841.4539157075,377.3182544577887 A 233.38428106112616,233.38428106112616 0 0 0 841.4590613501689,377.2607187403787 Z "/><path class="wedge" fill="rgb(223,182,159)" d=" M 830.752772558033,377.21390379456165 L 892.9638403214195,383.0250332688076 A 285.2,285.2 0 0,1 892.7905018502624,384.81944666790304 L 830.6174092437232,378.6151954023744 A 222.71811320048732,222.71811320048732 0 0 0 830.752772558033,377.21390379456165 Z "/><path class="wedge" fill="url(#hiddenPattern)" d=" M 830.752772558033,377.21390379456165 L 892.9638403214195,383.0250332688076 A 285.2,285.2 0 0,1 892.7905018502624,384.81944666790304 L 830.6174092437232,378.6151954023744 A 222.71811320048732,222.71811320048732 0 0 0 830.752772558033,377.21390379456165 Z "/><path class="wedge" fill="rgb(223,182,159)" d=" M 817.7536357546718,378.7687696473662 L 892.590998245656,386.75203652702277 A 285.2,285.2 0 0,1 688.7733816426135,630.3160834963899 L 667.7218337583311,558.0582416634471 A 209.9380350065267,209.9380350065267 0 0 0 817.7536357546718,378.7687696473662 Z "/><path class="wedge" fill="rgb(223,182,159)" d=" M 671.5236886125497,570.2618916221178 L 689.0642378657693,630.2311780104224 A 285.2,285.2 0 0,1 688.7733816426135,630.3160834963899 L 671.2965534469329,570.3281959336011 A 222.71811320048732,222.71811320048732 0 0 0 671.5236886125497,570.2618916221178 Z "/><path class="wedge" fill="rgb(226,190,168)" d=" M 830.4616130782441,380.12439164014984 L 892.590998245656,386.75203652702277 A 285.2,285.2 0 0,1 689.48316203286,630.1082978076367 L 671.8508344753425,570.1659321308341 A 222.71811320048732,222.71811320048732 0 0 0 830.4616130782441,380.12439164014984 Z "/><path class="wedge" fill="rgb(226,190,168)" d=" M 675.316808605609,580.2639460297073 L 690.0403928161984,629.9437688670127 A 285.2,285.2 0 0,1 689.48316203286,630.1082978076367 L 674.860816649948,580.3985830161073 A 233.38428106112616,233.38428106112616 0 0 0 675.316808605609,580.2639460297073 Z "/><path class="wedge" fill="rgb(229,197,178)" d=" M 841.067606034255,381.2557846966835 L 892.590998245656,386.75203652702277 A 285.2,285.2 0 0,1 690.0591349323778,629.9382135766955 L 675.3321456158128,580.2594000358897 A 233.38428106112616,233.38428106112616 0 0 0 841.067606034255,381.2557846966835 Z "/><path class="wedge" fill="rgb(229,201,178)" d=" M 675.3321456158128,580.2594000358897 L 690.0591349323778,629.9382135766955 A 285.2,285.2 0 0,1 690.0403928161984,629.9437688670127 L 675.316808605609,580.2639460297073 A 233.38428106112616,233.38428106112616 0 0 0 675.3321456158128,580.2594000358897 Z "/><path class="wedge" fill="url(#hiddenPattern)" d=" M 675.3321456158128,580.2594000358897 L 690.0591349323778,629.9382135766955 A 285.2,285.2 0 0,1 690.0403928161984,629.9437688670127 L 675.316808605609,580.2639460297073 A 233.38428106112616,233.38428106112616 0 0 0 675.3321456158128,580.2594000358897 Z "/><path class="wedge" fill="rgb(223,188,159)" d=" M 671.8508344753425,570.1659321308341 L 689.48316203286,630.1082978076367 A 285.2,285.2 0 0,1 689.0642378657693,630.2311780104224 L 671.5236886125497,570.2618916221178 A 222.71811320048732,222.71811320048732 0 0 0 671.8508344753425,570.1659321308341 Z "/><path class="wedge" fill="url(#hiddenPattern)" d=" M 671.8508344753425,570.1659321308341 L 689.48316203286,630.1082978076367 A 285.2,285.2 0 0,1 689.0642378657693,630.2311780104224 L 671.5236886125497,570.2618916221178 A 222.71811320048732,222.71811320048732 0 0 0 671.8508344753425,570.1659321308341 Z "/><path class="wedge" fill="rgb(216,176,140)" d=" M 655.8330478290167,545.1222073096653 L 677.7256476828047,633.2956382434141 A 285.2,285.2 0 0,1 677.580185821546,633.3317144271628 L 655.7339229384509,545.1467914015722 A 194.34935415206644,194.34935415206644 0 0 0 655.8330478290167,545.1222073096653 Z "/><path class="wedge" fill="url(#hiddenPattern)" d=" M 655.8330478290167,545.1222073096653 L 677.7256476828047,633.2956382434141 A 285.2,285.2 0 0,1 677.580185821546,633.3317144271628 L 655.7339229384509,545.1467914015722 A 194.34935415206644,194.34935415206644 0 0 0 655.8330478290167,545.1222073096653 Z "/><path class="wedge" fill="rgb(216,176,140)" d=" M 650.2636095877664,526.4805404643112 L 676.2796799370353,633.6506533774909 A 285.2,285.2 0 0,1 621.9049395330751,641.4078842988513 L 616.9147877508468,531.2381633977247 A 174.91732222038766,174.91732222038766 0 0 0 650.2636095877664,526.4805404643112 Z "/><path class="wedge" fill="rgb(216,176,140)" d=" M 617.7955412346397,550.6502251188886 L 621.9071093190075,641.4077860098372 A 285.2,285.2 0 0,1 621.9049395330751,641.4078842988513 L 617.7940626354299,550.6502920978731 A 194.34935415206644,194.34935415206644 0 0 0 617.7955412346397,550.6502251188886 Z "/><path class="wedge" fill="rgb(219,183,149)" d=" M 654.8476940509136,545.3641321414397 L 676.2796799370353,633.6506533774909 A 285.2,285.2 0 0,1 621.908194211693,641.4077368591334 L 617.7962805340532,550.6501916251734 A 194.34935415206644,194.34935415206644 0 0 0 654.8476940509136,545.3641321414397 Z "/><path class="wedge" fill="rgb(219,183,149)" d=" M 618.5545337201804,566.2205031173432 L 621.979796714353,641.4044837787817 A 285.2,285.2 0 0,1 621.908194211693,641.4077368591334 L 618.5018265367652,566.2228977361958 A 209.9380350065267,209.9380350065267 0 0 0 618.5545337201804,566.2205031173432 Z "/><path class="wedge" fill="rgb(223,189,159)" d=" M 658.525118519808,560.5128456200752 L 676.2796799370353,633.6506533774909 A 285.2,285.2 0 0,1 622.0503135293451,641.4012623994246 L 618.6064417200905,566.2181318338501 A 209.9380350065267,209.9380350065267 0 0 0 658.525118519808,560.5128456200752 Z "/><path class="wedge" fill="rgb(223,189,159)" d=" M 619.1920856439331,578.9847845085408 L 622.0513983971887,641.4012127034173 A 285.2,285.2 0 0,1 622.0503135293451,641.4012623994246 L 619.1912384499668,578.9848233170995 A 222.71811320048732,222.71811320048732 0 0 0 619.1920856439331,578.9847845085408 Z "/><path class="wedge" fill="rgb(226,196,168)" d=" M 661.5399837738752,572.9322250789518 L 676.2796799370353,633.6506533774909 A 285.2,285.2 0 0,1 622.0524832648426,641.4011630032791 L 619.1929328377514,578.984745696756 A 222.71811320048732,222.71811320048732 0 0 0 661.5399837738752,572.9322250789518 Z "/><path class="wedge" fill="rgb(226,196,168)" d=" M 619.8275607982299,589.6329804501701 L 622.2314838240815,641.3929059064354 A 285.2,285.2 0 0,1 622.0524832648426,641.4011630032791 L 619.6810814264645,589.639737380782 A 233.38428106112616,233.38428106112616 0 0 0 619.8275607982299,589.6329804501701 Z "/><path class="wedge" fill="rgb(229,202,178)" d=" M 664.0561701687506,583.2973561855788 L 676.2796799370353,633.6506533774909 A 285.2,285.2 0 0,1 622.2412473413668,641.392452284796 L 619.8355504597386,589.6326092434372 A 233.38428106112616,233.38428106112616 0 0 0 664.0561701687506,583.2973561855788 Z "/><path class="wedge" fill="rgb(229,203,178)" d=" M 619.8355504597386,589.6326092434372 L 622.2412473413668,641.392452284796 A 285.2,285.2 0 0,1 622.2314838240815,641.3929059064354 L 619.8275607982299,589.6329804501701 A 233.38428106112616,233.38428106112616 0 0 0 619.8355504597386,589.6326092434372 Z "/><path class="wedge" fill="url(#hiddenPattern)" d=" M 619.8355504597386,589.6326092434372 L 622.2412473413668,641.392452284796 A 285.2,285.2 0 0,1 622.2314838240815,641.3929059064354 L 619.8275607982299,589.6329804501701 A 233.38428106112616,233.38428106112616 0 0 0 619.8355504597386,589.6326092434372 Z "/><path class="wedge" fill="rgb(223,190,159)" d=" M 619.1929328377514,578.984745696756 L 622.0524832648426,641.4011630032791 A 285.2,285.2 0 0,1 622.0513983971887,641.4012127034173 L 619.1920856439331,578.9847845085408 A 222.71811320048732,222.71811320048732 0 0 0 619.1929328377514,578.984745696756 Z "/><path class="wedge" fill="url(#hiddenPattern)" d=" M 619.1929328377514,578.984745696756 L 622.0524832648426,641.4011630032791 A 285.2,285.2 0 0,1 622.0513983971887,641.4012127034173 L 619.1920856439331,578.9847845085408 A 222.71811320048732,222.71811320048732 0 0 0 619.1929328377514,578.984745696756 Z "/><path class="wedge" fill="rgb(219,184,149)" d=" M 618.6064417200905,566.2181318338501 L 622.0503135293451,641.4012623994246 A 285.2,285.2 0 0,1 621.979796714353,641.4044837787817 L 618.5545337201804,566.2205031173432 A 209.9380350065267,209.9380350065267 0 0 0 618.6064417200905,566.2181318338501 Z "/><path class="wedge" fill="url(#hiddenPattern)" d=" M 618.6064417200905,566.2181318338501 L 622.0503135293451,641.4012623994246 A 285.2,285.2 0 0,1 621.979796714353,641.4044837787817 L 618.5545337201804,566.2205031173432 A 209.9380350065267,209.9380350065267 0 0 0 618.6064417200905,566.2181318338501 Z "/><path class="wedge" fill="rgb(216,177,140)" d=" M 617.7962805340532,550.6501916251734 L 621.908194211693,641.4077368591334 A 285.2,285.2 0 0,1 621.9071093190075,641.4077860098372 L 617.7955412346397,550.6502251188886 A 194.34935415206644,194.34935415206644 0 0 0 617.7962805340532,550.6501916251734 Z "/><path class="wedge" fill="url(#hiddenPattern)" d=" M 617.7962805340532,550.6501916251734 L 621.908194211693,641.4077368591334 A 285.2,285.2 0 0,1 621.9071093190075,641.4077860098372 L 617.7955412346397,550.6502251188886 A 194.34935415206644,194.34935415206644 0 0 0 617.7962805340532,550.6501916251734 Z "/><path class="wedge" fill="rgb(213,171,130)" d=" M 616.9147877508468,531.2381633977247 L 621.9049395330751,641.4078842988513 A 285.2,285.2 0 0,1 621.871307755489,641.4094056654912 L 616.8941608908298,531.239096474088 A 174.91732222038766,174.91732222038766 0 0 0 616.9147877508468,531.2381633977247 Z "/><path class="wedge" fill="url(#hiddenPattern)" d=" M 616.9147877508468,531.2381633977247 L 621.9049395330751,641.4078842988513 A 285.2,285.2 0 0,1 621.871307755489,641.4094056654912 L 616.8941608908298,531.239096474088 A 174.91732222038766,174.91732222038766 0 0 0 616.9147877508468,531.2381633977247 Z "/><path class="wedge" fill="rgb(210,165,121)" d=" M 615.6083926641859,506.38607175011714 L 621.5621040368136,641.4232063945797 A 285.2,285.2 0 0,1 620.9295468778291,641.4503920181365 L 615.2756310442486,506.4003729591151 A 150.03168118196012,150.03168118196012 0 0 0 615.6083926641859,506.38607175011714 Z "/><path class="wedge" fill="url(#hiddenPattern)" d=" M 615.6083926641859,506.38607175011714 L 621.5621040368136,641.4232063945797 A 285.2,285.2 0 0,1 620.9295468778291,641.4503920181365 L 615.2756310442486,506.4003729591151 A 150.03168118196012,150.03168118196012 0 0 0 615.6083926641859,506.38607175011714 Z "/><path class="wedge" fill="rgb(207,159,111)" d=" M 613.4198223631578,473.46282101219606 L 619.769527431924,641.4965916969763 A 285.2,285.2 0 0,1 619.7641012752729,641.4967966903062 L 613.4175954642837,473.4629051416167 A 117.04629993661861,117.04629993661861 0 0 0 613.4198223631578,473.46282101219606 Z "/><path class="wedge" fill="url(#hiddenPattern)" d=" M 613.4198223631578,473.46282101219606 L 619.769527431924,641.4965916969763 A 285.2,285.2 0 0,1 619.7641012752729,641.4967966903062 L 613.4175954642837,473.4629051416167 A 117.04629993661861,117.04629993661861 0 0 0 613.4198223631578,473.46282101219606 Z "/><path class="wedge" fill="rgb(101,204,204)" d=" M 611.6907540108687,427.7492094191437 L 619.7630160434745,641.4968376765748 A 285.2,285.2 0 0,1 610.9689123186242,641.6932036081532 L 609.492228079656,427.7983009020383 A 71.3,71.3 0 0 0 611.6907540108687,427.7492094191437 Z "/><path class="wedge" fill="url(#hiddenPattern)" d=" M 611.6907540108687,427.7492094191437 L 619.7630160434745,641.4968376765748 A 285.2,285.2 0 0,1 610.9689123186242,641.6932036081532 L 609.492228079656,427.7983009020383 A 71.3,71.3 0 0 0 611.6907540108687,427.7492094191437 Z "/><rect fill="rgb(101,204,204)" x="1335.305" y="650.9716666666667" width="22" height="22"/><rect fill="url(#hiddenPattern)" style="stroke:none" x="1335.305" y="650.9716666666667" width="22" height="22"/><path class="line" d="M 615.3667212793692,641.628926733418 L 616.4278414925975,689.150414522321 A 332.7333333333333,332.7333333333333 0 0,0 740.903494930953,661.9716666666667 L 953.6166666666667,661.9716666666667 L 1251.7504752604168,661.9716666666667"/><text x="1327.9716666666668" y="661.9716666666667" style="font-color:black;font-weight:normal" text-anchor="end">Viruses&#160;&#160;&#160;0.5%</text><circle cx="609" cy="356.5" r="71.3"/><circle cx="609" cy="356.5" r="285.2"/><text x="609" y="356.5" text-anchor="middle" style="font-color:black;font-weight:bold" transform="rotate(360,609,356.5)">root</text><rect fill="rgb(220,220,220)" x="1335.305" y="680.305" width="22" height="22"/><path class="line" d="M 609.9844620243275,641.6983008969771 L 610.1895582793958,701.1146135838472 A 344.6166666666666,344.6166666666666 0 0,0 690.6471611229958,691.305 L 942.6166666666667,691.305 L 1235.0356315104168,691.305"/><text x="1327.9716666666668" y="691.305" style="font-color:black;font-weight:normal" text-anchor="end">[other root]&#160;&#160;&#160;0.1%</text><path class="line" d=" M 611.6907540108687,427.7492094191437 A 71.3,71.3 0 1 0 609,427.8"/><line x1="619.7630160434745" y1="641.4968376765748" x2="611.6907540108687" y2="427.7492094191437"/><text x="609" y="271.4761100190144" text-anchor="middle" style="font-color:black;font-weight:normal" transform="rotate(358.9186152428016,609,356.5)">cellular organisms</text><path class="line" d=" M 613.4198223631578,473.46282101219606 A 117.04629993661861,117.04629993661861 0 1 0 609,473.5462999366186"/><line x1="619.769527431924" y1="641.4965916969763" x2="613.4198223631578" y2="473.46282101219606"/><text x="609" y="229.55808568977895" text-anchor="middle" style="font-color:black;font-weight:normal" transform="rotate(358.9179607175778,609,356.5)">Bacteria</text><path class="line" d=" M 615.6083926641859,506.38607175011714 A 150.03168118196012,150.03168118196012 0 1 0 609,506.53168118196015"/><line x1="621.5621040368136" y1="641.4232063945797" x2="615.6083926641859" y2="506.38607175011714"/><text x="609" y="194.0254982988261" text-anchor="middle" style="font-color:black;font-weight:normal" transform="rotate(358.7377481059676,609,356.5)">Terrabacteria group</text><path class="line" d=" M 650.2636095877664,526.4805404643112 A 174.91732222038766,174.91732222038766 0 1 0 609,531.4173222203876"/><line x1="676.2796799370353" y1="633.6506533774909" x2="650.2636095877664" y2="526.4805404643112"/><text x="609" y="171.86666181377294" text-anchor="middle" style="font-color:black;font-weight:normal" transform="rotate(353.17755633007704,609,356.5)">Firmicutes</text><path class="line" d=" M 655.8330478290167,545.1222073096653 A 194.34935415206644,194.34935415206644 0 1 0 609,550.8493541520664"/><line x1="677.7256476828047" y1="633.2956382434141" x2="655.8330478290167" y2="545.1222073096653"/><text x="609" y="154.35630542070345" text-anchor="middle" style="font-color:black;font-weight:normal" transform="rotate(353.0279973164466,609,356.5)">Bacilli</text><path class="line" d=" M 817.7536357546718,378.7687696473662 A 209.9380350065267,209.9380350065267 0 1 0 609,566.4380350065267"/><line x1="892.590998245656" y1="386.75203652702277" x2="817.7536357546718" y2="378.7687696473662"/><path class="line" d=" M 830.752772558033,377.21390379456165 A 222.71811320048732,222.71811320048732 0 1 0 609,579.2181132004873"/><line x1="892.9638403214195" y1="383.0250332688076" x2="830.752772558033" y2="377.21390379456165"/><path class="line" d=" M 841.4590613501689,377.2607187403787 A 233.38428106112616,233.38428106112616 0 1 0 609,589.8842810611261"/><line x1="893.06936403615" y1="381.86999046309046" x2="841.4590613501689" y2="377.2607187403787"/><text x="349.7078594694369" y="356.5" text-anchor="end" style="font-color:black;font-weight:normal" transform="rotate(47.55174840050398,609,356.5)">Enterococcus&#160;&#160;&#160;76%</text><path class="line" d=" M 841.4539157075,377.3182544577887 A 233.38428106112616,233.38428106112616 0 0 0 841.4590613501689,377.2607187403787"/><line x1="893.0630759636092" y1="381.9403001965941" x2="841.4539157075" y2="377.3182544577887"/><path class="line" d=" M 830.6174092437232,378.6151954023744 A 222.71811320048732,222.71811320048732 0 0 0 830.752772558033,377.21390379456165"/><line x1="892.7905018502624" y1="384.81944666790304" x2="830.6174092437232" y2="378.6151954023744"/><path class="line" d=" M 667.7218337583311,558.0582416634471 A 209.9380350065267,209.9380350065267 0 0 0 817.7536357546718,378.7687696473662"/><line x1="688.7733816426135" y1="630.3160834963899" x2="667.7218337583311" y2="558.0582416634471"/><path class="line" d=" M 671.8508344753425,570.1659321308341 A 222.71811320048732,222.71811320048732 0 0 0 830.4616130782441,380.12439164014984"/><line x1="689.48316203286" y1="630.1082978076367" x2="671.8508344753425" y2="570.1659321308341"/><path class="line" d=" M 675.3321456158128,580.2594000358897 A 233.38428106112616,233.38428106112616 0 0 0 841.067606034255,381.2557846966835"/><line x1="690.0591349323778" y1="629.9382135766955" x2="675.3321456158128" y2="580.2594000358897"/><text x="868.2921405305631" y="356.5" text-anchor="start" style="font-color:black;font-weight:normal" transform="rotate(399.7884247214177,609,356.5)">19%&#160;&#160;&#160;Staphylococcus</text><path class="line" d=" M 675.316808605609,580.2639460297073 A 233.38428106112616,233.38428106112616 0 0 0 675.3321456158128,580.2594000358897"/><line x1="690.0403928161984" y1="629.9437688670127" x2="675.316808605609" y2="580.2639460297073"/><path class="line" d=" M 671.5236886125497,570.2618916221178 A 222.71811320048732,222.71811320048732 0 0 0 671.8508344753425,570.1659321308341"/><line x1="689.0642378657693" y1="630.2311780104224" x2="671.5236886125497" y2="570.2618916221178"/><path class="line" d=" M 655.7339229384509,545.1467914015722 A 194.34935415206644,194.34935415206644 0 0 0 655.8330478290167,545.1222073096653"/><line x1="677.580185821546" y1="633.3317144271628" x2="655.7339229384509" y2="545.1467914015722"/><path class="line" d=" M 616.9147877508468,531.2381633977247 A 174.91732222038766,174.91732222038766 0 0 0 650.2636095877664,526.4805404643112"/><line x1="621.9049395330751" y1="641.4078842988513" x2="616.9147877508468" y2="531.2381633977247"/><text x="609" y="541.1333381862271" text-anchor="middle" style="font-color:black;font-weight:normal" transform="rotate(351.8808327742597,609,356.5)">Actinobacteria</text><path class="line" d=" M 617.7962805340532,550.6501916251734 A 194.34935415206644,194.34935415206644 0 0 0 654.8476940509136,545.3641321414397"/><line x1="621.908194211693" y1="641.4077368591334" x2="617.7962805340532" y2="550.6501916251734"/><text x="609" y="558.6436945792966" text-anchor="middle" style="font-color:black;font-weight:normal" transform="rotate(351.8805055116478,609,356.5)">Actinobacteria</text><path class="line" d=" M 618.6064417200905,566.2181318338501 A 209.9380350065267,209.9380350065267 0 0 0 658.525118519808,560.5128456200752"/><line x1="622.0503135293451" y1="641.4012623994246" x2="618.6064417200905" y2="566.2181318338501"/><path class="line" d=" M 619.1929328377514,578.984745696756 A 222.71811320048732,222.71811320048732 0 0 0 661.5399837738752,572.9322250789518"/><line x1="622.0524832648426" y1="641.4011630032791" x2="619.1929328377514" y2="578.984745696756"/><path class="line" d=" M 619.8355504597386,589.6326092434372 A 233.38428106112616,233.38428106112616 0 0 0 664.0561701687506,583.2973561855788"/><line x1="622.2412473413668" y1="641.392452284796" x2="619.8355504597386" y2="589.6326092434372"/><text x="868.2921405305631" y="356.5" text-anchor="start" style="font-color:black;font-weight:normal" transform="rotate(441.84701563769846,609,356.5)">3%&#160;&#160;&#160;Cutibacterium</text><path class="line" d=" M 619.8275607982299,589.6329804501701 A 233.38428106112616,233.38428106112616 0 0 0 619.8355504597386,589.6326092434372"/><line x1="622.2314838240815" y1="641.3929059064354" x2="619.8275607982299" y2="589.6329804501701"/><path class="line" d=" M 619.1920856439331,578.9847845085408 A 222.71811320048732,222.71811320048732 0 0 0 619.1929328377514,578.984745696756"/><line x1="622.0513983971887" y1="641.4012127034173" x2="619.1920856439331" y2="578.9847845085408"/><path class="line" d=" M 618.5545337201804,566.2205031173432 A 209.9380350065267,209.9380350065267 0 0 0 618.6064417200905,566.2181318338501"/><line x1="621.979796714353" y1="641.4044837787817" x2="618.5545337201804" y2="566.2205031173432"/><path class="line" d=" M 617.7955412346397,550.6502251188886 A 194.34935415206644,194.34935415206644 0 0 0 617.7962805340532,550.6501916251734"/><line x1="621.9071093190075" y1="641.4077860098372" x2="617.7955412346397" y2="550.6502251188886"/><path class="line" d=" M 616.8941608908298,531.239096474088 A 174.91732222038766,174.91732222038766 0 0 0 616.9147877508468,531.2381633977247"/><line x1="621.871307755489" y1="641.4094056654912" x2="616.8941608908298" y2="531.239096474088"/><path class="line" d=" M 615.2756310442486,506.4003729591151 A 150.03168118196012,150.03168118196012 0 0 0 615.6083926641859,506.38607175011714"/><line x1="620.9295468778291" y1="641.4503920181365" x2="615.2756310442486" y2="506.4003729591151"/><path class="line" d=" M 613.4175954642837,473.4629051416167 A 117.04629993661861,117.04629993661861 0 0 0 613.4198223631578,473.46282101219606"/><line x1="619.7641012752729" y1="641.4967966903062" x2="613.4175954642837" y2="473.4629051416167"/><path class="line" d=" M 609.492228079656,427.7983009020383 A 71.3,71.3 0 0 0 611.6907540108687,427.7492094191437"/><line x1="610.9689123186242" y1="641.6932036081532" x2="609.492228079656" y2="427.7983009020383"/></svg>