<?xml version="1.0" standalone="no"?><!DOCTYPE svg PUBLIC "-//W3C//DTD SVG 1.1//EN" 	"http://www.w3.org/Graphics/SVG/1.1/DTD/svg11.dtd"><svg width="1368" height="770" version="1.1"	xmlns="http://www.w3.org/2000/svg"><title>Krona (snapshot) - root</title><defs>	<style type="text/css">	text {font-size: 11px; font-family: sans-serif; dominant-baseline:central}	path {stroke-width:0.27499999999999997;}	path.wedge {stroke:none}	path.line {fill:none;stroke:black;}	line {stroke:black;stroke-width:0.27499999999999997;}	line.tick {stroke-width:0.5499999999999999;}	line.pattern {stroke-width:0.18333333333333332;}	circle {fill:none;stroke:black;stroke-width:0.27499999999999997;}	rect {stroke:black;stroke-width:0.27499999999999997;}	.highlight {stroke:black;stroke-width:1.375;}	.searchHighlight {fill:rgb(255, 255, 100);stroke:none;}	</style><pattern id="hiddenPattern" patternUnits="userSpaceOnUse" x="0" y="0" width="6.6" height="6.6"><line class="pattern" x1="0" y1="0" x2="3.3" y2="3.3"/><line class="pattern" x1="3.3" y1="6.6" x2="6.6" y2="3.3"/></pattern></defs><path class="wedge" fill="rgb(220,220,220)" d=" M 609.4354696600275,461.99876860168087 L 610.74187864011,692.9950744067235 A 308,308 0 0,1 609.0000000000001,693 L 609,462 A 77,77 0 0 0 609.4354696600275,461.99876860168087 Z "/><path class="wedge" fill="rgb(207,111,111)" d=" M 609,462 L 609,693 A 308,308 0 1,1 620.2939506447772,692.7928632681942 L 611.8234876611942,461.94821581704855 A 77,77 0 1 0 609,462 Z "/><path class="wedge" fill="rgb(207,111,111)" d=" M 613.636007549798,511.3183931605802 L 620.2962934660759,692.7927772933086 A 308,308 0 0,1 620.2939506447772,692.7928632681942 L 613.6350460541303,511.31842844473954 A 126.40343751920945,126.40343751920945 0 0 0 613.636007549798,511.3183931605802 Z "/><path class="wedge" fill="rgb(210,121,121)" d=" M 609,511.40343751920943 L 609,693 A 308,308 0 1,1 620.2986362867199,692.7926913005901 L 613.636969045197,511.3183578691022 A 126.40343751920945,126.40343751920945 0 1 0 609,511.40343751920943 Z "/><path class="wedge" fill="rgb(210,121,121)" d=" M 615.6985493442961,546.8872721923356 L 621.7334857407634,692.7366704520113 A 308,308 0 0,1 620.2986362867199,692.7926913005901 L 614.9437356141658,546.9167423960296 A 162.02579875190645,162.02579875190645 0 0 0 615.6985493442961,546.8872721923356 Z "/><path class="wedge" fill="rgb(213,130,130)" d=" M 609,547.0257987519064 L 609,693 A 308,308 0 1,1 622.3178897059553,692.7119331676626 L 616.0059796016143,546.874258951246 A 162.02579875190645,162.02579875190645 0 1 0 609,547.0257987519064 Z "/><path class="wedge" fill="rgb(213,130,130)" d=" M 617.3346879434055,573.7169337798821 L 622.5895803302103,692.7000541216214 A 308,308 0 0,1 622.3178897059553,692.7119331676626 L 617.1680561184859,573.7242193721823 A 188.900894964514,188.900894964514 0 0 0 617.3346879434055,573.7169337798821 Z "/><path class="wedge" fill="rgb(216,140,140)" d=" M 609,573.900894964514 L 609,693 A 308,308 0 1,1 893.7139943539628,502.48166418216795 L 783.6192478648868,457.05321917510395 A 188.900894964514,188.900894964514 0 1 0 609,573.900894964514 Z "/><path class="wedge" fill="rgb(216,140,140)" d=" M 803.3600642898641,464.2241504726717 L 894.2157167041445,501.2583112940369 A 308,308 0 0,1 893.7139943539628,502.48166418216795 L 803.0181659212755,465.05780350110206 A 209.88639929465802,209.88639929465802 0 0 0 803.3600642898641,464.2241504726717 Z "/><path class="wedge" fill="rgb(219,149,149)" d=" M 609,594.8863992946581 L 609,693 A 308,308 0 1,1 894.307217549084,501.033579684502 L 803.4224174810224,464.0710072637984 A 209.88639929465802,209.88639929465802 0 1 0 609,594.8863992946581 Z "/><path class="wedge" fill="rgb(219,149,149)" d=" M 821.6693851796776,463.5765901269725 L 897.910528534567,491.7459905658156 A 308,308 0 0,1 894.307217549084,501.033579684502 L 819.0169587147066,470.41325986584 A 226.7213000771747,226.7213000771747 0 0 0 821.6693851796776,463.5765901269725 Z "/><path class="wedge" fill="rgb(223,159,159)" d=" M 609,611.7213000771746 L 609,693 A 308,308 0 1,1 829.5163226179321,169.9731378197969 L 771.3238550395301,226.7169813473665 A 226.7213000771747,226.7213000771747 0 1 0 609,611.7213000771746 Z "/><path class="wedge" fill="rgb(223,159,159)" d=" M 780.2780542756327,216.135633871317 L 828.3288205321577,168.76200961909456 A 308,308 0 0,1 829.5163226179321,169.9731378197969 L 781.2053972769138,217.08142695583427 A 240.52306755171844,240.52306755171844 0 0 0 780.2780542756327,216.135633871317 Z "/><path class="wedge" fill="rgb(226,168,168)" d=" M 609,625.5230675517184 L 609,693 A 308,308 0 1,1 827.2339502154867,167.65708437277175 L 779.4230491875255,215.2727766970933 A 240.52306755171844,240.52306755171844 0 1 0 609,625.5230675517184 Z "/><path class="wedge" fill="rgb(226,168,168)" d=" M 787.0532839524284,206.61232446406507 L 826.5844763509692,167.0068908174516 A 308,308 0 0,1 827.2339502154867,167.65708437277175 L 787.5847600777383,207.14438952528164 A 252.04193045871972,252.04193045871972 0 0 0 787.0532839524284,206.61232446406507 Z "/><path class="wedge" fill="rgb(229,178,178)" d=" M 609,637.0419304587197 L 609,693 A 308,308 0 1,1 826.5662233500466,166.98867355754737 L 787.0383471940219,206.59741695317567 A 252.04193045871972,252.04193045871972 0 1 0 609,637.0419304587197 Z "/><path class="wedge" fill="rgb(229,193,178)" d=" M 787.0383471940219,206.59741695317567 L 826.5662233500466,166.98867355754737 A 308,308 0 0,1 826.5844763509692,167.0068908174516 L 787.0532839524284,206.61232446406507 A 252.04193045871972,252.04193045871972 0 0 0 787.0383471940219,206.59741695317567 Z "/><path class="wedge" fill="url(#hiddenPattern)" d=" M 787.0383471940219,206.59741695317567 L 826.5662233500466,166.98867355754737 A 308,308 0 0,1 826.5844763509692,167.0068908174516 L 787.0532839524284,206.61232446406507 A 252.04193045871972,252.04193045871972 0 0 0 787.0383471940219,206.59741695317567 Z "/><path class="wedge" fill="rgb(223,178,159)" d=" M 779.4230491875255,215.2727766970933 L 827.2339502154867,167.65708437277175 A 308,308 0 0,1 828.3288205321577,168.76200961909456 L 780.2780542756327,216.135633871317 A 240.52306755171844,240.52306755171844 0 0 0 779.4230491875255,215.2727766970933 Z "/><path class="wedge" fill="url(#hiddenPattern)" d=" M 779.4230491875255,215.2727766970933 L 827.2339502154867,167.65708437277175 A 308,308 0 0,1 828.3288205321577,168.76200961909456 L 780.2780542756327,216.135633871317 A 240.52306755171844,240.52306755171844 0 0 0 779.4230491875255,215.2727766970933 Z "/><path class="wedge" fill="rgb(223,178,159)" d=" M 771.3238550395301,226.7169813473665 L 829.5163226179321,169.9731378197969 A 308,308 0 0,1 897.910528534567,491.7459905658156 L 821.6693851796776,463.5765901269725 A 226.7213000771747,226.7213000771747 0 0 0 771.3238550395301,226.7169813473665 Z "/><path class="wedge" fill="rgb(223,178,159)" d=" M 834.6883012859556,468.16331334878515 L 898.0034519501025,491.4941536466897 A 308,308 0 0,1 897.910528534567,491.7459905658156 L 834.615735620527,468.35997759654794 A 240.52306755171844,240.52306755171844 0 0 0 834.6883012859556,468.16331334878515 Z "/><path class="wedge" fill="rgb(226,186,168)" d=" M 781.2053972769138,217.08142695583427 L 829.5163226179321,169.9731378197969 A 308,308 0 0,1 898.1115177833299,491.2004250698619 L 834.7726919538302,467.93393510746625 A 240.52306755171844,240.52306755171844 0 0 0 781.2053972769138,217.08142695583427 Z "/><path class="wedge" fill="rgb(226,186,168)" d=" M 845.716842469381,471.5463529022704 L 898.2724529917477,490.76127807537625 A 308,308 0 0,1 898.1115177833299,491.2004250698619 L 845.5851462985745,471.9057147731968 A 252.04193045871972,252.04193045871972 0 0 0 845.716842469381,471.5463529022704 Z "/><path class="wedge" fill="rgb(229,193,178)" d=" M 789.4524663970177,209.03965764811863 L 829.5163226179321,169.9731378197969 A 308,308 0 0,1 898.2788926257924,490.7436630781971 L 845.7221121375501,471.5319382337832 A 252.04193045871972,252.04193045871972 0 0 0 789.4524663970177,209.03965764811863 Z "/><path class="wedge" fill="rgb(229,198,178)" d=" M 845.7221121375501,471.5319382337832 L 898.2788926257924,490.7436630781971 A 308,308 0 0,1 898.2724529917477,490.76127807537625 L 845.716842469381,471.5463529022704 A 252.04193045871972,252.04193045871972 0 0 0 845.7221121375501,471.5319382337832 Z "/><path class="wedge" fill="url(#hiddenPattern)" d=" M 845.7221121375501,471.5319382337832 L 898.2788926257924,490.7436630781971 A 308,308 0 0,1 898.2724529917477,490.76127807537625 L 845.716842469381,471.5463529022704 A 252.04193045871972,252.04193045871972 0 0 0 845.7221121375501,471.5319382337832 Z "/><path class="wedge" fill="rgb(223,184,159)" d=" M 834.7726919538302,467.93393510746625 L 898.1115177833299,491.2004250698619 A 308,308 0 0,1 898.0034519501025,491.4941536466897 L 834.6883012859556,468.16331334878515 A 240.52306755171844,240.52306755171844 0 0 0 834.7726919538302,467.93393510746625 Z "/><path class="wedge" fill="url(#hiddenPattern)" d=" M 834.7726919538302,467.93393510746625 L 898.1115177833299,491.2004250698619 A 308,308 0 0,1 898.0034519501025,491.4941536466897 L 834.6883012859556,468.16331334878515 A 240.52306755171844,240.52306755171844 0 0 0 834.7726919538302,467.93393510746625 Z "/><path class="wedge" fill="rgb(216,170,140)" d=" M 803.4224174810224,464.0710072637984 L 894.307217549084,501.033579684502 A 308,308 0 0,1 894.2157167041445,501.2583112940369 L 803.3600642898641,464.2241504726717 A 209.88639929465802,209.88639929465802 0 0 0 803.4224174810224,464.0710072637984 Z "/><path class="wedge" fill="url(#hiddenPattern)" d=" M 803.4224174810224,464.0710072637984 L 894.307217549084,501.033579684502 A 308,308 0 0,1 894.2157167041445,501.2583112940369 L 803.3600642898641,464.2241504726717 A 209.88639929465802,209.88639929465802 0 0 0 803.4224174810224,464.0710072637984 Z "/><path class="wedge" fill="rgb(216,170,140)" d=" M 783.6192478648868,457.05321917510395 L 893.7139943539628,502.48166418216795 A 308,308 0 0,1 622.632909326384,692.698137438787 L 617.361262249104,573.7157582503276 A 188.900894964514,188.900894964514 0 0 0 783.6192478648868,457.05321917510395 Z "/><path class="wedge" fill="rgb(216,170,140)" d=" M 618.2965212641169,594.6804122975307 L 622.6422777224749,692.6977222186457 A 308,308 0 0,1 622.632909326384,692.698137438787 L 618.2901371767056,594.6806952490253 A 209.88639929465802,209.88639929465802 0 0 0 618.2965212641169,594.6804122975307 Z "/><path class="wedge" fill="rgb(219,177,149)" d=" M 803.0181659212755,465.05780350110206 L 893.7139943539628,502.48166418216795 A 308,308 0 0,1 622.6481329636105,692.6974625612106 L 618.3005113143731,594.6802353541407 A 209.88639929465802,209.88639929465802 0 0 0 803.0181659212755,465.05780350110206 Z "/><path class="wedge" fill="rgb(219,177,149)" d=" M 619.3775054245014,611.4836755482584 L 623.097800558035,692.6771880062379 A 308,308 0 0,1 622.6481329636105,692.6974625612106 L 619.0465014582335,611.4985998127449 A 226.7213000771747,226.7213000771747 0 0 0 619.3775054245014,611.4836755482584 Z "/><path class="wedge" fill="rgb(223,184,159)" d=" M 818.5802823055059,471.47920661886747 L 893.7139943539628,502.48166418216795 A 308,308 0 0,1 623.2511959443801,692.6701210942572 L 619.4904210135209,611.4784735369863 A 226.7213000771747,226.7213000771747 0 0 0 818.5802823055059,471.47920661886747 Z "/><path class="wedge" fill="rgb(223,184,159)" d=" M 620.1381745194409,625.2650351026195 L 623.2629053708129,692.6695784935248 A 308,308 0 0,1 623.2511959443801,692.6701210942572 L 620.1290304052692,625.2654588298682 A 240.52306755171844,240.52306755171844 0 0 0 620.1381745194409,625.2650351026195 Z "/><path class="wedge" fill="rgb(226,191,168)" d=" M 831.3385821328499,476.74366964342823 L 893.7139943539628,502.48166418216795 A 308,308 0 0,1 623.2652472536207,692.6694699199013 L 620.1400033403396,625.2649503154086 A 240.52306755171844,240.52306755171844 0 0 0 831.3385821328499,476.74366964342823 Z "/><path class="wedge" fill="rgb(226,191,168)" d=" M 621.6469517225947,636.72443131624 L 624.4548139012812,692.6120100504477 A 308,308 0 0,1 623.2652472536207,692.6694699199013 L 620.6735079749141,636.7714517591653 A 252.04193045871972,252.04193045871972 0 0 0 621.6469517225947,636.72443131624 Z "/><path class="wedge" fill="rgb(229,198,178)" d=" M 841.9865739142396,481.13735530511894 L 893.7139943539628,502.48166418216795 A 308,308 0 0,1 624.4981304809363,692.6098307135126 L 621.6823984575204,636.7226479256938 A 252.04193045871972,252.04193045871972 0 0 0 841.9865739142396,481.13735530511894 Z "/><path class="wedge" fill="rgb(229,203,178)" d=" M 621.6823984575204,636.7226479256938 L 624.4981304809363,692.6098307135126 A 308,308 0 0,1 624.4548139012812,692.6120100504477 L 621.6469517225947,636.72443131624 A 252.04193045871972,252.04193045871972 0 0 0 621.6823984575204,636.7226479256938 Z "/><path class="wedge" fill="url(#hiddenPattern)" d=" M 621.6823984575204,636.7226479256938 L 624.4981304809363,692.6098307135126 A 308,308 0 0,1 624.4548139012812,692.6120100504477 L 621.6469517225947,636.72443131624 A 252.04193045871972,252.04193045871972 0 0 0 621.6823984575204,636.7226479256938 Z "/><path class="wedge" fill="rgb(223,190,159)" d=" M 620.1400033403396,625.2649503154086 L 623.2652472536207,692.6694699199013 A 308,308 0 0,1 623.2629053708129,692.6695784935248 L 620.1381745194409,625.2650351026195 A 240.52306755171844,240.52306755171844 0 0 0 620.1400033403396,625.2649503154086 Z "/><path class="wedge" fill="url(#hiddenPattern)" d=" M 620.1400033403396,625.2649503154086 L 623.2652472536207,692.6694699199013 A 308,308 0 0,1 623.2629053708129,692.6695784935248 L 620.1381745194409,625.2650351026195 A 240.52306755171844,240.52306755171844 0 0 0 620.1400033403396,625.2649503154086 Z "/><path class="wedge" fill="rgb(219,184,149)" d=" M 619.4904210135209,611.4784735369863 L 623.2511959443801,692.6701210942572 A 308,308 0 0,1 623.097800558035,692.6771880062379 L 619.3775054245014,611.4836755482584 A 226.7213000771747,226.7213000771747 0 0 0 619.4904210135209,611.4784735369863 Z "/><path class="wedge" fill="url(#hiddenPattern)" d=" M 619.4904210135209,611.4784735369863 L 623.2511959443801,692.6701210942572 A 308,308 0 0,1 623.097800558035,692.6771880062379 L 619.3775054245014,611.4836755482584 A 226.7213000771747,226.7213000771747 0 0 0 619.4904210135209,611.4784735369863 Z "/><path class="wedge" fill="rgb(216,177,140)" d=" M 618.3005113143731,594.6802353541407 L 622.6481329636105,692.6974625612106 A 308,308 0 0,1 622.6422777224749,692.6977222186457 L 618.2965212641169,594.6804122975307 A 209.88639929465802,209.88639929465802 0 0 0 618.3005113143731,594.6802353541407 Z "/><path class="wedge" fill="url(#hiddenPattern)" d=" M 618.3005113143731,594.6802353541407 L 622.6481329636105,692.6974625612106 A 308,308 0 0,1 622.6422777224749,692.6977222186457 L 618.2965212641169,594.6804122975307 A 209.88639929465802,209.88639929465802 0 0 0 618.3005113143731,594.6802353541407 Z "/><path class="wedge" fill="rgb(213,171,130)" d=" M 617.361262249104,573.7157582503276 L 622.632909326384,692.698137438787 A 308,308 0 0,1 622.5895803302103,692.7000541216214 L 617.3346879434055,573.7169337798821 A 188.900894964514,188.900894964514 0 0 0 617.361262249104,573.7157582503276 Z "/><path class="wedge" fill="url(#hiddenPattern)" d=" M 617.361262249104,573.7157582503276 L 622.632909326384,692.698137438787 A 308,308 0 0,1 622.5895803302103,692.7000541216214 L 617.3346879434055,573.7169337798821 A 188.900894964514,188.900894964514 0 0 0 617.361262249104,573.7157582503276 Z "/><path class="wedge" fill="rgb(210,165,121)" d=" M 616.0059796016143,546.874258951246 L 622.3178897059553,692.7119331676626 A 308,308 0 0,1 621.7334857407634,692.7366704520113 L 615.6985493442961,546.8872721923356 A 162.02579875190645,162.02579875190645 0 0 0 616.0059796016143,546.874258951246 Z "/><path class="wedge" fill="url(#hiddenPattern)" d=" M 616.0059796016143,546.874258951246 L 622.3178897059553,692.7119331676626 A 308,308 0 0,1 621.7334857407634,692.7366704520113 L 615.6985493442961,546.8872721923356 A 162.02579875190645,162.02579875190645 0 0 0 616.0059796016143,546.874258951246 Z "/><path class="wedge" fill="rgb(207,159,111)" d=" M 613.636969045197,511.3183578691022 L 620.2986362867199,692.7926913005901 A 308,308 0 0,1 620.2962934660759,692.7927772933086 L 613.636007549798,511.3183931605802 A 126.40343751920945,126.40343751920945 0 0 0 613.636969045197,511.3183578691022 Z "/><path class="wedge" fill="url(#hiddenPattern)" d=" M 613.636969045197,511.3183578691022 L 620.2986362867199,692.7926913005901 A 308,308 0 0,1 620.2962934660759,692.7927772933086 L 613.636007549798,511.3183931605802 A 126.40343751920945,126.40343751920945 0 0 0 613.636969045197,511.3183578691022 Z "/><path class="wedge" fill="rgb(101,204,204)" d=" M 611.8234876611942,461.94821581704855 L 620.2939506447772,692.7928632681942 A 308,308 0 0,1 610.74187864011,692.9950744067235 L 609.4354696600275,461.99876860168087 A 77,77 0 0 0 611.8234876611942,461.94821581704855 Z "/><path class="wedge" fill="url(#hiddenPattern)" d=" M 611.8234876611942,461.94821581704855 L 620.2939506447772,692.7928632681942 A 308,308 0 0,1 610.74187864011,692.9950744067235 L 609.4354696600275,461.99876860168087 A 77,77 0 0 0 611.8234876611942,461.94821581704855 Z "/><rect fill="rgb(101,204,204)" x="1334.45" y="707.1166666666668" width="22" height="22"/><rect fill="url(#hiddenPattern)" style="stroke:none" x="1334.45" y="707.1166666666668" width="22" height="22"/><path class="line" d="M 615.5186987675697,692.931009426426 L 616.6051485621646,744.2528443308304 A 359.3333333333333,359.3333333333333 0 0,0 743.7357815627802,718.1166666666668 L 981.1666666666666,718.1166666666668 L 1250.8954752604168,718.1166666666668"/><text x="1327.1166666666668" y="718.1166666666668" style="font-color:black;font-weight:normal" text-anchor="end">Viruses&#160;&#160;&#160;0.5%</text><circle cx="609" cy="385" r="77"/><circle cx="609" cy="385" r="308"/><text x="609" y="385" text-anchor="middle" style="font-color:black;font-weight:bold" transform="rotate(360,609,385)">root</text><rect fill="rgb(220,220,220)" x="1334.45" y="736.45" width="22" height="22"/><path class="line" d="M 609.8709428021318,692.9987685992193 L 610.0523892192426,757.1651787240567 A 372.1666666666667,372.1666666666667 0 0,0 693.4868349376267,747.45 L 970.1666666666666,747.45 L 1228.0629557291668,747.45"/><text x="1327.1166666666668" y="747.45" style="font-color:black;font-weight:normal" text-anchor="end">[other root]&#160;&#160;&#160;0.09%</text><path class="line" d=" M 611.8234876611942,461.94821581704855 A 77,77 0 1 0 609,462"/><line x1="620.2939506447772" y1="692.7928632681942" x2="611.8234876611942" y2="461.94821581704855"/><text x="609" y="293.1789687442372" text-anchor="middle" style="font-color:black;font-weight:normal" transform="rotate(358.94928440420324,609,385)">cellular organisms</text><path class="line" d=" M 613.636969045197,511.3183578691022 A 126.40343751920945,126.40343751920945 0 1 0 609,511.40343751920943"/><line x1="620.2986362867199" y1="692.7926913005901" x2="613.636969045197" y2="511.3183578691022"/><text x="609" y="247.90985411098146" text-anchor="middle" style="font-color:black;font-weight:normal" transform="rotate(358.94884828690704,609,385)">Bacteria</text><path class="line" d=" M 616.0059796016143,546.874258951246 A 162.02579875190645,162.02579875190645 0 1 0 609,547.0257987519064"/><line x1="622.3178897059553" y1="692.7119331676626" x2="616.0059796016143" y2="546.874258951246"/><text x="609" y="214.9116723843113" text-anchor="middle" style="font-color:black;font-weight:normal" transform="rotate(358.76088173225793,609,385)">Terrabacteria group</text><path class="line" d=" M 783.6192478648868,457.05321917510395 A 188.900894964514,188.900894964514 0 1 0 609,573.900894964514"/><line x1="893.7139943539628" y1="502.48166418216795" x2="783.6192478648868" y2="457.05321917510395"/><text x="609" y="185.60635287041396" text-anchor="middle" style="font-color:black;font-weight:normal" transform="rotate(326.21126733263395,609,385)">Firmicutes</text><path class="line" d=" M 803.4224174810224,464.0710072637984 A 209.88639929465802,209.88639929465802 0 1 0 609,594.8863992946581"/><line x1="894.307217549084" y1="501.033579684502" x2="803.4224174810224" y2="464.0710072637984"/><text x="609" y="166.69615031408367" text-anchor="middle" style="font-color:black;font-weight:normal" transform="rotate(326.0657131850373,609,385)">Bacilli</text><path class="line" d=" M 771.3238550395301,226.7169813473665 A 226.7213000771747,226.7213000771747 0 1 0 609,611.7213000771746"/><line x1="829.5163226179321" y1="169.9731378197969" x2="771.3238550395301" y2="226.7169813473665"/><text x="609" y="151.3778161855534" text-anchor="middle" style="font-color:black;font-weight:normal" transform="rotate(292.86105060656644,609,385)">Lactobacillales</text><path class="line" d=" M 779.4230491875255,215.2727766970933 A 240.52306755171844,240.52306755171844 0 1 0 609,625.5230675517184"/><line x1="827.2339502154867" y1="167.65708437277175" x2="779.4230491875255" y2="215.2727766970933"/><path class="line" d=" M 787.0383471940219,206.59741695317567 A 252.04193045871972,252.04193045871972 0 1 0 609,637.0419304587197"/><line x1="826.5662233500466" y1="166.98867355754737" x2="787.0383471940219" y2="206.59741695317567"/><text x="328.97903477064017" y="385" text-anchor="end" style="font-color:black;font-weight:normal" transform="rotate(22.47072562649461,609,385)">Enterococcus&#160;&#160;&#160;62%</text><path class="line" d=" M 787.0532839524284,206.61232446406507 A 252.04193045871972,252.04193045871972 0 0 0 787.0383471940219,206.59741695317567"/><line x1="826.5844763509692" y1="167.0068908174516" x2="787.0532839524284" y2="206.61232446406507"/><path class="line" d=" M 780.2780542756327,216.135633871317 A 240.52306755171844,240.52306755171844 0 0 0 779.4230491875255,215.2727766970933"/><line x1="828.3288205321577" y1="168.76200961909456" x2="780.2780542756327" y2="216.135633871317"/><path class="line" d=" M 821.6693851796776,463.5765901269725 A 226.7213000771747,226.7213000771747 0 0 0 771.3238550395301,226.7169813473665"/><line x1="897.910528534567" y1="491.7459905658156" x2="821.6693851796776" y2="463.5765901269725"/><text x="609" y="151.3778161855534" text-anchor="middle" style="font-color:black;font-weight:normal" transform="rotate(438.00012356656725,609,385)">Bacillales</text><path class="line" d=" M 834.7726919538302,467.93393510746625 A 240.52306755171844,240.52306755171844 0 0 0 781.2053972769138,217.08142695583427"/><line x1="898.1115177833299" y1="491.2004250698619" x2="834.7726919538302" y2="467.93393510746625"/><path class="line" d=" M 845.7221121375501,471.5319382337832 A 252.04193045871972,252.04193045871972 0 0 0 789.4524663970177,209.03965764811863"/><line x1="898.2788926257924" y1="490.7436630781971" x2="845.7221121375501" y2="471.5319382337832"/><text x="889.0209652293598" y="385" text-anchor="start" style="font-color:black;font-weight:normal" transform="rotate(347.9007978523646,609,385)">18%&#160;&#160;&#160;Staphylococcus</text><path class="line" d=" M 845.716842469381,471.5463529022704 A 252.04193045871972,252.04193045871972 0 0 0 845.7221121375501,471.5319382337832"/><line x1="898.2724529917477" y1="490.76127807537625" x2="845.716842469381" y2="471.5463529022704"/><path class="line" d=" M 834.6883012859556,468.16331334878515 A 240.52306755171844,240.52306755171844 0 0 0 834.7726919538302,467.93393510746625"/><line x1="898.0034519501025" y1="491.4941536466897" x2="834.6883012859556" y2="468.16331334878515"/><path class="line" d=" M 803.3600642898641,464.2241504726717 A 209.88639929465802,209.88639929465802 0 0 0 803.4224174810224,464.0710072637984"/><line x1="894.2157167041445" y1="501.2583112940369" x2="803.3600642898641" y2="464.2241504726717"/><path class="line" d=" M 617.361262249104,573.7157582503276 A 188.900894964514,188.900894964514 0 0 0 783.6192478648868,457.05321917510395"/><line x1="622.632909326384" y1="692.698137438787" x2="617.361262249104" y2="573.7157582503276"/><text x="609" y="584.393647129586" text-anchor="middle" style="font-color:black;font-weight:normal" transform="rotate(324.9428201767244,609,385)">Actinobacteria</text><path class="line" d=" M 618.3005113143731,594.6802353541407 A 209.88639929465802,209.88639929465802 0 0 0 803.0181659212755,465.05780350110206"/><line x1="622.6481329636105" y1="692.6974625612106" x2="618.3005113143731" y2="594.6802353541407"/><text x="609" y="603.3038496859164" text-anchor="middle" style="font-color:black;font-weight:normal" transform="rotate(324.94140279551186,609,385)">Actinobacteria</text><path class="line" d=" M 619.4904210135209,611.4784735369863 A 226.7213000771747,226.7213000771747 0 0 0 818.5802823055059,471.47920661886747"/><line x1="623.2511959443801" y1="692.6701210942572" x2="619.4904210135209" y2="611.4784735369863"/><text x="609" y="618.6221838144465" text-anchor="middle" style="font-color:black;font-weight:normal" transform="rotate(324.8852526936301,609,385)">Propionibacteriales</text><path class="line" d=" M 620.1400033403396,625.2649503154086 A 240.52306755171844,240.52306755171844 0 0 0 831.3385821328499,476.74366964342823"/><line x1="623.2652472536207" y1="692.6694699199013" x2="620.1400033403396" y2="625.2649503154086"/><path class="line" d=" M 621.6823984575204,636.7226479256938 A 252.04193045871972,252.04193045871972 0 0 0 841.9865739142396,481.13735530511894"/><line x1="624.4981304809363" y1="692.6098307135126" x2="621.6823984575204" y2="636.7226479256938"/><text x="889.0209652293598" y="385" text-anchor="start" style="font-color:black;font-weight:normal" transform="rotate(414.7691364635249,609,385)">18%&#160;&#160;&#160;Cutibacterium</text><path class="line" d=" M 621.6469517225947,636.72443131624 A 252.04193045871972,252.04193045871972 0 0 0 621.6823984575204,636.7226479256938"/><line x1="624.4548139012812" y1="692.6120100504477" x2="621.6469517225947" y2="636.72443131624"/><path class="line" d=" M 620.1381745194409,625.2650351026195 A 240.52306755171844,240.52306755171844 0 0 0 620.1400033403396,625.2649503154086"/><line x1="623.2629053708129" y1="692.6695784935248" x2="620.1381745194409" y2="625.2650351026195"/><path class="line" d=" M 619.3775054245014,611.4836755482584 A 226.7213000771747,226.7213000771747 0 0 0 619.4904210135209,611.4784735369863"/><line x1="623.097800558035" y1="692.6771880062379" x2="619.3775054245014" y2="611.4836755482584"/><path class="line" d=" M 618.2965212641169,594.6804122975307 A 209.88639929465802,209.88639929465802 0 0 0 618.3005113143731,594.6802353541407"/><line x1="622.6422777224749" y1="692.6977222186457" x2="618.2965212641169" y2="594.6804122975307"/><path class="line" d=" M 617.3346879434055,573.7169337798821 A 188.900894964514,188.900894964514 0 0 0 617.361262249104,573.7157582503276"/><line x1="622.5895803302103" y1="692.7000541216214" x2="617.3346879434055" y2="573.7169337798821"/><path class="line" d=" M 615.6985493442961,546.8872721923356 A 162.02579875190645,162.02579875190645 0 0 0 616.0059796016143,546.874258951246"/><line x1="621.7334857407634" y1="692.7366704520113" x2="615.6985493442961" y2="546.8872721923356"/><path class="line" d=" M 613.636007549798,511.3183931605802 A 126.40343751920945,126.40343751920945 0 0 0 613.636969045197,511.3183578691022"/><line x1="620.2962934660759" y1="692.7927772933086" x2="613.636007549798" y2="511.3183931605802"/><path class="line" d=" M 609.4354696600275,461.99876860168087 A 77,77 0 0 0 611.8234876611942,461.94821581704855"/><line x1="610.74187864011" y1="692.9950744067235" x2="609.4354696600275" y2="461.99876860168087"/></svg>