<?xml version="1.0" standalone="no"?><!DOCTYPE svg PUBLIC "-//W3C//DTD SVG 1.1//EN" 	"http://www.w3.org/Graphics/SVG/1.1/DTD/svg11.dtd"><svg width="1368" height="770" version="1.1"	xmlns="http://www.w3.org/2000/svg"><title>Krona (snapshot) - root</title><defs>	<style type="text/css">	text {font-size: 11px; font-family: sans-serif; dominant-baseline:central}	path {stroke-width:0.27499999999999997;}	path.wedge {stroke:none}	path.line {fill:none;stroke:black;}	line {stroke:black;stroke-width:0.27499999999999997;}	line.tick {stroke-width:0.5499999999999999;}	line.pattern {stroke-width:0.18333333333333332;}	circle {fill:none;stroke:black;stroke-width:0.27499999999999997;}	rect {stroke:black;stroke-width:0.27499999999999997;}	.highlight {stroke:black;stroke-width:1.375;}	.searchHighlight {fill:rgb(255, 255, 100);stroke:none;}	</style><pattern id="hiddenPattern" patternUnits="userSpaceOnUse" x="0" y="0" width="6.6" height="6.6"><line class="pattern" x1="0" y1="0" x2="3.3" y2="3.3"/><line class="pattern" x1="3.3" y1="6.6" x2="6.6" y2="3.3"/></pattern></defs><path class="wedge" fill="rgb(220,220,220)" d=" M 609.6270921008619,461.9974464219239 L 611.5083684034473,692.9897856876955 A 308,308 0 0,1 609.0000000000001,693 L 609,462 A 77,77 0 0 0 609.6270921008619,461.9974464219239 Z "/><path class="wedge" fill="rgb(207,111,111)" d=" M 609,462 L 609,693 A 308,308 0 1,1 613.8132128650093,692.9623889079901 L 610.2033032162523,461.9905972269975 A 77,77 0 1 0 609,462 Z "/><path class="wedge" fill="rgb(210,121,121)" d=" M 609,511.40343751920943 L 609,693 A 308,308 0 1,1 613.8203482543919,692.9622773047154 L 610.9782746408923,511.3879560959741 A 126.40343751920945,126.40343751920945 0 1 0 609,511.40343751920943 Z "/><path class="wedge" fill="rgb(210,121,121)" d=" M 611.9699415772914,546.9985768709737 L 614.645656511815,692.948253059748 A 308,308 0 0,1 613.8203482543919,692.9622773047154 L 611.5357817408448,547.0059544342618 A 162.02579875190645,162.02579875190645 0 0 0 611.9699415772914,546.9985768709737 Z "/><path class="wedge" fill="rgb(213,130,130)" d=" M 609,547.0257987519064 L 609,693 A 308,308 0 1,1 615.3532014161112,692.9344684048317 L 612.342151084666,546.991325345898 A 162.02579875190645,162.02579875190645 0 1 0 609,547.0257987519064 Z "/><path class="wedge" fill="rgb(213,130,130)" d=" M 613.0365370228056,573.8577625814144 L 615.5815114494702,692.9296733136325 A 308,308 0 0,1 615.3532014161112,692.9344684048317 L 612.8965111473806,573.8607034808266 A 188.900894964514,188.900894964514 0 0 0 613.0365370228056,573.8577625814144 Z "/><path class="wedge" fill="rgb(216,140,140)" d=" M 609,573.900894964514 L 609,693 A 308,308 0 1,1 615.851435822109,692.92378574442 L 613.2020855798322,573.8541516492929 A 188.900894964514,188.900894964514 0 1 0 609,573.900894964514 Z "/><path class="wedge" fill="rgb(216,140,140)" d=" M 614.8113541105389,594.8059312132966 L 617.5279325962097,692.8819162692647 A 308,308 0 0,1 615.851435822109,692.92378574442 L 613.6689064763016,594.8344631398575 A 209.88639929465802,209.88639929465802 0 0 0 614.8113541105389,594.8059312132966 Z "/><path class="wedge" fill="rgb(219,149,149)" d=" M 609,594.8863992946581 L 609,693 A 308,308 0 1,1 617.6373127900249,692.8788671340844 L 614.8858911723377,594.803853382115 A 209.88639929465802,209.88639929465802 0 1 0 609,594.8863992946581 Z "/><path class="wedge" fill="rgb(219,149,149)" d=" M 624.5333788040211,611.1885542011688 L 630.1020343920486,692.2762668097176 A 308,308 0 0,1 617.6373127900249,692.8788671340844 L 615.3579960549599,611.6321331913226 A 226.7213000771747,226.7213000771747 0 0 0 624.5333788040211,611.1885542011688 Z "/><path class="wedge" fill="rgb(223,159,159)" d=" M 609,611.7213000771746 L 609,693 A 308,308 0 1,1 763.81437733897,651.2639828612706 L 722.9601198082129,580.9990790845254 A 226.7213000771747,226.7213000771747 0 1 0 609,611.7213000771746 Z "/><path class="wedge" fill="rgb(223,159,159)" d=" M 731.2502942695045,592.1381461139113 L 765.5466922498442,650.2491906597126 A 308,308 0 0,1 763.81437733897,651.2639828612706 L 729.8974965541504,592.9306166763993 A 240.52306755171844,240.52306755171844 0 0 0 731.2502942695045,592.1381461139113 Z "/><path class="wedge" fill="rgb(226,168,168)" d=" M 609,625.5230675517184 L 609,693 A 308,308 0 1,1 767.7863006309312,648.9145898428951 L 732.9992471199381,591.0959309112556 A 240.52306755171844,240.52306755171844 0 1 0 609,625.5230675517184 Z "/><path class="wedge" fill="rgb(226,168,168)" d=" M 739.7107760631544,600.4990202537497 L 768.7310374277001,648.3438734473818 A 308,308 0 0,1 767.7863006309312,648.9145898428951 L 738.9376809786316,600.9660477280016 A 252.04193045871972,252.04193045871972 0 0 0 739.7107760631544,600.4990202537497 Z "/><path class="wedge" fill="rgb(229,178,178)" d=" M 609,637.0419304587197 L 609,693 A 308,308 0 1,1 768.7767969696707,648.3161125911452 L 739.7482219180089,600.4763030466163 A 252.04193045871972,252.04193045871972 0 1 0 609,637.0419304587197 Z "/><path class="wedge" fill="rgb(229,200,178)" d=" M 739.7482219180089,600.4763030466163 L 768.7767969696707,648.3161125911452 A 308,308 0 0,1 768.7310374277001,648.3438734473818 L 739.7107760631544,600.4990202537497 A 252.04193045871972,252.04193045871972 0 0 0 739.7482219180089,600.4763030466163 Z "/><path class="wedge" fill="url(#hiddenPattern)" d=" M 739.7482219180089,600.4763030466163 L 768.7767969696707,648.3161125911452 A 308,308 0 0,1 768.7310374277001,648.3438734473818 L 739.7107760631544,600.4990202537497 A 252.04193045871972,252.04193045871972 0 0 0 739.7482219180089,600.4763030466163 Z "/><path class="wedge" fill="rgb(223,187,159)" d=" M 732.9992471199381,591.0959309112556 L 767.7863006309312,648.9145898428951 A 308,308 0 0,1 765.5466922498442,650.2491906597126 L 731.2502942695045,592.1381461139113 A 240.52306755171844,240.52306755171844 0 0 0 732.9992471199381,591.0959309112556 Z "/><path class="wedge" fill="url(#hiddenPattern)" d=" M 732.9992471199381,591.0959309112556 L 767.7863006309312,648.9145898428951 A 308,308 0 0,1 765.5466922498442,650.2491906597126 L 731.2502942695045,592.1381461139113 A 240.52306755171844,240.52306755171844 0 0 0 732.9992471199381,591.0959309112556 Z "/><path class="wedge" fill="rgb(223,187,159)" d=" M 722.9601198082129,580.9990790845254 L 763.81437733897,651.2639828612706 A 308,308 0 0,1 630.1020343920486,692.2762668097176 L 624.5333788040211,611.1885542011688 A 226.7213000771747,226.7213000771747 0 0 0 722.9601198082129,580.9990790845254 Z "/><path class="wedge" fill="rgb(223,187,159)" d=" M 625.5911004437994,624.950164431184 L 630.2456085343724,692.2663732301409 A 308,308 0 0,1 630.1020343920486,692.2762668097176 L 625.4789806609007,624.9578905159532 A 240.52306755171844,240.52306755171844 0 0 0 625.5911004437994,624.950164431184 Z "/><path class="wedge" fill="rgb(226,194,168)" d=" M 729.8974965541504,592.9306166763993 L 763.81437733897,651.2639828612706 A 308,308 0 0,1 630.7427424580872,692.2315952997044 L 625.9793217954743,624.9230056827695 A 240.52306755171844,240.52306755171844 0 0 0 729.8974965541504,592.9306166763993 Z "/><path class="wedge" fill="rgb(226,194,168)" d=" M 626.9662563123846,636.4007723605396 L 630.9551045897134,692.2164926927829 A 308,308 0 0,1 630.7427424580872,692.2315952997044 L 626.792476566893,636.4131310949663 A 252.04193045871972,252.04193045871972 0 0 0 626.9662563123846,636.4007723605396 Z "/><path class="wedge" fill="rgb(229,200,178)" d=" M 735.6873848288269,602.8885982207212 L 763.81437733897,651.2639828612706 A 308,308 0 0,1 630.9705271304521,692.2153901379455 L 626.9788768543988,636.3998701201185 A 252.04193045871972,252.04193045871972 0 0 0 735.6873848288269,602.8885982207212 Z "/><path class="wedge" fill="rgb(229,202,178)" d=" M 626.9788768543988,636.3998701201185 L 630.9705271304521,692.2153901379455 A 308,308 0 0,1 630.9551045897134,692.2164926927829 L 626.9662563123846,636.4007723605396 A 252.04193045871972,252.04193045871972 0 0 0 626.9788768543988,636.3998701201185 Z "/><path class="wedge" fill="url(#hiddenPattern)" d=" M 626.9788768543988,636.3998701201185 L 630.9705271304521,692.2153901379455 A 308,308 0 0,1 630.9551045897134,692.2164926927829 L 626.9662563123846,636.4007723605396 A 252.04193045871972,252.04193045871972 0 0 0 626.9788768543988,636.3998701201185 Z "/><path class="wedge" fill="rgb(223,189,159)" d=" M 625.9793217954743,624.9230056827695 L 630.7427424580872,692.2315952997044 A 308,308 0 0,1 630.2456085343724,692.2663732301409 L 625.5911004437994,624.950164431184 A 240.52306755171844,240.52306755171844 0 0 0 625.9793217954743,624.9230056827695 Z "/><path class="wedge" fill="url(#hiddenPattern)" d=" M 625.9793217954743,624.9230056827695 L 630.7427424580872,692.2315952997044 A 308,308 0 0,1 630.2456085343724,692.2663732301409 L 625.5911004437994,624.950164431184 A 240.52306755171844,240.52306755171844 0 0 0 625.9793217954743,624.9230056827695 Z "/><path class="wedge" fill="rgb(216,177,140)" d=" M 614.8858911723377,594.803853382115 L 617.6373127900249,692.8788671340844 A 308,308 0 0,1 617.5279325962097,692.8819162692647 L 614.8113541105389,594.8059312132966 A 209.88639929465802,209.88639929465802 0 0 0 614.8858911723377,594.803853382115 Z "/><path class="wedge" fill="url(#hiddenPattern)" d=" M 614.8858911723377,594.803853382115 L 617.6373127900249,692.8788671340844 A 308,308 0 0,1 617.5279325962097,692.8819162692647 L 614.8113541105389,594.8059312132966 A 209.88639929465802,209.88639929465802 0 0 0 614.8858911723377,594.803853382115 Z "/><path class="wedge" fill="rgb(213,171,130)" d=" M 613.2020855798322,573.8541516492929 L 615.851435822109,692.92378574442 A 308,308 0 0,1 615.5815114494702,692.9296733136325 L 613.0365370228056,573.8577625814144 A 188.900894964514,188.900894964514 0 0 0 613.2020855798322,573.8541516492929 Z "/><path class="wedge" fill="url(#hiddenPattern)" d=" M 613.2020855798322,573.8541516492929 L 615.851435822109,692.92378574442 A 308,308 0 0,1 615.5815114494702,692.9296733136325 L 613.0365370228056,573.8577625814144 A 188.900894964514,188.900894964514 0 0 0 613.2020855798322,573.8541516492929 Z "/><path class="wedge" fill="rgb(210,165,121)" d=" M 612.342151084666,546.991325345898 L 615.3532014161112,692.9344684048317 A 308,308 0 0,1 614.645656511815,692.948253059748 L 611.9699415772914,546.9985768709737 A 162.02579875190645,162.02579875190645 0 0 0 612.342151084666,546.991325345898 Z "/><path class="wedge" fill="url(#hiddenPattern)" d=" M 612.342151084666,546.991325345898 L 615.3532014161112,692.9344684048317 A 308,308 0 0,1 614.645656511815,692.948253059748 L 611.9699415772914,546.9985768709737 A 162.02579875190645,162.02579875190645 0 0 0 612.342151084666,546.991325345898 Z "/><path class="wedge" fill="rgb(207,159,111)" d=" M 610.9782746408923,511.3879560959741 L 613.8203482543919,692.9622773047154 A 308,308 0 0,1 613.8132128650093,692.9623889079901 L 610.9753462715872,511.38800189804414 A 126.40343751920945,126.40343751920945 0 0 0 610.9782746408923,511.3879560959741 Z "/><path class="wedge" fill="url(#hiddenPattern)" d=" M 610.9782746408923,511.3879560959741 L 613.8203482543919,692.9622773047154 A 308,308 0 0,1 613.8132128650093,692.9623889079901 L 610.9753462715872,511.38800189804414 A 126.40343751920945,126.40343751920945 0 0 0 610.9782746408923,511.3879560959741 Z "/><path class="wedge" fill="rgb(101,204,204)" d=" M 610.2033032162523,461.9905972269975 L 613.8132128650093,692.9623889079901 A 308,308 0 0,1 611.5083684034473,692.9897856876955 L 609.6270921008619,461.9974464219239 A 77,77 0 0 0 610.2033032162523,461.9905972269975 Z "/><path class="wedge" fill="url(#hiddenPattern)" d=" M 610.2033032162523,461.9905972269975 L 613.8132128650093,692.9623889079901 A 308,308 0 0,1 611.5083684034473,692.9897856876955 L 609.6270921008619,461.9974464219239 A 77,77 0 0 0 610.2033032162523,461.9905972269975 Z "/><rect fill="rgb(101,204,204)" x="1334.45" y="707.1166666666668" width="22" height="22"/><rect fill="url(#hiddenPattern)" style="stroke:none" x="1334.45" y="707.1166666666668" width="22" height="22"/><path class="line" d="M 612.6608162632859,692.9782434268474 L 613.2709523071669,744.3079506646552 A 359.3333333333333,359.3333333333333 0 0,0 743.7357815627802,718.1166666666668 L 981.1666666666666,718.1166666666668 L 1250.8954752604168,718.1166666666668"/><text x="1327.1166666666668" y="718.1166666666668" style="font-color:black;font-weight:normal" text-anchor="end">Viruses&#160;&#160;&#160;0.1%</text><circle cx="609" cy="385" r="77"/><circle cx="609" cy="385" r="308"/><text x="609" y="385" text-anchor="middle" style="font-color:black;font-weight:bold" transform="rotate(360,609,385)">root</text><rect fill="rgb(220,220,220)" x="1334.45" y="736.45" width="22" height="22"/><path class="line" d="M 610.2541946000908,692.9974464113382 L 610.5154851417765,757.1635810803668 A 372.1666666666667,372.1666666666667 0 0,0 693.4868349376267,747.45 L 970.1666666666666,747.45 L 1234.1806315104168,747.45"/><text x="1327.1166666666668" y="747.45" style="font-color:black;font-weight:normal" text-anchor="end">[other root]&#160;&#160;&#160;0.1%</text><path class="line" d=" M 610.2033032162523,461.9905972269975 A 77,77 0 1 0 609,462"/><line x1="613.8132128650093" y1="692.9623889079901" x2="610.2033032162523" y2="461.9905972269975"/><text x="609" y="293.1789687442372" text-anchor="middle" style="font-color:black;font-weight:normal" transform="rotate(359.55229219316965,609,385)">cellular organisms</text><path class="line" d=" M 610.9782746408923,511.3879560959741 A 126.40343751920945,126.40343751920945 0 1 0 609,511.40343751920943"/><line x1="613.8203482543919" y1="692.9622773047154" x2="610.9782746408923" y2="511.3879560959741"/><text x="609" y="247.90985411098146" text-anchor="middle" style="font-color:black;font-weight:normal" transform="rotate(359.55162843066876,609,385)">Bacteria</text><path class="line" d=" M 612.342151084666,546.991325345898 A 162.02579875190645,162.02579875190645 0 1 0 609,547.0257987519064"/><line x1="615.3532014161112" y1="692.9344684048317" x2="612.342151084666" y2="546.991325345898"/><text x="609" y="214.9116723843113" text-anchor="middle" style="font-color:black;font-weight:normal" transform="rotate(359.4090301200673,609,385)">Terrabacteria group</text><path class="line" d=" M 613.2020855798322,573.8541516492929 A 188.900894964514,188.900894964514 0 1 0 609,573.900894964514"/><line x1="615.851435822109" y1="692.92378574442" x2="613.2020855798322" y2="573.8541516492929"/><text x="609" y="185.60635287041396" text-anchor="middle" style="font-color:black;font-weight:normal" transform="rotate(359.3626773720905,609,385)">Firmicutes</text><path class="line" d=" M 614.8858911723377,594.803853382115 A 209.88639929465802,209.88639929465802 0 1 0 609,594.8863992946581"/><line x1="617.6373127900249" y1="692.8788671340844" x2="614.8858911723377" y2="594.803853382115"/><text x="609" y="166.69615031408367" text-anchor="middle" style="font-color:black;font-weight:normal" transform="rotate(359.1965154927085,609,385)">Bacilli</text><path class="line" d=" M 722.9601198082129,580.9990790845254 A 226.7213000771747,226.7213000771747 0 1 0 609,611.7213000771746"/><line x1="763.81437733897" y1="651.2639828612706" x2="722.9601198082129" y2="580.9990790845254"/><text x="609" y="151.3778161855534" text-anchor="middle" style="font-color:black;font-weight:normal" transform="rotate(344.91245710127544,609,385)">Lactobacillales</text><path class="line" d=" M 732.9992471199381,591.0959309112556 A 240.52306755171844,240.52306755171844 0 1 0 609,625.5230675517184"/><line x1="767.7863006309312" y1="648.9145898428951" x2="732.9992471199381" y2="591.0959309112556"/><path class="line" d=" M 739.7482219180089,600.4763030466163 A 252.04193045871972,252.04193045871972 0 1 0 609,637.0419304587197"/><line x1="768.7767969696707" y1="648.3161125911452" x2="739.7482219180089" y2="600.4763030466163"/><text x="328.97903477064017" y="385" text-anchor="end" style="font-color:black;font-weight:normal" transform="rotate(74.37558386516281,609,385)">Enterococcus&#160;&#160;&#160;91%</text><path class="line" d=" M 739.7107760631544,600.4990202537497 A 252.04193045871972,252.04193045871972 0 0 0 739.7482219180089,600.4763030466163"/><line x1="768.7310374277001" y1="648.3438734473818" x2="739.7107760631544" y2="600.4990202537497"/><path class="line" d=" M 731.2502942695045,592.1381461139113 A 240.52306755171844,240.52306755171844 0 0 0 732.9992471199381,591.0959309112556"/><line x1="765.5466922498442" y1="650.2491906597126" x2="731.2502942695045" y2="592.1381461139113"/><path class="line" d=" M 624.5333788040211,611.1885542011688 A 226.7213000771747,226.7213000771747 0 0 0 722.9601198082129,580.9990790845254"/><line x1="630.1020343920486" y1="692.2762668097176" x2="624.5333788040211" y2="611.1885542011688"/><text x="609" y="618.6221838144465" text-anchor="middle" style="font-color:black;font-weight:normal" transform="rotate(342.94816260706244,609,385)">Bacillales</text><path class="line" d=" M 625.9793217954743,624.9230056827695 A 240.52306755171844,240.52306755171844 0 0 0 729.8974965541504,592.9306166763993"/><line x1="630.7427424580872" y1="692.2315952997044" x2="625.9793217954743" y2="624.9230056827695"/><path class="line" d=" M 626.9788768543988,636.3998701201185 A 252.04193045871972,252.04193045871972 0 0 0 735.6873848288269,602.8885982207212"/><line x1="630.9705271304521" y1="692.2153901379455" x2="626.9788768543988" y2="636.3998701201185"/><text x="889.0209652293598" y="385" text-anchor="start" style="font-color:black;font-weight:normal" transform="rotate(432.8671835819575,609,385)">7%&#160;&#160;&#160;Staphylococcus</text><path class="line" d=" M 626.9662563123846,636.4007723605396 A 252.04193045871972,252.04193045871972 0 0 0 626.9788768543988,636.3998701201185"/><line x1="630.9551045897134" y1="692.2164926927829" x2="626.9662563123846" y2="636.4007723605396"/><path class="line" d=" M 625.5911004437994,624.950164431184 A 240.52306755171844,240.52306755171844 0 0 0 625.9793217954743,624.9230056827695"/><line x1="630.2456085343724" y1="692.2663732301409" x2="625.5911004437994" y2="624.950164431184"/><path class="line" d=" M 614.8113541105389,594.8059312132966 A 209.88639929465802,209.88639929465802 0 0 0 614.8858911723377,594.803853382115"/><line x1="617.5279325962097" y1="692.8819162692647" x2="614.8113541105389" y2="594.8059312132966"/><path class="line" d=" M 613.0365370228056,573.8577625814144 A 188.900894964514,188.900894964514 0 0 0 613.2020855798322,573.8541516492929"/><line x1="615.5815114494702" y1="692.9296733136325" x2="613.0365370228056" y2="573.8577625814144"/><path class="line" d=" M 611.9699415772914,546.9985768709737 A 162.02579875190645,162.02579875190645 0 0 0 612.342151084666,546.991325345898"/><line x1="614.645656511815" y1="692.948253059748" x2="611.9699415772914" y2="546.9985768709737"/><path class="line" d=" M 610.9753462715872,511.38800189804414 A 126.40343751920945,126.40343751920945 0 0 0 610.9782746408923,511.3879560959741"/><path class="line" d=" M 609.6270921008619,461.9974464219239 A 77,77 0 0 0 610.2033032162523,461.9905972269975"/><line x1="611.5083684034473" y1="692.9897856876955" x2="609.6270921008619" y2="461.9974464219239"/></svg>